<svg xmlns="http://www.w3.org/2000/svg" width="800" height="400" viewBox="0 0 800 400">
  <rect width="800" height="400" fill="#ffffff"/>
  <line x1="72" y1="330" x2="760" y2="330" stroke="#e8e8e8" stroke-width="1"/><text x="62" y="334" text-anchor="end" font-family="system-ui,sans-serif" font-size="12" fill="#666666">0</text><line x1="72" y1="276" x2="760" y2="276" stroke="#e8e8e8" stroke-width="1"/><text x="62" y="280" text-anchor="end" font-family="system-ui,sans-serif" font-size="12" fill="#666666">200</text><line x1="72" y1="222" x2="760" y2="222" stroke="#e8e8e8" stroke-width="1"/><text x="62" y="226" text-anchor="end" font-family="system-ui,sans-serif" font-size="12" fill="#666666">400</text><line x1="72" y1="168" x2="760" y2="168" stroke="#e8e8e8" stroke-width="1"/><text x="62" y="172" text-anchor="end" font-family="system-ui,sans-serif" font-size="12" fill="#666666">600</text><line x1="72" y1="114" x2="760" y2="114" stroke="#e8e8e8" stroke-width="1"/><text x="62" y="118" text-anchor="end" font-family="system-ui,sans-serif" font-size="12" fill="#666666">800</text><line x1="72" y1="60" x2="760" y2="60" stroke="#e8e8e8" stroke-width="1"/><text x="62" y="64" text-anchor="end" font-family="system-ui,sans-serif" font-size="12" fill="#666666">1K</text>
  <polyline points="72,315 81,297 90,274 100,271 109,269 118,266 127,262 136,259 145,257 155,254 164,252 173,250 182,247 191,245 200,243 210,238 219,236 228,234 237,233 246,231 255,229 265,228 274,226 283,223 292,221 301,219 311,217 320,216 329,213 338,156 347,140 356,133 366,132 375,129 384,126 393,123 402,121 411,119 421,119 430,118 439,117 448,115 457,114 466,112 476,111 485,110 494,109 503,108 512,107 521,106 531,105 540,105 549,104 558,103 567,103 577,102 586,102 595,100 604,99 613,99 622,98 632,97 641,96 650,95 659,89 668,87 677,86 687,85 696,84 705,81 714,79 723,77 732,76 742,74 751,73 760,71" fill="none" stroke="#e05c3a" stroke-width="2.5" stroke-linejoin="round" stroke-linecap="round"/><circle cx="72" cy="315" r="3" fill="#e05c3a"/><circle cx="81" cy="297" r="3" fill="#e05c3a"/><circle cx="90" cy="274" r="3" fill="#e05c3a"/><circle cx="100" cy="271" r="3" fill="#e05c3a"/><circle cx="109" cy="269" r="3" fill="#e05c3a"/><circle cx="118" cy="266" r="3" fill="#e05c3a"/><circle cx="127" cy="262" r="3" fill="#e05c3a"/><circle cx="136" cy="259" r="3" fill="#e05c3a"/><circle cx="145" cy="257" r="3" fill="#e05c3a"/><circle cx="155" cy="254" r="3" fill="#e05c3a"/><circle cx="164" cy="252" r="3" fill="#e05c3a"/><circle cx="173" cy="250" r="3" fill="#e05c3a"/><circle cx="182" cy="247" r="3" fill="#e05c3a"/><circle cx="191" cy="245" r="3" fill="#e05c3a"/><circle cx="200" cy="243" r="3" fill="#e05c3a"/><circle cx="210" cy="238" r="3" fill="#e05c3a"/><circle cx="219" cy="236" r="3" fill="#e05c3a"/><circle cx="228" cy="234" r="3" fill="#e05c3a"/><circle cx="237" cy="233" r="3" fill="#e05c3a"/><circle cx="246" cy="231" r="3" fill="#e05c3a"/><circle cx="255" cy="229" r="3" fill="#e05c3a"/><circle cx="265" cy="228" r="3" fill="#e05c3a"/><circle cx="274" cy="226" r="3" fill="#e05c3a"/><circle cx="283" cy="223" r="3" fill="#e05c3a"/><circle cx="292" cy="221" r="3" fill="#e05c3a"/><circle cx="301" cy="219" r="3" fill="#e05c3a"/><circle cx="311" cy="217" r="3" fill="#e05c3a"/><circle cx="320" cy="216" r="3" fill="#e05c3a"/><circle cx="329" cy="213" r="3" fill="#e05c3a"/><circle cx="338" cy="156" r="3" fill="#e05c3a"/><circle cx="347" cy="140" r="3" fill="#e05c3a"/><circle cx="356" cy="133" r="3" fill="#e05c3a"/><circle cx="366" cy="132" r="3" fill="#e05c3a"/><circle cx="375" cy="129" r="3" fill="#e05c3a"/><circle cx="384" cy="126" r="3" fill="#e05c3a"/><circle cx="393" cy="123" r="3" fill="#e05c3a"/><circle cx="402" cy="121" r="3" fill="#e05c3a"/><circle cx="411" cy="119" r="3" fill="#e05c3a"/><circle cx="421" cy="119" r="3" fill="#e05c3a"/><circle cx="430" cy="118" r="3" fill="#e05c3a"/><circle cx="439" cy="117" r="3" fill="#e05c3a"/><circle cx="448" cy="115" r="3" fill="#e05c3a"/><circle cx="457" cy="114" r="3" fill="#e05c3a"/><circle cx="466" cy="112" r="3" fill="#e05c3a"/><circle cx="476" cy="111" r="3" fill="#e05c3a"/><circle cx="485" cy="110" r="3" fill="#e05c3a"/><circle cx="494" cy="109" r="3" fill="#e05c3a"/><circle cx="503" cy="108" r="3" fill="#e05c3a"/><circle cx="512" cy="107" r="3" fill="#e05c3a"/><circle cx="521" cy="106" r="3" fill="#e05c3a"/><circle cx="531" cy="105" r="3" fill="#e05c3a"/><circle cx="540" cy="105" r="3" fill="#e05c3a"/><circle cx="549" cy="104" r="3" fill="#e05c3a"/><circle cx="558" cy="103" r="3" fill="#e05c3a"/><circle cx="567" cy="103" r="3" fill="#e05c3a"/><circle cx="577" cy="102" r="3" fill="#e05c3a"/><circle cx="586" cy="102" r="3" fill="#e05c3a"/><circle cx="595" cy="100" r="3" fill="#e05c3a"/><circle cx="604" cy="99" r="3" fill="#e05c3a"/><circle cx="613" cy="99" r="3" fill="#e05c3a"/><circle cx="622" cy="98" r="3" fill="#e05c3a"/><circle cx="632" cy="97" r="3" fill="#e05c3a"/><circle cx="641" cy="96" r="3" fill="#e05c3a"/><circle cx="650" cy="95" r="3" fill="#e05c3a"/><circle cx="659" cy="89" r="3" fill="#e05c3a"/><circle cx="668" cy="87" r="3" fill="#e05c3a"/><circle cx="677" cy="86" r="3" fill="#e05c3a"/><circle cx="687" cy="85" r="3" fill="#e05c3a"/><circle cx="696" cy="84" r="3" fill="#e05c3a"/><circle cx="705" cy="81" r="3" fill="#e05c3a"/><circle cx="714" cy="79" r="3" fill="#e05c3a"/><circle cx="723" cy="77" r="3" fill="#e05c3a"/><circle cx="732" cy="76" r="3" fill="#e05c3a"/><circle cx="742" cy="74" r="3" fill="#e05c3a"/><circle cx="751" cy="73" r="3" fill="#e05c3a"/><circle cx="760" cy="71" r="3" fill="#e05c3a"/>
  <text x="72" y="352" text-anchor="middle" font-family="system-ui,sans-serif" font-size="12" fill="#666666">2026-06</text><text x="191" y="352" text-anchor="middle" font-family="system-ui,sans-serif" font-size="12" fill="#666666">2026-06</text><text x="311" y="352" text-anchor="middle" font-family="system-ui,sans-serif" font-size="12" fill="#666666">2026-06</text><text x="430" y="352" text-anchor="middle" font-family="system-ui,sans-serif" font-size="12" fill="#666666">2026-07</text><text x="549" y="352" text-anchor="middle" font-family="system-ui,sans-serif" font-size="12" fill="#666666">2026-07</text><text x="668" y="352" text-anchor="middle" font-family="system-ui,sans-serif" font-size="12" fill="#666666">2026-08</text><text x="760" y="352" text-anchor="middle" font-family="system-ui,sans-serif" font-size="12" fill="#666666">2026-08</text>
  <text x="-195" y="18" transform="rotate(-90)" text-anchor="middle" font-family="system-ui,sans-serif" font-size="12" fill="#666666">Cumulative Cloners</text>
  <text x="416" y="392" text-anchor="middle" font-family="system-ui,sans-serif" font-size="12" fill="#666666">Date</text>
  <line x1="72" y1="60" x2="72" y2="330" stroke="#1a1a1a" stroke-width="1.5"/>
  <line x1="72" y1="330" x2="760" y2="330" stroke="#1a1a1a" stroke-width="1.5"/>
  
  <rect x="84" y="72" width="183.20000000000002" height="28" rx="4" fill="#ffffff" stroke="#cccccc" stroke-width="1"/>
  <circle cx="98" cy="86" r="5" fill="#e05c3a"/>
  <text x="108" y="91" font-family="system-ui,sans-serif" font-size="12" fill="#1a1a1a">paarths-collab/hstack</text>
  <text x="760" y="390" text-anchor="end" font-family="system-ui,sans-serif" font-size="11" fill="#aaaaaa">hstack clone history</text>
</svg>
