<svg xmlns="http://www.w3.org/2000/svg" width="800" height="400" viewBox="0 0 800 400">
  <rect width="800" height="400" fill="#ffffff"/>
  <line x1="72" y1="330" x2="760" y2="330" stroke="#e8e8e8" stroke-width="1"/><text x="62" y="334" text-anchor="end" font-family="system-ui,sans-serif" font-size="12" fill="#666666">0</text><line x1="72" y1="276" x2="760" y2="276" stroke="#e8e8e8" stroke-width="1"/><text x="62" y="280" text-anchor="end" font-family="system-ui,sans-serif" font-size="12" fill="#666666">180</text><line x1="72" y1="222" x2="760" y2="222" stroke="#e8e8e8" stroke-width="1"/><text x="62" y="226" text-anchor="end" font-family="system-ui,sans-serif" font-size="12" fill="#666666">360</text><line x1="72" y1="168" x2="760" y2="168" stroke="#e8e8e8" stroke-width="1"/><text x="62" y="172" text-anchor="end" font-family="system-ui,sans-serif" font-size="12" fill="#666666">540</text><line x1="72" y1="114" x2="760" y2="114" stroke="#e8e8e8" stroke-width="1"/><text x="62" y="118" text-anchor="end" font-family="system-ui,sans-serif" font-size="12" fill="#666666">720</text><line x1="72" y1="60" x2="760" y2="60" stroke="#e8e8e8" stroke-width="1"/><text x="62" y="64" text-anchor="end" font-family="system-ui,sans-serif" font-size="12" fill="#666666">900</text>
  <polyline points="72,313 88,294 104,268 120,264 136,262 152,259 168,254 184,251 200,249 216,245 232,243 248,241 264,238 280,236 296,233 312,227 328,226 344,224 360,222 376,220 392,218 408,217 424,215 440,211 456,209 472,207 488,205 504,203 520,200 536,137 552,119 568,111 584,110 600,107 616,104 632,101 648,98 664,96 680,95 696,94 712,93 728,92 744,90 760,88" fill="none" stroke="#e05c3a" stroke-width="2.5" stroke-linejoin="round" stroke-linecap="round"/><circle cx="72" cy="313" r="3" fill="#e05c3a"/><circle cx="88" cy="294" r="3" fill="#e05c3a"/><circle cx="104" cy="268" r="3" fill="#e05c3a"/><circle cx="120" cy="264" r="3" fill="#e05c3a"/><circle cx="136" cy="262" r="3" fill="#e05c3a"/><circle cx="152" cy="259" r="3" fill="#e05c3a"/><circle cx="168" cy="254" r="3" fill="#e05c3a"/><circle cx="184" cy="251" r="3" fill="#e05c3a"/><circle cx="200" cy="249" r="3" fill="#e05c3a"/><circle cx="216" cy="245" r="3" fill="#e05c3a"/><circle cx="232" cy="243" r="3" fill="#e05c3a"/><circle cx="248" cy="241" r="3" fill="#e05c3a"/><circle cx="264" cy="238" r="3" fill="#e05c3a"/><circle cx="280" cy="236" r="3" fill="#e05c3a"/><circle cx="296" cy="233" r="3" fill="#e05c3a"/><circle cx="312" cy="227" r="3" fill="#e05c3a"/><circle cx="328" cy="226" r="3" fill="#e05c3a"/><circle cx="344" cy="224" r="3" fill="#e05c3a"/><circle cx="360" cy="222" r="3" fill="#e05c3a"/><circle cx="376" cy="220" r="3" fill="#e05c3a"/><circle cx="392" cy="218" r="3" fill="#e05c3a"/><circle cx="408" cy="217" r="3" fill="#e05c3a"/><circle cx="424" cy="215" r="3" fill="#e05c3a"/><circle cx="440" cy="211" r="3" fill="#e05c3a"/><circle cx="456" cy="209" r="3" fill="#e05c3a"/><circle cx="472" cy="207" r="3" fill="#e05c3a"/><circle cx="488" cy="205" r="3" fill="#e05c3a"/><circle cx="504" cy="203" r="3" fill="#e05c3a"/><circle cx="520" cy="200" r="3" fill="#e05c3a"/><circle cx="536" cy="137" r="3" fill="#e05c3a"/><circle cx="552" cy="119" r="3" fill="#e05c3a"/><circle cx="568" cy="111" r="3" fill="#e05c3a"/><circle cx="584" cy="110" r="3" fill="#e05c3a"/><circle cx="600" cy="107" r="3" fill="#e05c3a"/><circle cx="616" cy="104" r="3" fill="#e05c3a"/><circle cx="632" cy="101" r="3" fill="#e05c3a"/><circle cx="648" cy="98" r="3" fill="#e05c3a"/><circle cx="664" cy="96" r="3" fill="#e05c3a"/><circle cx="680" cy="95" r="3" fill="#e05c3a"/><circle cx="696" cy="94" r="3" fill="#e05c3a"/><circle cx="712" cy="93" r="3" fill="#e05c3a"/><circle cx="728" cy="92" r="3" fill="#e05c3a"/><circle cx="744" cy="90" r="3" fill="#e05c3a"/><circle cx="760" cy="88" r="3" fill="#e05c3a"/>
  <text x="72" y="352" text-anchor="middle" font-family="system-ui,sans-serif" font-size="12" fill="#666666">2026-06</text><text x="200" y="352" text-anchor="middle" font-family="system-ui,sans-serif" font-size="12" fill="#666666">2026-06</text><text x="328" y="352" text-anchor="middle" font-family="system-ui,sans-serif" font-size="12" fill="#666666">2026-06</text><text x="456" y="352" text-anchor="middle" font-family="system-ui,sans-serif" font-size="12" fill="#666666">2026-06</text><text x="584" y="352" text-anchor="middle" font-family="system-ui,sans-serif" font-size="12" fill="#666666">2026-07</text><text x="712" y="352" text-anchor="middle" font-family="system-ui,sans-serif" font-size="12" fill="#666666">2026-07</text><text x="760" y="352" text-anchor="middle" font-family="system-ui,sans-serif" font-size="12" fill="#666666">2026-07</text>
  <text x="-195" y="18" transform="rotate(-90)" text-anchor="middle" font-family="system-ui,sans-serif" font-size="12" fill="#666666">Cumulative Cloners</text>
  <text x="416" y="392" text-anchor="middle" font-family="system-ui,sans-serif" font-size="12" fill="#666666">Date</text>
  <line x1="72" y1="60" x2="72" y2="330" stroke="#1a1a1a" stroke-width="1.5"/>
  <line x1="72" y1="330" x2="760" y2="330" stroke="#1a1a1a" stroke-width="1.5"/>
  
  <rect x="84" y="72" width="183.20000000000002" height="28" rx="4" fill="#ffffff" stroke="#cccccc" stroke-width="1"/>
  <circle cx="98" cy="86" r="5" fill="#e05c3a"/>
  <text x="108" y="91" font-family="system-ui,sans-serif" font-size="12" fill="#1a1a1a">paarths-collab/hstack</text>
  <text x="760" y="390" text-anchor="end" font-family="system-ui,sans-serif" font-size="11" fill="#aaaaaa">hstack clone history</text>
</svg>
