<svg xmlns="http://www.w3.org/2000/svg" width="800" height="400" viewBox="0 0 800 400">
  <rect width="800" height="400" fill="#ffffff"/>
  <line x1="72" y1="330" x2="760" y2="330" stroke="#e8e8e8" stroke-width="1"/><text x="62" y="334" text-anchor="end" font-family="system-ui,sans-serif" font-size="12" fill="#666666">0</text><line x1="72" y1="276" x2="760" y2="276" stroke="#e8e8e8" stroke-width="1"/><text x="62" y="280" text-anchor="end" font-family="system-ui,sans-serif" font-size="12" fill="#666666">180</text><line x1="72" y1="222" x2="760" y2="222" stroke="#e8e8e8" stroke-width="1"/><text x="62" y="226" text-anchor="end" font-family="system-ui,sans-serif" font-size="12" fill="#666666">360</text><line x1="72" y1="168" x2="760" y2="168" stroke="#e8e8e8" stroke-width="1"/><text x="62" y="172" text-anchor="end" font-family="system-ui,sans-serif" font-size="12" fill="#666666">540</text><line x1="72" y1="114" x2="760" y2="114" stroke="#e8e8e8" stroke-width="1"/><text x="62" y="118" text-anchor="end" font-family="system-ui,sans-serif" font-size="12" fill="#666666">720</text><line x1="72" y1="60" x2="760" y2="60" stroke="#e8e8e8" stroke-width="1"/><text x="62" y="64" text-anchor="end" font-family="system-ui,sans-serif" font-size="12" fill="#666666">900</text>
  <polyline points="72,313 85,294 97,268 110,264 123,262 136,259 148,254 161,251 174,249 187,245 199,243 212,241 225,238 238,236 250,233 263,227 276,226 289,224 301,222 314,220 327,218 340,217 352,215 365,211 378,209 391,207 403,205 416,203 429,200 441,137 454,119 467,111 480,110 492,107 505,104 518,101 531,98 543,96 556,95 569,94 582,93 594,92 607,90 620,88 633,86 645,86 658,85 671,83 684,83 696,82 709,80 722,80 735,79 747,78 760,77" fill="none" stroke="#e05c3a" stroke-width="2.5" stroke-linejoin="round" stroke-linecap="round"/><circle cx="72" cy="313" r="3" fill="#e05c3a"/><circle cx="85" cy="294" r="3" fill="#e05c3a"/><circle cx="97" cy="268" r="3" fill="#e05c3a"/><circle cx="110" cy="264" r="3" fill="#e05c3a"/><circle cx="123" cy="262" r="3" fill="#e05c3a"/><circle cx="136" cy="259" r="3" fill="#e05c3a"/><circle cx="148" cy="254" r="3" fill="#e05c3a"/><circle cx="161" cy="251" r="3" fill="#e05c3a"/><circle cx="174" cy="249" r="3" fill="#e05c3a"/><circle cx="187" cy="245" r="3" fill="#e05c3a"/><circle cx="199" cy="243" r="3" fill="#e05c3a"/><circle cx="212" cy="241" r="3" fill="#e05c3a"/><circle cx="225" cy="238" r="3" fill="#e05c3a"/><circle cx="238" cy="236" r="3" fill="#e05c3a"/><circle cx="250" cy="233" r="3" fill="#e05c3a"/><circle cx="263" cy="227" r="3" fill="#e05c3a"/><circle cx="276" cy="226" r="3" fill="#e05c3a"/><circle cx="289" cy="224" r="3" fill="#e05c3a"/><circle cx="301" cy="222" r="3" fill="#e05c3a"/><circle cx="314" cy="220" r="3" fill="#e05c3a"/><circle cx="327" cy="218" r="3" fill="#e05c3a"/><circle cx="340" cy="217" r="3" fill="#e05c3a"/><circle cx="352" cy="215" r="3" fill="#e05c3a"/><circle cx="365" cy="211" r="3" fill="#e05c3a"/><circle cx="378" cy="209" r="3" fill="#e05c3a"/><circle cx="391" cy="207" r="3" fill="#e05c3a"/><circle cx="403" cy="205" r="3" fill="#e05c3a"/><circle cx="416" cy="203" r="3" fill="#e05c3a"/><circle cx="429" cy="200" r="3" fill="#e05c3a"/><circle cx="441" cy="137" r="3" fill="#e05c3a"/><circle cx="454" cy="119" r="3" fill="#e05c3a"/><circle cx="467" cy="111" r="3" fill="#e05c3a"/><circle cx="480" cy="110" r="3" fill="#e05c3a"/><circle cx="492" cy="107" r="3" fill="#e05c3a"/><circle cx="505" cy="104" r="3" fill="#e05c3a"/><circle cx="518" cy="101" r="3" fill="#e05c3a"/><circle cx="531" cy="98" r="3" fill="#e05c3a"/><circle cx="543" cy="96" r="3" fill="#e05c3a"/><circle cx="556" cy="95" r="3" fill="#e05c3a"/><circle cx="569" cy="94" r="3" fill="#e05c3a"/><circle cx="582" cy="93" r="3" fill="#e05c3a"/><circle cx="594" cy="92" r="3" fill="#e05c3a"/><circle cx="607" cy="90" r="3" fill="#e05c3a"/><circle cx="620" cy="88" r="3" fill="#e05c3a"/><circle cx="633" cy="86" r="3" fill="#e05c3a"/><circle cx="645" cy="86" r="3" fill="#e05c3a"/><circle cx="658" cy="85" r="3" fill="#e05c3a"/><circle cx="671" cy="83" r="3" fill="#e05c3a"/><circle cx="684" cy="83" r="3" fill="#e05c3a"/><circle cx="696" cy="82" r="3" fill="#e05c3a"/><circle cx="709" cy="80" r="3" fill="#e05c3a"/><circle cx="722" cy="80" r="3" fill="#e05c3a"/><circle cx="735" cy="79" r="3" fill="#e05c3a"/><circle cx="747" cy="78" r="3" fill="#e05c3a"/><circle cx="760" cy="77" r="3" fill="#e05c3a"/>
  <text x="72" y="352" text-anchor="middle" font-family="system-ui,sans-serif" font-size="12" fill="#666666">2026-06</text><text x="199" y="352" text-anchor="middle" font-family="system-ui,sans-serif" font-size="12" fill="#666666">2026-06</text><text x="327" y="352" text-anchor="middle" font-family="system-ui,sans-serif" font-size="12" fill="#666666">2026-06</text><text x="454" y="352" text-anchor="middle" font-family="system-ui,sans-serif" font-size="12" fill="#666666">2026-07</text><text x="582" y="352" text-anchor="middle" font-family="system-ui,sans-serif" font-size="12" fill="#666666">2026-07</text><text x="709" y="352" text-anchor="middle" font-family="system-ui,sans-serif" font-size="12" fill="#666666">2026-07</text><text x="760" y="352" text-anchor="middle" font-family="system-ui,sans-serif" font-size="12" fill="#666666">2026-07</text>
  <text x="-195" y="18" transform="rotate(-90)" text-anchor="middle" font-family="system-ui,sans-serif" font-size="12" fill="#666666">Cumulative Cloners</text>
  <text x="416" y="392" text-anchor="middle" font-family="system-ui,sans-serif" font-size="12" fill="#666666">Date</text>
  <line x1="72" y1="60" x2="72" y2="330" stroke="#1a1a1a" stroke-width="1.5"/>
  <line x1="72" y1="330" x2="760" y2="330" stroke="#1a1a1a" stroke-width="1.5"/>
  
  <rect x="84" y="72" width="183.20000000000002" height="28" rx="4" fill="#ffffff" stroke="#cccccc" stroke-width="1"/>
  <circle cx="98" cy="86" r="5" fill="#e05c3a"/>
  <text x="108" y="91" font-family="system-ui,sans-serif" font-size="12" fill="#1a1a1a">paarths-collab/hstack</text>
  <text x="760" y="390" text-anchor="end" font-family="system-ui,sans-serif" font-size="11" fill="#aaaaaa">hstack clone history</text>
</svg>
