<svg xmlns="http://www.w3.org/2000/svg" width="800" height="400" viewBox="0 0 800 400">
  <rect width="800" height="400" fill="#ffffff"/>
  <line x1="72" y1="330" x2="760" y2="330" stroke="#e8e8e8" stroke-width="1"/><text x="62" y="334" text-anchor="end" font-family="system-ui,sans-serif" font-size="12" fill="#666666">0</text><line x1="72" y1="276" x2="760" y2="276" stroke="#e8e8e8" stroke-width="1"/><text x="62" y="280" text-anchor="end" font-family="system-ui,sans-serif" font-size="12" fill="#666666">180</text><line x1="72" y1="222" x2="760" y2="222" stroke="#e8e8e8" stroke-width="1"/><text x="62" y="226" text-anchor="end" font-family="system-ui,sans-serif" font-size="12" fill="#666666">360</text><line x1="72" y1="168" x2="760" y2="168" stroke="#e8e8e8" stroke-width="1"/><text x="62" y="172" text-anchor="end" font-family="system-ui,sans-serif" font-size="12" fill="#666666">540</text><line x1="72" y1="114" x2="760" y2="114" stroke="#e8e8e8" stroke-width="1"/><text x="62" y="118" text-anchor="end" font-family="system-ui,sans-serif" font-size="12" fill="#666666">720</text><line x1="72" y1="60" x2="760" y2="60" stroke="#e8e8e8" stroke-width="1"/><text x="62" y="64" text-anchor="end" font-family="system-ui,sans-serif" font-size="12" fill="#666666">900</text>
  <polyline points="72,313 83,294 94,268 104,264 115,262 126,259 137,254 147,251 158,249 169,245 180,243 190,241 201,238 212,236 223,233 233,227 244,226 255,224 266,222 276,220 287,218 298,217 309,215 319,211 330,209 341,207 352,205 362,203 373,200 384,137 395,119 405,111 416,110 427,107 438,104 448,101 459,98 470,96 481,95 491,94 502,93 513,92 524,90 534,88 545,86 556,86 567,85 577,83 588,83 599,82 610,80 620,80 631,79 642,78 653,77 663,77 674,76 685,75 696,74 706,73 717,72 728,71 739,70 749,68 760,63" fill="none" stroke="#e05c3a" stroke-width="2.5" stroke-linejoin="round" stroke-linecap="round"/><circle cx="72" cy="313" r="3" fill="#e05c3a"/><circle cx="83" cy="294" r="3" fill="#e05c3a"/><circle cx="94" cy="268" r="3" fill="#e05c3a"/><circle cx="104" cy="264" r="3" fill="#e05c3a"/><circle cx="115" cy="262" r="3" fill="#e05c3a"/><circle cx="126" cy="259" r="3" fill="#e05c3a"/><circle cx="137" cy="254" r="3" fill="#e05c3a"/><circle cx="147" cy="251" r="3" fill="#e05c3a"/><circle cx="158" cy="249" r="3" fill="#e05c3a"/><circle cx="169" cy="245" r="3" fill="#e05c3a"/><circle cx="180" cy="243" r="3" fill="#e05c3a"/><circle cx="190" cy="241" r="3" fill="#e05c3a"/><circle cx="201" cy="238" r="3" fill="#e05c3a"/><circle cx="212" cy="236" r="3" fill="#e05c3a"/><circle cx="223" cy="233" r="3" fill="#e05c3a"/><circle cx="233" cy="227" r="3" fill="#e05c3a"/><circle cx="244" cy="226" r="3" fill="#e05c3a"/><circle cx="255" cy="224" r="3" fill="#e05c3a"/><circle cx="266" cy="222" r="3" fill="#e05c3a"/><circle cx="276" cy="220" r="3" fill="#e05c3a"/><circle cx="287" cy="218" r="3" fill="#e05c3a"/><circle cx="298" cy="217" r="3" fill="#e05c3a"/><circle cx="309" cy="215" r="3" fill="#e05c3a"/><circle cx="319" cy="211" r="3" fill="#e05c3a"/><circle cx="330" cy="209" r="3" fill="#e05c3a"/><circle cx="341" cy="207" r="3" fill="#e05c3a"/><circle cx="352" cy="205" r="3" fill="#e05c3a"/><circle cx="362" cy="203" r="3" fill="#e05c3a"/><circle cx="373" cy="200" r="3" fill="#e05c3a"/><circle cx="384" cy="137" r="3" fill="#e05c3a"/><circle cx="395" cy="119" r="3" fill="#e05c3a"/><circle cx="405" cy="111" r="3" fill="#e05c3a"/><circle cx="416" cy="110" r="3" fill="#e05c3a"/><circle cx="427" cy="107" r="3" fill="#e05c3a"/><circle cx="438" cy="104" r="3" fill="#e05c3a"/><circle cx="448" cy="101" r="3" fill="#e05c3a"/><circle cx="459" cy="98" r="3" fill="#e05c3a"/><circle cx="470" cy="96" r="3" fill="#e05c3a"/><circle cx="481" cy="95" r="3" fill="#e05c3a"/><circle cx="491" cy="94" r="3" fill="#e05c3a"/><circle cx="502" cy="93" r="3" fill="#e05c3a"/><circle cx="513" cy="92" r="3" fill="#e05c3a"/><circle cx="524" cy="90" r="3" fill="#e05c3a"/><circle cx="534" cy="88" r="3" fill="#e05c3a"/><circle cx="545" cy="86" r="3" fill="#e05c3a"/><circle cx="556" cy="86" r="3" fill="#e05c3a"/><circle cx="567" cy="85" r="3" fill="#e05c3a"/><circle cx="577" cy="83" r="3" fill="#e05c3a"/><circle cx="588" cy="83" r="3" fill="#e05c3a"/><circle cx="599" cy="82" r="3" fill="#e05c3a"/><circle cx="610" cy="80" r="3" fill="#e05c3a"/><circle cx="620" cy="80" r="3" fill="#e05c3a"/><circle cx="631" cy="79" r="3" fill="#e05c3a"/><circle cx="642" cy="78" r="3" fill="#e05c3a"/><circle cx="653" cy="77" r="3" fill="#e05c3a"/><circle cx="663" cy="77" r="3" fill="#e05c3a"/><circle cx="674" cy="76" r="3" fill="#e05c3a"/><circle cx="685" cy="75" r="3" fill="#e05c3a"/><circle cx="696" cy="74" r="3" fill="#e05c3a"/><circle cx="706" cy="73" r="3" fill="#e05c3a"/><circle cx="717" cy="72" r="3" fill="#e05c3a"/><circle cx="728" cy="71" r="3" fill="#e05c3a"/><circle cx="739" cy="70" r="3" fill="#e05c3a"/><circle cx="749" cy="68" r="3" fill="#e05c3a"/><circle cx="760" cy="63" r="3" fill="#e05c3a"/>
  <text x="72" y="352" text-anchor="middle" font-family="system-ui,sans-serif" font-size="12" fill="#666666">2026-06</text><text x="190" y="352" text-anchor="middle" font-family="system-ui,sans-serif" font-size="12" fill="#666666">2026-06</text><text x="309" y="352" text-anchor="middle" font-family="system-ui,sans-serif" font-size="12" fill="#666666">2026-06</text><text x="427" y="352" text-anchor="middle" font-family="system-ui,sans-serif" font-size="12" fill="#666666">2026-07</text><text x="545" y="352" text-anchor="middle" font-family="system-ui,sans-serif" font-size="12" fill="#666666">2026-07</text><text x="663" y="352" text-anchor="middle" font-family="system-ui,sans-serif" font-size="12" fill="#666666">2026-07</text><text x="760" y="352" text-anchor="middle" font-family="system-ui,sans-serif" font-size="12" fill="#666666">2026-08</text>
  <text x="-195" y="18" transform="rotate(-90)" text-anchor="middle" font-family="system-ui,sans-serif" font-size="12" fill="#666666">Cumulative Cloners</text>
  <text x="416" y="392" text-anchor="middle" font-family="system-ui,sans-serif" font-size="12" fill="#666666">Date</text>
  <line x1="72" y1="60" x2="72" y2="330" stroke="#1a1a1a" stroke-width="1.5"/>
  <line x1="72" y1="330" x2="760" y2="330" stroke="#1a1a1a" stroke-width="1.5"/>
  
  <rect x="84" y="72" width="183.20000000000002" height="28" rx="4" fill="#ffffff" stroke="#cccccc" stroke-width="1"/>
  <circle cx="98" cy="86" r="5" fill="#e05c3a"/>
  <text x="108" y="91" font-family="system-ui,sans-serif" font-size="12" fill="#1a1a1a">paarths-collab/hstack</text>
  <text x="760" y="390" text-anchor="end" font-family="system-ui,sans-serif" font-size="11" fill="#aaaaaa">hstack clone history</text>
</svg>
