<svg xmlns="http://www.w3.org/2000/svg" width="800" height="400" viewBox="0 0 800 400">
  <rect width="800" height="400" fill="#ffffff"/>
  <line x1="72" y1="330" x2="760" y2="330" stroke="#e8e8e8" stroke-width="1"/><text x="62" y="334" text-anchor="end" font-family="system-ui,sans-serif" font-size="12" fill="#666666">0</text><line x1="72" y1="276" x2="760" y2="276" stroke="#e8e8e8" stroke-width="1"/><text x="62" y="280" text-anchor="end" font-family="system-ui,sans-serif" font-size="12" fill="#666666">160</text><line x1="72" y1="222" x2="760" y2="222" stroke="#e8e8e8" stroke-width="1"/><text x="62" y="226" text-anchor="end" font-family="system-ui,sans-serif" font-size="12" fill="#666666">320</text><line x1="72" y1="168" x2="760" y2="168" stroke="#e8e8e8" stroke-width="1"/><text x="62" y="172" text-anchor="end" font-family="system-ui,sans-serif" font-size="12" fill="#666666">480</text><line x1="72" y1="114" x2="760" y2="114" stroke="#e8e8e8" stroke-width="1"/><text x="62" y="118" text-anchor="end" font-family="system-ui,sans-serif" font-size="12" fill="#666666">640</text><line x1="72" y1="60" x2="760" y2="60" stroke="#e8e8e8" stroke-width="1"/><text x="62" y="64" text-anchor="end" font-family="system-ui,sans-serif" font-size="12" fill="#666666">800</text>
  <polyline points="72,311 94,289 116,260 139,256 161,254 183,250 205,245 227,242 250,239 272,235 294,232 316,229 338,226 361,224 383,221 405,215 427,213 449,210 471,208 494,206 516,204 538,203 560,200 582,196 605,193 627,192 649,189 671,187 693,184 716,113 738,93 760,84" fill="none" stroke="#e05c3a" stroke-width="2.5" stroke-linejoin="round" stroke-linecap="round"/><circle cx="72" cy="311" r="3" fill="#e05c3a"/><circle cx="94" cy="289" r="3" fill="#e05c3a"/><circle cx="116" cy="260" r="3" fill="#e05c3a"/><circle cx="139" cy="256" r="3" fill="#e05c3a"/><circle cx="161" cy="254" r="3" fill="#e05c3a"/><circle cx="183" cy="250" r="3" fill="#e05c3a"/><circle cx="205" cy="245" r="3" fill="#e05c3a"/><circle cx="227" cy="242" r="3" fill="#e05c3a"/><circle cx="250" cy="239" r="3" fill="#e05c3a"/><circle cx="272" cy="235" r="3" fill="#e05c3a"/><circle cx="294" cy="232" r="3" fill="#e05c3a"/><circle cx="316" cy="229" r="3" fill="#e05c3a"/><circle cx="338" cy="226" r="3" fill="#e05c3a"/><circle cx="361" cy="224" r="3" fill="#e05c3a"/><circle cx="383" cy="221" r="3" fill="#e05c3a"/><circle cx="405" cy="215" r="3" fill="#e05c3a"/><circle cx="427" cy="213" r="3" fill="#e05c3a"/><circle cx="449" cy="210" r="3" fill="#e05c3a"/><circle cx="471" cy="208" r="3" fill="#e05c3a"/><circle cx="494" cy="206" r="3" fill="#e05c3a"/><circle cx="516" cy="204" r="3" fill="#e05c3a"/><circle cx="538" cy="203" r="3" fill="#e05c3a"/><circle cx="560" cy="200" r="3" fill="#e05c3a"/><circle cx="582" cy="196" r="3" fill="#e05c3a"/><circle cx="605" cy="193" r="3" fill="#e05c3a"/><circle cx="627" cy="192" r="3" fill="#e05c3a"/><circle cx="649" cy="189" r="3" fill="#e05c3a"/><circle cx="671" cy="187" r="3" fill="#e05c3a"/><circle cx="693" cy="184" r="3" fill="#e05c3a"/><circle cx="716" cy="113" r="3" fill="#e05c3a"/><circle cx="738" cy="93" r="3" fill="#e05c3a"/><circle cx="760" cy="84" r="3" fill="#e05c3a"/>
  <text x="72" y="352" text-anchor="middle" font-family="system-ui,sans-serif" font-size="12" fill="#666666">2026-06</text><text x="205" y="352" text-anchor="middle" font-family="system-ui,sans-serif" font-size="12" fill="#666666">2026-06</text><text x="338" y="352" text-anchor="middle" font-family="system-ui,sans-serif" font-size="12" fill="#666666">2026-06</text><text x="471" y="352" text-anchor="middle" font-family="system-ui,sans-serif" font-size="12" fill="#666666">2026-06</text><text x="605" y="352" text-anchor="middle" font-family="system-ui,sans-serif" font-size="12" fill="#666666">2026-06</text><text x="738" y="352" text-anchor="middle" font-family="system-ui,sans-serif" font-size="12" fill="#666666">2026-07</text><text x="760" y="352" text-anchor="middle" font-family="system-ui,sans-serif" font-size="12" fill="#666666">2026-07</text>
  <text x="-195" y="18" transform="rotate(-90)" text-anchor="middle" font-family="system-ui,sans-serif" font-size="12" fill="#666666">Cumulative Cloners</text>
  <text x="416" y="392" text-anchor="middle" font-family="system-ui,sans-serif" font-size="12" fill="#666666">Date</text>
  <line x1="72" y1="60" x2="72" y2="330" stroke="#1a1a1a" stroke-width="1.5"/>
  <line x1="72" y1="330" x2="760" y2="330" stroke="#1a1a1a" stroke-width="1.5"/>
  
  <rect x="84" y="72" width="183.20000000000002" height="28" rx="4" fill="#ffffff" stroke="#cccccc" stroke-width="1"/>
  <circle cx="98" cy="86" r="5" fill="#e05c3a"/>
  <text x="108" y="91" font-family="system-ui,sans-serif" font-size="12" fill="#1a1a1a">paarths-collab/hstack</text>
  <text x="760" y="390" text-anchor="end" font-family="system-ui,sans-serif" font-size="11" fill="#aaaaaa">hstack clone history</text>
</svg>
