<svg xmlns="http://www.w3.org/2000/svg" width="800" height="400" viewBox="0 0 800 400">
  <rect width="800" height="400" fill="#ffffff"/>
  <line x1="72" y1="330" x2="760" y2="330" stroke="#e8e8e8" stroke-width="1"/><text x="62" y="334" text-anchor="end" font-family="system-ui,sans-serif" font-size="12" fill="#666666">0</text><line x1="72" y1="276" x2="760" y2="276" stroke="#e8e8e8" stroke-width="1"/><text x="62" y="280" text-anchor="end" font-family="system-ui,sans-serif" font-size="12" fill="#666666">180</text><line x1="72" y1="222" x2="760" y2="222" stroke="#e8e8e8" stroke-width="1"/><text x="62" y="226" text-anchor="end" font-family="system-ui,sans-serif" font-size="12" fill="#666666">360</text><line x1="72" y1="168" x2="760" y2="168" stroke="#e8e8e8" stroke-width="1"/><text x="62" y="172" text-anchor="end" font-family="system-ui,sans-serif" font-size="12" fill="#666666">540</text><line x1="72" y1="114" x2="760" y2="114" stroke="#e8e8e8" stroke-width="1"/><text x="62" y="118" text-anchor="end" font-family="system-ui,sans-serif" font-size="12" fill="#666666">720</text><line x1="72" y1="60" x2="760" y2="60" stroke="#e8e8e8" stroke-width="1"/><text x="62" y="64" text-anchor="end" font-family="system-ui,sans-serif" font-size="12" fill="#666666">900</text>
  <polyline points="72,313 88,294 103,268 119,264 135,262 150,259 166,254 181,251 197,249 213,245 228,243 244,241 260,238 275,236 291,233 307,227 322,226 338,224 353,222 369,220 385,218 400,217 416,215 432,211 447,209 463,207 479,205 494,203 510,200 525,137 541,119 557,111 572,110 588,107 604,104 619,101 635,98 651,96 666,95 682,94 697,93 713,92 729,90 744,88 760,86" fill="none" stroke="#e05c3a" stroke-width="2.5" stroke-linejoin="round" stroke-linecap="round"/><circle cx="72" cy="313" r="3" fill="#e05c3a"/><circle cx="88" cy="294" r="3" fill="#e05c3a"/><circle cx="103" cy="268" r="3" fill="#e05c3a"/><circle cx="119" cy="264" r="3" fill="#e05c3a"/><circle cx="135" cy="262" r="3" fill="#e05c3a"/><circle cx="150" cy="259" r="3" fill="#e05c3a"/><circle cx="166" cy="254" r="3" fill="#e05c3a"/><circle cx="181" cy="251" r="3" fill="#e05c3a"/><circle cx="197" cy="249" r="3" fill="#e05c3a"/><circle cx="213" cy="245" r="3" fill="#e05c3a"/><circle cx="228" cy="243" r="3" fill="#e05c3a"/><circle cx="244" cy="241" r="3" fill="#e05c3a"/><circle cx="260" cy="238" r="3" fill="#e05c3a"/><circle cx="275" cy="236" r="3" fill="#e05c3a"/><circle cx="291" cy="233" r="3" fill="#e05c3a"/><circle cx="307" cy="227" r="3" fill="#e05c3a"/><circle cx="322" cy="226" r="3" fill="#e05c3a"/><circle cx="338" cy="224" r="3" fill="#e05c3a"/><circle cx="353" cy="222" r="3" fill="#e05c3a"/><circle cx="369" cy="220" r="3" fill="#e05c3a"/><circle cx="385" cy="218" r="3" fill="#e05c3a"/><circle cx="400" cy="217" r="3" fill="#e05c3a"/><circle cx="416" cy="215" r="3" fill="#e05c3a"/><circle cx="432" cy="211" r="3" fill="#e05c3a"/><circle cx="447" cy="209" r="3" fill="#e05c3a"/><circle cx="463" cy="207" r="3" fill="#e05c3a"/><circle cx="479" cy="205" r="3" fill="#e05c3a"/><circle cx="494" cy="203" r="3" fill="#e05c3a"/><circle cx="510" cy="200" r="3" fill="#e05c3a"/><circle cx="525" cy="137" r="3" fill="#e05c3a"/><circle cx="541" cy="119" r="3" fill="#e05c3a"/><circle cx="557" cy="111" r="3" fill="#e05c3a"/><circle cx="572" cy="110" r="3" fill="#e05c3a"/><circle cx="588" cy="107" r="3" fill="#e05c3a"/><circle cx="604" cy="104" r="3" fill="#e05c3a"/><circle cx="619" cy="101" r="3" fill="#e05c3a"/><circle cx="635" cy="98" r="3" fill="#e05c3a"/><circle cx="651" cy="96" r="3" fill="#e05c3a"/><circle cx="666" cy="95" r="3" fill="#e05c3a"/><circle cx="682" cy="94" r="3" fill="#e05c3a"/><circle cx="697" cy="93" r="3" fill="#e05c3a"/><circle cx="713" cy="92" r="3" fill="#e05c3a"/><circle cx="729" cy="90" r="3" fill="#e05c3a"/><circle cx="744" cy="88" r="3" fill="#e05c3a"/><circle cx="760" cy="86" r="3" fill="#e05c3a"/>
  <text x="72" y="352" text-anchor="middle" font-family="system-ui,sans-serif" font-size="12" fill="#666666">2026-06</text><text x="197" y="352" text-anchor="middle" font-family="system-ui,sans-serif" font-size="12" fill="#666666">2026-06</text><text x="322" y="352" text-anchor="middle" font-family="system-ui,sans-serif" font-size="12" fill="#666666">2026-06</text><text x="447" y="352" text-anchor="middle" font-family="system-ui,sans-serif" font-size="12" fill="#666666">2026-06</text><text x="572" y="352" text-anchor="middle" font-family="system-ui,sans-serif" font-size="12" fill="#666666">2026-07</text><text x="697" y="352" text-anchor="middle" font-family="system-ui,sans-serif" font-size="12" fill="#666666">2026-07</text><text x="760" y="352" text-anchor="middle" font-family="system-ui,sans-serif" font-size="12" fill="#666666">2026-07</text>
  <text x="-195" y="18" transform="rotate(-90)" text-anchor="middle" font-family="system-ui,sans-serif" font-size="12" fill="#666666">Cumulative Cloners</text>
  <text x="416" y="392" text-anchor="middle" font-family="system-ui,sans-serif" font-size="12" fill="#666666">Date</text>
  <line x1="72" y1="60" x2="72" y2="330" stroke="#1a1a1a" stroke-width="1.5"/>
  <line x1="72" y1="330" x2="760" y2="330" stroke="#1a1a1a" stroke-width="1.5"/>
  
  <rect x="84" y="72" width="183.20000000000002" height="28" rx="4" fill="#ffffff" stroke="#cccccc" stroke-width="1"/>
  <circle cx="98" cy="86" r="5" fill="#e05c3a"/>
  <text x="108" y="91" font-family="system-ui,sans-serif" font-size="12" fill="#1a1a1a">paarths-collab/hstack</text>
  <text x="760" y="390" text-anchor="end" font-family="system-ui,sans-serif" font-size="11" fill="#aaaaaa">hstack clone history</text>
</svg>
