<svg xmlns="http://www.w3.org/2000/svg" width="800" height="400" viewBox="0 0 800 400">
  <rect width="800" height="400" fill="#ffffff"/>
  <line x1="72" y1="330" x2="760" y2="330" stroke="#e8e8e8" stroke-width="1"/><text x="62" y="334" text-anchor="end" font-family="system-ui,sans-serif" font-size="12" fill="#666666">0</text><line x1="72" y1="276" x2="760" y2="276" stroke="#e8e8e8" stroke-width="1"/><text x="62" y="280" text-anchor="end" font-family="system-ui,sans-serif" font-size="12" fill="#666666">400</text><line x1="72" y1="222" x2="760" y2="222" stroke="#e8e8e8" stroke-width="1"/><text x="62" y="226" text-anchor="end" font-family="system-ui,sans-serif" font-size="12" fill="#666666">800</text><line x1="72" y1="168" x2="760" y2="168" stroke="#e8e8e8" stroke-width="1"/><text x="62" y="172" text-anchor="end" font-family="system-ui,sans-serif" font-size="12" fill="#666666">1.2K</text><line x1="72" y1="114" x2="760" y2="114" stroke="#e8e8e8" stroke-width="1"/><text x="62" y="118" text-anchor="end" font-family="system-ui,sans-serif" font-size="12" fill="#666666">1.6K</text><line x1="72" y1="60" x2="760" y2="60" stroke="#e8e8e8" stroke-width="1"/><text x="62" y="64" text-anchor="end" font-family="system-ui,sans-serif" font-size="12" fill="#666666">2K</text>
  <polyline points="72,322 78,314 85,302 91,300 97,299 104,298 110,296 116,295 122,293 129,292 135,291 141,290 148,289 154,287 160,287 167,284 173,283 179,282 186,281 192,280 198,280 205,279 211,278 217,276 223,275 230,275 236,274 242,273 249,272 255,243 261,235 268,232 274,231 280,229 287,228 293,227 299,225 306,225 312,224 318,224 324,223 331,223 337,222 343,221 350,220 356,220 362,220 369,219 375,219 381,218 388,218 394,217 400,217 407,217 413,216 419,216 425,216 432,215 438,215 444,214 451,214 457,214 463,213 470,212 476,210 482,209 489,208 495,208 501,207 508,206 514,205 520,204 526,203 533,202 539,201 545,201 552,200 558,200 564,198 571,197 577,196 583,196 590,195 596,194 602,194 609,193 615,193 621,192 627,192 634,191 640,190 646,190 653,189 659,189 665,188 672,187 678,186 684,184 691,183 697,183 703,182 710,182 716,181 722,179 728,178 735,177 741,177 747,176 754,176 760,174" fill="none" stroke="#e05c3a" stroke-width="2.5" stroke-linejoin="round" stroke-linecap="round"/><circle cx="72" cy="322" r="3" fill="#e05c3a"/><circle cx="78" cy="314" r="3" fill="#e05c3a"/><circle cx="85" cy="302" r="3" fill="#e05c3a"/><circle cx="91" cy="300" r="3" fill="#e05c3a"/><circle cx="97" cy="299" r="3" fill="#e05c3a"/><circle cx="104" cy="298" r="3" fill="#e05c3a"/><circle cx="110" cy="296" r="3" fill="#e05c3a"/><circle cx="116" cy="295" r="3" fill="#e05c3a"/><circle cx="122" cy="293" r="3" fill="#e05c3a"/><circle cx="129" cy="292" r="3" fill="#e05c3a"/><circle cx="135" cy="291" r="3" fill="#e05c3a"/><circle cx="141" cy="290" r="3" fill="#e05c3a"/><circle cx="148" cy="289" r="3" fill="#e05c3a"/><circle cx="154" cy="287" r="3" fill="#e05c3a"/><circle cx="160" cy="287" r="3" fill="#e05c3a"/><circle cx="167" cy="284" r="3" fill="#e05c3a"/><circle cx="173" cy="283" r="3" fill="#e05c3a"/><circle cx="179" cy="282" r="3" fill="#e05c3a"/><circle cx="186" cy="281" r="3" fill="#e05c3a"/><circle cx="192" cy="280" r="3" fill="#e05c3a"/><circle cx="198" cy="280" r="3" fill="#e05c3a"/><circle cx="205" cy="279" r="3" fill="#e05c3a"/><circle cx="211" cy="278" r="3" fill="#e05c3a"/><circle cx="217" cy="276" r="3" fill="#e05c3a"/><circle cx="223" cy="275" r="3" fill="#e05c3a"/><circle cx="230" cy="275" r="3" fill="#e05c3a"/><circle cx="236" cy="274" r="3" fill="#e05c3a"/><circle cx="242" cy="273" r="3" fill="#e05c3a"/><circle cx="249" cy="272" r="3" fill="#e05c3a"/><circle cx="255" cy="243" r="3" fill="#e05c3a"/><circle cx="261" cy="235" r="3" fill="#e05c3a"/><circle cx="268" cy="232" r="3" fill="#e05c3a"/><circle cx="274" cy="231" r="3" fill="#e05c3a"/><circle cx="280" cy="229" r="3" fill="#e05c3a"/><circle cx="287" cy="228" r="3" fill="#e05c3a"/><circle cx="293" cy="227" r="3" fill="#e05c3a"/><circle cx="299" cy="225" r="3" fill="#e05c3a"/><circle cx="306" cy="225" r="3" fill="#e05c3a"/><circle cx="312" cy="224" r="3" fill="#e05c3a"/><circle cx="318" cy="224" r="3" fill="#e05c3a"/><circle cx="324" cy="223" r="3" fill="#e05c3a"/><circle cx="331" cy="223" r="3" fill="#e05c3a"/><circle cx="337" cy="222" r="3" fill="#e05c3a"/><circle cx="343" cy="221" r="3" fill="#e05c3a"/><circle cx="350" cy="220" r="3" fill="#e05c3a"/><circle cx="356" cy="220" r="3" fill="#e05c3a"/><circle cx="362" cy="220" r="3" fill="#e05c3a"/><circle cx="369" cy="219" r="3" fill="#e05c3a"/><circle cx="375" cy="219" r="3" fill="#e05c3a"/><circle cx="381" cy="218" r="3" fill="#e05c3a"/><circle cx="388" cy="218" r="3" fill="#e05c3a"/><circle cx="394" cy="217" r="3" fill="#e05c3a"/><circle cx="400" cy="217" r="3" fill="#e05c3a"/><circle cx="407" cy="217" r="3" fill="#e05c3a"/><circle cx="413" cy="216" r="3" fill="#e05c3a"/><circle cx="419" cy="216" r="3" fill="#e05c3a"/><circle cx="425" cy="216" r="3" fill="#e05c3a"/><circle cx="432" cy="215" r="3" fill="#e05c3a"/><circle cx="438" cy="215" r="3" fill="#e05c3a"/><circle cx="444" cy="214" r="3" fill="#e05c3a"/><circle cx="451" cy="214" r="3" fill="#e05c3a"/><circle cx="457" cy="214" r="3" fill="#e05c3a"/><circle cx="463" cy="213" r="3" fill="#e05c3a"/><circle cx="470" cy="212" r="3" fill="#e05c3a"/><circle cx="476" cy="210" r="3" fill="#e05c3a"/><circle cx="482" cy="209" r="3" fill="#e05c3a"/><circle cx="489" cy="208" r="3" fill="#e05c3a"/><circle cx="495" cy="208" r="3" fill="#e05c3a"/><circle cx="501" cy="207" r="3" fill="#e05c3a"/><circle cx="508" cy="206" r="3" fill="#e05c3a"/><circle cx="514" cy="205" r="3" fill="#e05c3a"/><circle cx="520" cy="204" r="3" fill="#e05c3a"/><circle cx="526" cy="203" r="3" fill="#e05c3a"/><circle cx="533" cy="202" r="3" fill="#e05c3a"/><circle cx="539" cy="201" r="3" fill="#e05c3a"/><circle cx="545" cy="201" r="3" fill="#e05c3a"/><circle cx="552" cy="200" r="3" fill="#e05c3a"/><circle cx="558" cy="200" r="3" fill="#e05c3a"/><circle cx="564" cy="198" r="3" fill="#e05c3a"/><circle cx="571" cy="197" r="3" fill="#e05c3a"/><circle cx="577" cy="196" r="3" fill="#e05c3a"/><circle cx="583" cy="196" r="3" fill="#e05c3a"/><circle cx="590" cy="195" r="3" fill="#e05c3a"/><circle cx="596" cy="194" r="3" fill="#e05c3a"/><circle cx="602" cy="194" r="3" fill="#e05c3a"/><circle cx="609" cy="193" r="3" fill="#e05c3a"/><circle cx="615" cy="193" r="3" fill="#e05c3a"/><circle cx="621" cy="192" r="3" fill="#e05c3a"/><circle cx="627" cy="192" r="3" fill="#e05c3a"/><circle cx="634" cy="191" r="3" fill="#e05c3a"/><circle cx="640" cy="190" r="3" fill="#e05c3a"/><circle cx="646" cy="190" r="3" fill="#e05c3a"/><circle cx="653" cy="189" r="3" fill="#e05c3a"/><circle cx="659" cy="189" r="3" fill="#e05c3a"/><circle cx="665" cy="188" r="3" fill="#e05c3a"/><circle cx="672" cy="187" r="3" fill="#e05c3a"/><circle cx="678" cy="186" r="3" fill="#e05c3a"/><circle cx="684" cy="184" r="3" fill="#e05c3a"/><circle cx="691" cy="183" r="3" fill="#e05c3a"/><circle cx="697" cy="183" r="3" fill="#e05c3a"/><circle cx="703" cy="182" r="3" fill="#e05c3a"/><circle cx="710" cy="182" r="3" fill="#e05c3a"/><circle cx="716" cy="181" r="3" fill="#e05c3a"/><circle cx="722" cy="179" r="3" fill="#e05c3a"/><circle cx="728" cy="178" r="3" fill="#e05c3a"/><circle cx="735" cy="177" r="3" fill="#e05c3a"/><circle cx="741" cy="177" r="3" fill="#e05c3a"/><circle cx="747" cy="176" r="3" fill="#e05c3a"/><circle cx="754" cy="176" r="3" fill="#e05c3a"/><circle cx="760" cy="174" r="3" fill="#e05c3a"/>
  <text x="72" y="352" text-anchor="middle" font-family="system-ui,sans-serif" font-size="12" fill="#666666">2026-06</text><text x="192" y="352" text-anchor="middle" font-family="system-ui,sans-serif" font-size="12" fill="#666666">2026-06</text><text x="312" y="352" text-anchor="middle" font-family="system-ui,sans-serif" font-size="12" fill="#666666">2026-07</text><text x="432" y="352" text-anchor="middle" font-family="system-ui,sans-serif" font-size="12" fill="#666666">2026-07</text><text x="552" y="352" text-anchor="middle" font-family="system-ui,sans-serif" font-size="12" fill="#666666">2026-08</text><text x="672" y="352" text-anchor="middle" font-family="system-ui,sans-serif" font-size="12" fill="#666666">2026-09</text><text x="760" y="352" text-anchor="middle" font-family="system-ui,sans-serif" font-size="12" fill="#666666">2026-09</text>
  <text x="-195" y="18" transform="rotate(-90)" text-anchor="middle" font-family="system-ui,sans-serif" font-size="12" fill="#666666">Cumulative Cloners</text>
  <text x="416" y="392" text-anchor="middle" font-family="system-ui,sans-serif" font-size="12" fill="#666666">Date</text>
  <line x1="72" y1="60" x2="72" y2="330" stroke="#1a1a1a" stroke-width="1.5"/>
  <line x1="72" y1="330" x2="760" y2="330" stroke="#1a1a1a" stroke-width="1.5"/>
  
  <rect x="84" y="72" width="183.20000000000002" height="28" rx="4" fill="#ffffff" stroke="#cccccc" stroke-width="1"/>
  <circle cx="98" cy="86" r="5" fill="#e05c3a"/>
  <text x="108" y="91" font-family="system-ui,sans-serif" font-size="12" fill="#1a1a1a">paarths-collab/hstack</text>
  <text x="760" y="390" text-anchor="end" font-family="system-ui,sans-serif" font-size="11" fill="#aaaaaa">hstack clone history</text>
</svg>
