<svg xmlns="http://www.w3.org/2000/svg" width="800" height="400" viewBox="0 0 800 400">
  <rect width="800" height="400" fill="#ffffff"/>
  <line x1="72" y1="330" x2="760" y2="330" stroke="#e8e8e8" stroke-width="1"/><text x="62" y="334" text-anchor="end" font-family="system-ui,sans-serif" font-size="12" fill="#666666">0</text><line x1="72" y1="276" x2="760" y2="276" stroke="#e8e8e8" stroke-width="1"/><text x="62" y="280" text-anchor="end" font-family="system-ui,sans-serif" font-size="12" fill="#666666">100</text><line x1="72" y1="222" x2="760" y2="222" stroke="#e8e8e8" stroke-width="1"/><text x="62" y="226" text-anchor="end" font-family="system-ui,sans-serif" font-size="12" fill="#666666">200</text><line x1="72" y1="168" x2="760" y2="168" stroke="#e8e8e8" stroke-width="1"/><text x="62" y="172" text-anchor="end" font-family="system-ui,sans-serif" font-size="12" fill="#666666">300</text><line x1="72" y1="114" x2="760" y2="114" stroke="#e8e8e8" stroke-width="1"/><text x="62" y="118" text-anchor="end" font-family="system-ui,sans-serif" font-size="12" fill="#666666">400</text><line x1="72" y1="60" x2="760" y2="60" stroke="#e8e8e8" stroke-width="1"/><text x="62" y="64" text-anchor="end" font-family="system-ui,sans-serif" font-size="12" fill="#666666">500</text>
  <polyline points="72,299 100,265 127,218 155,211 182,208 210,202 237,193 265,189 292,184 320,178 347,173 375,169 402,164 430,160 457,156 485,145 512,142 540,138 567,135 595,132 622,128 650,127 677,122 705,116 732,111 760,109" fill="none" stroke="#e05c3a" stroke-width="2.5" stroke-linejoin="round" stroke-linecap="round"/><circle cx="72" cy="299" r="3" fill="#e05c3a"/><circle cx="100" cy="265" r="3" fill="#e05c3a"/><circle cx="127" cy="218" r="3" fill="#e05c3a"/><circle cx="155" cy="211" r="3" fill="#e05c3a"/><circle cx="182" cy="208" r="3" fill="#e05c3a"/><circle cx="210" cy="202" r="3" fill="#e05c3a"/><circle cx="237" cy="193" r="3" fill="#e05c3a"/><circle cx="265" cy="189" r="3" fill="#e05c3a"/><circle cx="292" cy="184" r="3" fill="#e05c3a"/><circle cx="320" cy="178" r="3" fill="#e05c3a"/><circle cx="347" cy="173" r="3" fill="#e05c3a"/><circle cx="375" cy="169" r="3" fill="#e05c3a"/><circle cx="402" cy="164" r="3" fill="#e05c3a"/><circle cx="430" cy="160" r="3" fill="#e05c3a"/><circle cx="457" cy="156" r="3" fill="#e05c3a"/><circle cx="485" cy="145" r="3" fill="#e05c3a"/><circle cx="512" cy="142" r="3" fill="#e05c3a"/><circle cx="540" cy="138" r="3" fill="#e05c3a"/><circle cx="567" cy="135" r="3" fill="#e05c3a"/><circle cx="595" cy="132" r="3" fill="#e05c3a"/><circle cx="622" cy="128" r="3" fill="#e05c3a"/><circle cx="650" cy="127" r="3" fill="#e05c3a"/><circle cx="677" cy="122" r="3" fill="#e05c3a"/><circle cx="705" cy="116" r="3" fill="#e05c3a"/><circle cx="732" cy="111" r="3" fill="#e05c3a"/><circle cx="760" cy="109" r="3" fill="#e05c3a"/>
  <text x="72" y="352" text-anchor="middle" font-family="system-ui,sans-serif" font-size="12" fill="#666666">2026-06</text><text x="210" y="352" text-anchor="middle" font-family="system-ui,sans-serif" font-size="12" fill="#666666">2026-06</text><text x="347" y="352" text-anchor="middle" font-family="system-ui,sans-serif" font-size="12" fill="#666666">2026-06</text><text x="485" y="352" text-anchor="middle" font-family="system-ui,sans-serif" font-size="12" fill="#666666">2026-06</text><text x="622" y="352" text-anchor="middle" font-family="system-ui,sans-serif" font-size="12" fill="#666666">2026-06</text><text x="760" y="352" text-anchor="middle" font-family="system-ui,sans-serif" font-size="12" fill="#666666">2026-06</text>
  <text x="-195" y="18" transform="rotate(-90)" text-anchor="middle" font-family="system-ui,sans-serif" font-size="12" fill="#666666">Cumulative Cloners</text>
  <text x="416" y="392" text-anchor="middle" font-family="system-ui,sans-serif" font-size="12" fill="#666666">Date</text>
  <line x1="72" y1="60" x2="72" y2="330" stroke="#1a1a1a" stroke-width="1.5"/>
  <line x1="72" y1="330" x2="760" y2="330" stroke="#1a1a1a" stroke-width="1.5"/>
  
  <rect x="84" y="72" width="183.20000000000002" height="28" rx="4" fill="#ffffff" stroke="#cccccc" stroke-width="1"/>
  <circle cx="98" cy="86" r="5" fill="#e05c3a"/>
  <text x="108" y="91" font-family="system-ui,sans-serif" font-size="12" fill="#1a1a1a">paarths-collab/hstack</text>
  <text x="760" y="390" text-anchor="end" font-family="system-ui,sans-serif" font-size="11" fill="#aaaaaa">hstack clone history</text>
</svg>
