<svg xmlns="http://www.w3.org/2000/svg" width="800" height="400" viewBox="0 0 800 400">
  <rect width="800" height="400" fill="#ffffff"/>
  <line x1="72" y1="330" x2="760" y2="330" stroke="#e8e8e8" stroke-width="1"/><text x="62" y="334" text-anchor="end" font-family="system-ui,sans-serif" font-size="12" fill="#666666">0</text><line x1="72" y1="276" x2="760" y2="276" stroke="#e8e8e8" stroke-width="1"/><text x="62" y="280" text-anchor="end" font-family="system-ui,sans-serif" font-size="12" fill="#666666">180</text><line x1="72" y1="222" x2="760" y2="222" stroke="#e8e8e8" stroke-width="1"/><text x="62" y="226" text-anchor="end" font-family="system-ui,sans-serif" font-size="12" fill="#666666">360</text><line x1="72" y1="168" x2="760" y2="168" stroke="#e8e8e8" stroke-width="1"/><text x="62" y="172" text-anchor="end" font-family="system-ui,sans-serif" font-size="12" fill="#666666">540</text><line x1="72" y1="114" x2="760" y2="114" stroke="#e8e8e8" stroke-width="1"/><text x="62" y="118" text-anchor="end" font-family="system-ui,sans-serif" font-size="12" fill="#666666">720</text><line x1="72" y1="60" x2="760" y2="60" stroke="#e8e8e8" stroke-width="1"/><text x="62" y="64" text-anchor="end" font-family="system-ui,sans-serif" font-size="12" fill="#666666">900</text>
  <polyline points="72,313 85,294 99,268 112,264 126,262 139,259 153,254 166,251 180,249 193,245 207,243 220,241 234,238 247,236 261,233 274,227 288,226 301,224 315,222 328,220 342,218 355,217 369,215 382,211 396,209 409,207 423,205 436,203 450,200 463,137 477,119 490,111 504,110 517,107 531,104 544,101 558,98 571,96 585,95 598,94 612,93 625,92 639,90 652,88 666,86 679,86 693,85 706,83 720,83 733,82 747,80 760,80" fill="none" stroke="#e05c3a" stroke-width="2.5" stroke-linejoin="round" stroke-linecap="round"/><circle cx="72" cy="313" r="3" fill="#e05c3a"/><circle cx="85" cy="294" r="3" fill="#e05c3a"/><circle cx="99" cy="268" r="3" fill="#e05c3a"/><circle cx="112" cy="264" r="3" fill="#e05c3a"/><circle cx="126" cy="262" r="3" fill="#e05c3a"/><circle cx="139" cy="259" r="3" fill="#e05c3a"/><circle cx="153" cy="254" r="3" fill="#e05c3a"/><circle cx="166" cy="251" r="3" fill="#e05c3a"/><circle cx="180" cy="249" r="3" fill="#e05c3a"/><circle cx="193" cy="245" r="3" fill="#e05c3a"/><circle cx="207" cy="243" r="3" fill="#e05c3a"/><circle cx="220" cy="241" r="3" fill="#e05c3a"/><circle cx="234" cy="238" r="3" fill="#e05c3a"/><circle cx="247" cy="236" r="3" fill="#e05c3a"/><circle cx="261" cy="233" r="3" fill="#e05c3a"/><circle cx="274" cy="227" r="3" fill="#e05c3a"/><circle cx="288" cy="226" r="3" fill="#e05c3a"/><circle cx="301" cy="224" r="3" fill="#e05c3a"/><circle cx="315" cy="222" r="3" fill="#e05c3a"/><circle cx="328" cy="220" r="3" fill="#e05c3a"/><circle cx="342" cy="218" r="3" fill="#e05c3a"/><circle cx="355" cy="217" r="3" fill="#e05c3a"/><circle cx="369" cy="215" r="3" fill="#e05c3a"/><circle cx="382" cy="211" r="3" fill="#e05c3a"/><circle cx="396" cy="209" r="3" fill="#e05c3a"/><circle cx="409" cy="207" r="3" fill="#e05c3a"/><circle cx="423" cy="205" r="3" fill="#e05c3a"/><circle cx="436" cy="203" r="3" fill="#e05c3a"/><circle cx="450" cy="200" r="3" fill="#e05c3a"/><circle cx="463" cy="137" r="3" fill="#e05c3a"/><circle cx="477" cy="119" r="3" fill="#e05c3a"/><circle cx="490" cy="111" r="3" fill="#e05c3a"/><circle cx="504" cy="110" r="3" fill="#e05c3a"/><circle cx="517" cy="107" r="3" fill="#e05c3a"/><circle cx="531" cy="104" r="3" fill="#e05c3a"/><circle cx="544" cy="101" r="3" fill="#e05c3a"/><circle cx="558" cy="98" r="3" fill="#e05c3a"/><circle cx="571" cy="96" r="3" fill="#e05c3a"/><circle cx="585" cy="95" r="3" fill="#e05c3a"/><circle cx="598" cy="94" r="3" fill="#e05c3a"/><circle cx="612" cy="93" r="3" fill="#e05c3a"/><circle cx="625" cy="92" r="3" fill="#e05c3a"/><circle cx="639" cy="90" r="3" fill="#e05c3a"/><circle cx="652" cy="88" r="3" fill="#e05c3a"/><circle cx="666" cy="86" r="3" fill="#e05c3a"/><circle cx="679" cy="86" r="3" fill="#e05c3a"/><circle cx="693" cy="85" r="3" fill="#e05c3a"/><circle cx="706" cy="83" r="3" fill="#e05c3a"/><circle cx="720" cy="83" r="3" fill="#e05c3a"/><circle cx="733" cy="82" r="3" fill="#e05c3a"/><circle cx="747" cy="80" r="3" fill="#e05c3a"/><circle cx="760" cy="80" r="3" fill="#e05c3a"/>
  <text x="72" y="352" text-anchor="middle" font-family="system-ui,sans-serif" font-size="12" fill="#666666">2026-06</text><text x="193" y="352" text-anchor="middle" font-family="system-ui,sans-serif" font-size="12" fill="#666666">2026-06</text><text x="315" y="352" text-anchor="middle" font-family="system-ui,sans-serif" font-size="12" fill="#666666">2026-06</text><text x="436" y="352" text-anchor="middle" font-family="system-ui,sans-serif" font-size="12" fill="#666666">2026-06</text><text x="558" y="352" text-anchor="middle" font-family="system-ui,sans-serif" font-size="12" fill="#666666">2026-07</text><text x="679" y="352" text-anchor="middle" font-family="system-ui,sans-serif" font-size="12" fill="#666666">2026-07</text><text x="760" y="352" text-anchor="middle" font-family="system-ui,sans-serif" font-size="12" fill="#666666">2026-07</text>
  <text x="-195" y="18" transform="rotate(-90)" text-anchor="middle" font-family="system-ui,sans-serif" font-size="12" fill="#666666">Cumulative Cloners</text>
  <text x="416" y="392" text-anchor="middle" font-family="system-ui,sans-serif" font-size="12" fill="#666666">Date</text>
  <line x1="72" y1="60" x2="72" y2="330" stroke="#1a1a1a" stroke-width="1.5"/>
  <line x1="72" y1="330" x2="760" y2="330" stroke="#1a1a1a" stroke-width="1.5"/>
  
  <rect x="84" y="72" width="183.20000000000002" height="28" rx="4" fill="#ffffff" stroke="#cccccc" stroke-width="1"/>
  <circle cx="98" cy="86" r="5" fill="#e05c3a"/>
  <text x="108" y="91" font-family="system-ui,sans-serif" font-size="12" fill="#1a1a1a">paarths-collab/hstack</text>
  <text x="760" y="390" text-anchor="end" font-family="system-ui,sans-serif" font-size="11" fill="#aaaaaa">hstack clone history</text>
</svg>
