<svg xmlns="http://www.w3.org/2000/svg" width="800" height="400" viewBox="0 0 800 400">
  <rect width="800" height="400" fill="#ffffff"/>
  <line x1="72" y1="330" x2="760" y2="330" stroke="#e8e8e8" stroke-width="1"/><text x="62" y="334" text-anchor="end" font-family="system-ui,sans-serif" font-size="12" fill="#666666">0</text><line x1="72" y1="276" x2="760" y2="276" stroke="#e8e8e8" stroke-width="1"/><text x="62" y="280" text-anchor="end" font-family="system-ui,sans-serif" font-size="12" fill="#666666">160</text><line x1="72" y1="222" x2="760" y2="222" stroke="#e8e8e8" stroke-width="1"/><text x="62" y="226" text-anchor="end" font-family="system-ui,sans-serif" font-size="12" fill="#666666">320</text><line x1="72" y1="168" x2="760" y2="168" stroke="#e8e8e8" stroke-width="1"/><text x="62" y="172" text-anchor="end" font-family="system-ui,sans-serif" font-size="12" fill="#666666">480</text><line x1="72" y1="114" x2="760" y2="114" stroke="#e8e8e8" stroke-width="1"/><text x="62" y="118" text-anchor="end" font-family="system-ui,sans-serif" font-size="12" fill="#666666">640</text><line x1="72" y1="60" x2="760" y2="60" stroke="#e8e8e8" stroke-width="1"/><text x="62" y="64" text-anchor="end" font-family="system-ui,sans-serif" font-size="12" fill="#666666">800</text>
  <polyline points="72,311 91,289 109,260 128,256 146,254 165,250 184,245 202,242 221,239 239,235 258,232 277,229 295,226 314,224 332,221 351,215 370,213 388,210 407,208 425,206 444,204 462,203 481,200 500,196 518,193 537,192 555,189 574,187 593,184 611,113 630,93 648,84 667,83 686,79 704,75 723,72 741,68 760,67" fill="none" stroke="#e05c3a" stroke-width="2.5" stroke-linejoin="round" stroke-linecap="round"/><circle cx="72" cy="311" r="3" fill="#e05c3a"/><circle cx="91" cy="289" r="3" fill="#e05c3a"/><circle cx="109" cy="260" r="3" fill="#e05c3a"/><circle cx="128" cy="256" r="3" fill="#e05c3a"/><circle cx="146" cy="254" r="3" fill="#e05c3a"/><circle cx="165" cy="250" r="3" fill="#e05c3a"/><circle cx="184" cy="245" r="3" fill="#e05c3a"/><circle cx="202" cy="242" r="3" fill="#e05c3a"/><circle cx="221" cy="239" r="3" fill="#e05c3a"/><circle cx="239" cy="235" r="3" fill="#e05c3a"/><circle cx="258" cy="232" r="3" fill="#e05c3a"/><circle cx="277" cy="229" r="3" fill="#e05c3a"/><circle cx="295" cy="226" r="3" fill="#e05c3a"/><circle cx="314" cy="224" r="3" fill="#e05c3a"/><circle cx="332" cy="221" r="3" fill="#e05c3a"/><circle cx="351" cy="215" r="3" fill="#e05c3a"/><circle cx="370" cy="213" r="3" fill="#e05c3a"/><circle cx="388" cy="210" r="3" fill="#e05c3a"/><circle cx="407" cy="208" r="3" fill="#e05c3a"/><circle cx="425" cy="206" r="3" fill="#e05c3a"/><circle cx="444" cy="204" r="3" fill="#e05c3a"/><circle cx="462" cy="203" r="3" fill="#e05c3a"/><circle cx="481" cy="200" r="3" fill="#e05c3a"/><circle cx="500" cy="196" r="3" fill="#e05c3a"/><circle cx="518" cy="193" r="3" fill="#e05c3a"/><circle cx="537" cy="192" r="3" fill="#e05c3a"/><circle cx="555" cy="189" r="3" fill="#e05c3a"/><circle cx="574" cy="187" r="3" fill="#e05c3a"/><circle cx="593" cy="184" r="3" fill="#e05c3a"/><circle cx="611" cy="113" r="3" fill="#e05c3a"/><circle cx="630" cy="93" r="3" fill="#e05c3a"/><circle cx="648" cy="84" r="3" fill="#e05c3a"/><circle cx="667" cy="83" r="3" fill="#e05c3a"/><circle cx="686" cy="79" r="3" fill="#e05c3a"/><circle cx="704" cy="75" r="3" fill="#e05c3a"/><circle cx="723" cy="72" r="3" fill="#e05c3a"/><circle cx="741" cy="68" r="3" fill="#e05c3a"/><circle cx="760" cy="67" r="3" fill="#e05c3a"/>
  <text x="72" y="352" text-anchor="middle" font-family="system-ui,sans-serif" font-size="12" fill="#666666">2026-06</text><text x="202" y="352" text-anchor="middle" font-family="system-ui,sans-serif" font-size="12" fill="#666666">2026-06</text><text x="332" y="352" text-anchor="middle" font-family="system-ui,sans-serif" font-size="12" fill="#666666">2026-06</text><text x="462" y="352" text-anchor="middle" font-family="system-ui,sans-serif" font-size="12" fill="#666666">2026-06</text><text x="593" y="352" text-anchor="middle" font-family="system-ui,sans-serif" font-size="12" fill="#666666">2026-06</text><text x="723" y="352" text-anchor="middle" font-family="system-ui,sans-serif" font-size="12" fill="#666666">2026-07</text><text x="760" y="352" text-anchor="middle" font-family="system-ui,sans-serif" font-size="12" fill="#666666">2026-07</text>
  <text x="-195" y="18" transform="rotate(-90)" text-anchor="middle" font-family="system-ui,sans-serif" font-size="12" fill="#666666">Cumulative Cloners</text>
  <text x="416" y="392" text-anchor="middle" font-family="system-ui,sans-serif" font-size="12" fill="#666666">Date</text>
  <line x1="72" y1="60" x2="72" y2="330" stroke="#1a1a1a" stroke-width="1.5"/>
  <line x1="72" y1="330" x2="760" y2="330" stroke="#1a1a1a" stroke-width="1.5"/>
  
  <rect x="84" y="72" width="183.20000000000002" height="28" rx="4" fill="#ffffff" stroke="#cccccc" stroke-width="1"/>
  <circle cx="98" cy="86" r="5" fill="#e05c3a"/>
  <text x="108" y="91" font-family="system-ui,sans-serif" font-size="12" fill="#1a1a1a">paarths-collab/hstack</text>
  <text x="760" y="390" text-anchor="end" font-family="system-ui,sans-serif" font-size="11" fill="#aaaaaa">hstack clone history</text>
</svg>
