<svg xmlns="http://www.w3.org/2000/svg" width="800" height="400" viewBox="0 0 800 400">
  <rect width="800" height="400" fill="#ffffff"/>
  <line x1="72" y1="330" x2="760" y2="330" stroke="#e8e8e8" stroke-width="1"/><text x="62" y="334" text-anchor="end" font-family="system-ui,sans-serif" font-size="12" fill="#666666">0</text><line x1="72" y1="276" x2="760" y2="276" stroke="#e8e8e8" stroke-width="1"/><text x="62" y="280" text-anchor="end" font-family="system-ui,sans-serif" font-size="12" fill="#666666">80</text><line x1="72" y1="222" x2="760" y2="222" stroke="#e8e8e8" stroke-width="1"/><text x="62" y="226" text-anchor="end" font-family="system-ui,sans-serif" font-size="12" fill="#666666">160</text><line x1="72" y1="168" x2="760" y2="168" stroke="#e8e8e8" stroke-width="1"/><text x="62" y="172" text-anchor="end" font-family="system-ui,sans-serif" font-size="12" fill="#666666">240</text><line x1="72" y1="114" x2="760" y2="114" stroke="#e8e8e8" stroke-width="1"/><text x="62" y="118" text-anchor="end" font-family="system-ui,sans-serif" font-size="12" fill="#666666">320</text><line x1="72" y1="60" x2="760" y2="60" stroke="#e8e8e8" stroke-width="1"/><text x="62" y="64" text-anchor="end" font-family="system-ui,sans-serif" font-size="12" fill="#666666">400</text>
  <polyline points="72,292 102,248 132,190 162,182 192,177 222,170 251,159 281,153 311,147 341,140 371,134 401,129 431,123 461,117 491,113 521,99 551,95 581,90 610,86 640,82 670,78 700,76 730,70 760,62" fill="none" stroke="#e05c3a" stroke-width="2.5" stroke-linejoin="round" stroke-linecap="round"/><circle cx="72" cy="292" r="3" fill="#e05c3a"/><circle cx="102" cy="248" r="3" fill="#e05c3a"/><circle cx="132" cy="190" r="3" fill="#e05c3a"/><circle cx="162" cy="182" r="3" fill="#e05c3a"/><circle cx="192" cy="177" r="3" fill="#e05c3a"/><circle cx="222" cy="170" r="3" fill="#e05c3a"/><circle cx="251" cy="159" r="3" fill="#e05c3a"/><circle cx="281" cy="153" r="3" fill="#e05c3a"/><circle cx="311" cy="147" r="3" fill="#e05c3a"/><circle cx="341" cy="140" r="3" fill="#e05c3a"/><circle cx="371" cy="134" r="3" fill="#e05c3a"/><circle cx="401" cy="129" r="3" fill="#e05c3a"/><circle cx="431" cy="123" r="3" fill="#e05c3a"/><circle cx="461" cy="117" r="3" fill="#e05c3a"/><circle cx="491" cy="113" r="3" fill="#e05c3a"/><circle cx="521" cy="99" r="3" fill="#e05c3a"/><circle cx="551" cy="95" r="3" fill="#e05c3a"/><circle cx="581" cy="90" r="3" fill="#e05c3a"/><circle cx="610" cy="86" r="3" fill="#e05c3a"/><circle cx="640" cy="82" r="3" fill="#e05c3a"/><circle cx="670" cy="78" r="3" fill="#e05c3a"/><circle cx="700" cy="76" r="3" fill="#e05c3a"/><circle cx="730" cy="70" r="3" fill="#e05c3a"/><circle cx="760" cy="62" r="3" fill="#e05c3a"/>
  <text x="72" y="352" text-anchor="middle" font-family="system-ui,sans-serif" font-size="12" fill="#666666">2026-06</text><text x="192" y="352" text-anchor="middle" font-family="system-ui,sans-serif" font-size="12" fill="#666666">2026-06</text><text x="311" y="352" text-anchor="middle" font-family="system-ui,sans-serif" font-size="12" fill="#666666">2026-06</text><text x="431" y="352" text-anchor="middle" font-family="system-ui,sans-serif" font-size="12" fill="#666666">2026-06</text><text x="551" y="352" text-anchor="middle" font-family="system-ui,sans-serif" font-size="12" fill="#666666">2026-06</text><text x="670" y="352" text-anchor="middle" font-family="system-ui,sans-serif" font-size="12" fill="#666666">2026-06</text><text x="760" y="352" text-anchor="middle" font-family="system-ui,sans-serif" font-size="12" fill="#666666">2026-06</text>
  <text x="-195" y="18" transform="rotate(-90)" text-anchor="middle" font-family="system-ui,sans-serif" font-size="12" fill="#666666">Cumulative Cloners</text>
  <text x="416" y="392" text-anchor="middle" font-family="system-ui,sans-serif" font-size="12" fill="#666666">Date</text>
  <line x1="72" y1="60" x2="72" y2="330" stroke="#1a1a1a" stroke-width="1.5"/>
  <line x1="72" y1="330" x2="760" y2="330" stroke="#1a1a1a" stroke-width="1.5"/>
  
  <rect x="84" y="72" width="183.20000000000002" height="28" rx="4" fill="#ffffff" stroke="#cccccc" stroke-width="1"/>
  <circle cx="98" cy="86" r="5" fill="#e05c3a"/>
  <text x="108" y="91" font-family="system-ui,sans-serif" font-size="12" fill="#1a1a1a">paarths-collab/hstack</text>
  <text x="760" y="390" text-anchor="end" font-family="system-ui,sans-serif" font-size="11" fill="#aaaaaa">hstack clone history</text>
</svg>
