<svg xmlns="http://www.w3.org/2000/svg" width="800" height="400" viewBox="0 0 800 400">
  <rect width="800" height="400" fill="#ffffff"/>
  <line x1="72" y1="330" x2="760" y2="330" stroke="#e8e8e8" stroke-width="1"/><text x="62" y="334" text-anchor="end" font-family="system-ui,sans-serif" font-size="12" fill="#666666">0</text><line x1="72" y1="276" x2="760" y2="276" stroke="#e8e8e8" stroke-width="1"/><text x="62" y="280" text-anchor="end" font-family="system-ui,sans-serif" font-size="12" fill="#666666">160</text><line x1="72" y1="222" x2="760" y2="222" stroke="#e8e8e8" stroke-width="1"/><text x="62" y="226" text-anchor="end" font-family="system-ui,sans-serif" font-size="12" fill="#666666">320</text><line x1="72" y1="168" x2="760" y2="168" stroke="#e8e8e8" stroke-width="1"/><text x="62" y="172" text-anchor="end" font-family="system-ui,sans-serif" font-size="12" fill="#666666">480</text><line x1="72" y1="114" x2="760" y2="114" stroke="#e8e8e8" stroke-width="1"/><text x="62" y="118" text-anchor="end" font-family="system-ui,sans-serif" font-size="12" fill="#666666">640</text><line x1="72" y1="60" x2="760" y2="60" stroke="#e8e8e8" stroke-width="1"/><text x="62" y="64" text-anchor="end" font-family="system-ui,sans-serif" font-size="12" fill="#666666">800</text>
  <polyline points="72,311 91,289 110,260 129,256 148,254 168,250 187,245 206,242 225,239 244,235 263,232 282,229 301,226 320,224 340,221 359,215 378,213 397,210 416,208 435,206 454,204 473,203 492,200 512,196 531,193 550,192 569,189 588,187 607,184 626,113 645,93 664,84 684,83 703,79 722,75 741,72 760,68" fill="none" stroke="#e05c3a" stroke-width="2.5" stroke-linejoin="round" stroke-linecap="round"/><circle cx="72" cy="311" r="3" fill="#e05c3a"/><circle cx="91" cy="289" r="3" fill="#e05c3a"/><circle cx="110" cy="260" r="3" fill="#e05c3a"/><circle cx="129" cy="256" r="3" fill="#e05c3a"/><circle cx="148" cy="254" r="3" fill="#e05c3a"/><circle cx="168" cy="250" r="3" fill="#e05c3a"/><circle cx="187" cy="245" r="3" fill="#e05c3a"/><circle cx="206" cy="242" r="3" fill="#e05c3a"/><circle cx="225" cy="239" r="3" fill="#e05c3a"/><circle cx="244" cy="235" r="3" fill="#e05c3a"/><circle cx="263" cy="232" r="3" fill="#e05c3a"/><circle cx="282" cy="229" r="3" fill="#e05c3a"/><circle cx="301" cy="226" r="3" fill="#e05c3a"/><circle cx="320" cy="224" r="3" fill="#e05c3a"/><circle cx="340" cy="221" r="3" fill="#e05c3a"/><circle cx="359" cy="215" r="3" fill="#e05c3a"/><circle cx="378" cy="213" r="3" fill="#e05c3a"/><circle cx="397" cy="210" r="3" fill="#e05c3a"/><circle cx="416" cy="208" r="3" fill="#e05c3a"/><circle cx="435" cy="206" r="3" fill="#e05c3a"/><circle cx="454" cy="204" r="3" fill="#e05c3a"/><circle cx="473" cy="203" r="3" fill="#e05c3a"/><circle cx="492" cy="200" r="3" fill="#e05c3a"/><circle cx="512" cy="196" r="3" fill="#e05c3a"/><circle cx="531" cy="193" r="3" fill="#e05c3a"/><circle cx="550" cy="192" r="3" fill="#e05c3a"/><circle cx="569" cy="189" r="3" fill="#e05c3a"/><circle cx="588" cy="187" r="3" fill="#e05c3a"/><circle cx="607" cy="184" r="3" fill="#e05c3a"/><circle cx="626" cy="113" r="3" fill="#e05c3a"/><circle cx="645" cy="93" r="3" fill="#e05c3a"/><circle cx="664" cy="84" r="3" fill="#e05c3a"/><circle cx="684" cy="83" r="3" fill="#e05c3a"/><circle cx="703" cy="79" r="3" fill="#e05c3a"/><circle cx="722" cy="75" r="3" fill="#e05c3a"/><circle cx="741" cy="72" r="3" fill="#e05c3a"/><circle cx="760" cy="68" r="3" fill="#e05c3a"/>
  <text x="72" y="352" text-anchor="middle" font-family="system-ui,sans-serif" font-size="12" fill="#666666">2026-06</text><text x="206" y="352" text-anchor="middle" font-family="system-ui,sans-serif" font-size="12" fill="#666666">2026-06</text><text x="340" y="352" text-anchor="middle" font-family="system-ui,sans-serif" font-size="12" fill="#666666">2026-06</text><text x="473" y="352" text-anchor="middle" font-family="system-ui,sans-serif" font-size="12" fill="#666666">2026-06</text><text x="607" y="352" text-anchor="middle" font-family="system-ui,sans-serif" font-size="12" fill="#666666">2026-06</text><text x="741" y="352" text-anchor="middle" font-family="system-ui,sans-serif" font-size="12" fill="#666666">2026-07</text><text x="760" y="352" text-anchor="middle" font-family="system-ui,sans-serif" font-size="12" fill="#666666">2026-07</text>
  <text x="-195" y="18" transform="rotate(-90)" text-anchor="middle" font-family="system-ui,sans-serif" font-size="12" fill="#666666">Cumulative Cloners</text>
  <text x="416" y="392" text-anchor="middle" font-family="system-ui,sans-serif" font-size="12" fill="#666666">Date</text>
  <line x1="72" y1="60" x2="72" y2="330" stroke="#1a1a1a" stroke-width="1.5"/>
  <line x1="72" y1="330" x2="760" y2="330" stroke="#1a1a1a" stroke-width="1.5"/>
  
  <rect x="84" y="72" width="183.20000000000002" height="28" rx="4" fill="#ffffff" stroke="#cccccc" stroke-width="1"/>
  <circle cx="98" cy="86" r="5" fill="#e05c3a"/>
  <text x="108" y="91" font-family="system-ui,sans-serif" font-size="12" fill="#1a1a1a">paarths-collab/hstack</text>
  <text x="760" y="390" text-anchor="end" font-family="system-ui,sans-serif" font-size="11" fill="#aaaaaa">hstack clone history</text>
</svg>
