<svg xmlns="http://www.w3.org/2000/svg" width="800" height="400" viewBox="0 0 800 400">
  <rect width="800" height="400" fill="#ffffff"/>
  <line x1="72" y1="330" x2="760" y2="330" stroke="#e8e8e8" stroke-width="1"/><text x="62" y="334" text-anchor="end" font-family="system-ui,sans-serif" font-size="12" fill="#666666">0</text><line x1="72" y1="276" x2="760" y2="276" stroke="#e8e8e8" stroke-width="1"/><text x="62" y="280" text-anchor="end" font-family="system-ui,sans-serif" font-size="12" fill="#666666">160</text><line x1="72" y1="222" x2="760" y2="222" stroke="#e8e8e8" stroke-width="1"/><text x="62" y="226" text-anchor="end" font-family="system-ui,sans-serif" font-size="12" fill="#666666">320</text><line x1="72" y1="168" x2="760" y2="168" stroke="#e8e8e8" stroke-width="1"/><text x="62" y="172" text-anchor="end" font-family="system-ui,sans-serif" font-size="12" fill="#666666">480</text><line x1="72" y1="114" x2="760" y2="114" stroke="#e8e8e8" stroke-width="1"/><text x="62" y="118" text-anchor="end" font-family="system-ui,sans-serif" font-size="12" fill="#666666">640</text><line x1="72" y1="60" x2="760" y2="60" stroke="#e8e8e8" stroke-width="1"/><text x="62" y="64" text-anchor="end" font-family="system-ui,sans-serif" font-size="12" fill="#666666">800</text>
  <polyline points="72,311 90,289 108,260 126,256 144,254 163,250 181,245 199,242 217,239 235,235 253,232 271,229 289,226 307,224 325,221 344,215 362,213 380,210 398,208 416,206 434,204 452,203 470,200 488,196 507,193 525,192 543,189 561,187 579,184 597,113 615,93 633,84 651,83 669,79 688,75 706,72 724,68 742,67 760,66" fill="none" stroke="#e05c3a" stroke-width="2.5" stroke-linejoin="round" stroke-linecap="round"/><circle cx="72" cy="311" r="3" fill="#e05c3a"/><circle cx="90" cy="289" r="3" fill="#e05c3a"/><circle cx="108" cy="260" r="3" fill="#e05c3a"/><circle cx="126" cy="256" r="3" fill="#e05c3a"/><circle cx="144" cy="254" r="3" fill="#e05c3a"/><circle cx="163" cy="250" r="3" fill="#e05c3a"/><circle cx="181" cy="245" r="3" fill="#e05c3a"/><circle cx="199" cy="242" r="3" fill="#e05c3a"/><circle cx="217" cy="239" r="3" fill="#e05c3a"/><circle cx="235" cy="235" r="3" fill="#e05c3a"/><circle cx="253" cy="232" r="3" fill="#e05c3a"/><circle cx="271" cy="229" r="3" fill="#e05c3a"/><circle cx="289" cy="226" r="3" fill="#e05c3a"/><circle cx="307" cy="224" r="3" fill="#e05c3a"/><circle cx="325" cy="221" r="3" fill="#e05c3a"/><circle cx="344" cy="215" r="3" fill="#e05c3a"/><circle cx="362" cy="213" r="3" fill="#e05c3a"/><circle cx="380" cy="210" r="3" fill="#e05c3a"/><circle cx="398" cy="208" r="3" fill="#e05c3a"/><circle cx="416" cy="206" r="3" fill="#e05c3a"/><circle cx="434" cy="204" r="3" fill="#e05c3a"/><circle cx="452" cy="203" r="3" fill="#e05c3a"/><circle cx="470" cy="200" r="3" fill="#e05c3a"/><circle cx="488" cy="196" r="3" fill="#e05c3a"/><circle cx="507" cy="193" r="3" fill="#e05c3a"/><circle cx="525" cy="192" r="3" fill="#e05c3a"/><circle cx="543" cy="189" r="3" fill="#e05c3a"/><circle cx="561" cy="187" r="3" fill="#e05c3a"/><circle cx="579" cy="184" r="3" fill="#e05c3a"/><circle cx="597" cy="113" r="3" fill="#e05c3a"/><circle cx="615" cy="93" r="3" fill="#e05c3a"/><circle cx="633" cy="84" r="3" fill="#e05c3a"/><circle cx="651" cy="83" r="3" fill="#e05c3a"/><circle cx="669" cy="79" r="3" fill="#e05c3a"/><circle cx="688" cy="75" r="3" fill="#e05c3a"/><circle cx="706" cy="72" r="3" fill="#e05c3a"/><circle cx="724" cy="68" r="3" fill="#e05c3a"/><circle cx="742" cy="67" r="3" fill="#e05c3a"/><circle cx="760" cy="66" r="3" fill="#e05c3a"/>
  <text x="72" y="352" text-anchor="middle" font-family="system-ui,sans-serif" font-size="12" fill="#666666">2026-06</text><text x="199" y="352" text-anchor="middle" font-family="system-ui,sans-serif" font-size="12" fill="#666666">2026-06</text><text x="325" y="352" text-anchor="middle" font-family="system-ui,sans-serif" font-size="12" fill="#666666">2026-06</text><text x="452" y="352" text-anchor="middle" font-family="system-ui,sans-serif" font-size="12" fill="#666666">2026-06</text><text x="579" y="352" text-anchor="middle" font-family="system-ui,sans-serif" font-size="12" fill="#666666">2026-06</text><text x="706" y="352" text-anchor="middle" font-family="system-ui,sans-serif" font-size="12" fill="#666666">2026-07</text><text x="760" y="352" text-anchor="middle" font-family="system-ui,sans-serif" font-size="12" fill="#666666">2026-07</text>
  <text x="-195" y="18" transform="rotate(-90)" text-anchor="middle" font-family="system-ui,sans-serif" font-size="12" fill="#666666">Cumulative Cloners</text>
  <text x="416" y="392" text-anchor="middle" font-family="system-ui,sans-serif" font-size="12" fill="#666666">Date</text>
  <line x1="72" y1="60" x2="72" y2="330" stroke="#1a1a1a" stroke-width="1.5"/>
  <line x1="72" y1="330" x2="760" y2="330" stroke="#1a1a1a" stroke-width="1.5"/>
  
  <rect x="84" y="72" width="183.20000000000002" height="28" rx="4" fill="#ffffff" stroke="#cccccc" stroke-width="1"/>
  <circle cx="98" cy="86" r="5" fill="#e05c3a"/>
  <text x="108" y="91" font-family="system-ui,sans-serif" font-size="12" fill="#1a1a1a">paarths-collab/hstack</text>
  <text x="760" y="390" text-anchor="end" font-family="system-ui,sans-serif" font-size="11" fill="#aaaaaa">hstack clone history</text>
</svg>
