<svg xmlns="http://www.w3.org/2000/svg" width="800" height="400" viewBox="0 0 800 400">
  <rect width="800" height="400" fill="#ffffff"/>
  <line x1="72" y1="330" x2="760" y2="330" stroke="#e8e8e8" stroke-width="1"/><text x="62" y="334" text-anchor="end" font-family="system-ui,sans-serif" font-size="12" fill="#666666">0</text><line x1="72" y1="276" x2="760" y2="276" stroke="#e8e8e8" stroke-width="1"/><text x="62" y="280" text-anchor="end" font-family="system-ui,sans-serif" font-size="12" fill="#666666">80</text><line x1="72" y1="222" x2="760" y2="222" stroke="#e8e8e8" stroke-width="1"/><text x="62" y="226" text-anchor="end" font-family="system-ui,sans-serif" font-size="12" fill="#666666">160</text><line x1="72" y1="168" x2="760" y2="168" stroke="#e8e8e8" stroke-width="1"/><text x="62" y="172" text-anchor="end" font-family="system-ui,sans-serif" font-size="12" fill="#666666">240</text><line x1="72" y1="114" x2="760" y2="114" stroke="#e8e8e8" stroke-width="1"/><text x="62" y="118" text-anchor="end" font-family="system-ui,sans-serif" font-size="12" fill="#666666">320</text><line x1="72" y1="60" x2="760" y2="60" stroke="#e8e8e8" stroke-width="1"/><text x="62" y="64" text-anchor="end" font-family="system-ui,sans-serif" font-size="12" fill="#666666">400</text>
  <polyline points="72,292 108,248 144,190 181,182 217,177 253,170 289,159 325,153 362,147 398,140 434,134 470,129 507,123 543,117 579,113 615,99 651,95 688,90 724,86 760,82" fill="none" stroke="#e05c3a" stroke-width="2.5" stroke-linejoin="round" stroke-linecap="round"/><circle cx="72" cy="292" r="3" fill="#e05c3a"/><circle cx="108" cy="248" r="3" fill="#e05c3a"/><circle cx="144" cy="190" r="3" fill="#e05c3a"/><circle cx="181" cy="182" r="3" fill="#e05c3a"/><circle cx="217" cy="177" r="3" fill="#e05c3a"/><circle cx="253" cy="170" r="3" fill="#e05c3a"/><circle cx="289" cy="159" r="3" fill="#e05c3a"/><circle cx="325" cy="153" r="3" fill="#e05c3a"/><circle cx="362" cy="147" r="3" fill="#e05c3a"/><circle cx="398" cy="140" r="3" fill="#e05c3a"/><circle cx="434" cy="134" r="3" fill="#e05c3a"/><circle cx="470" cy="129" r="3" fill="#e05c3a"/><circle cx="507" cy="123" r="3" fill="#e05c3a"/><circle cx="543" cy="117" r="3" fill="#e05c3a"/><circle cx="579" cy="113" r="3" fill="#e05c3a"/><circle cx="615" cy="99" r="3" fill="#e05c3a"/><circle cx="651" cy="95" r="3" fill="#e05c3a"/><circle cx="688" cy="90" r="3" fill="#e05c3a"/><circle cx="724" cy="86" r="3" fill="#e05c3a"/><circle cx="760" cy="82" r="3" fill="#e05c3a"/>
  <text x="72" y="352" text-anchor="middle" font-family="system-ui,sans-serif" font-size="12" fill="#666666">2026-06</text><text x="217" y="352" text-anchor="middle" font-family="system-ui,sans-serif" font-size="12" fill="#666666">2026-06</text><text x="362" y="352" text-anchor="middle" font-family="system-ui,sans-serif" font-size="12" fill="#666666">2026-06</text><text x="507" y="352" text-anchor="middle" font-family="system-ui,sans-serif" font-size="12" fill="#666666">2026-06</text><text x="651" y="352" text-anchor="middle" font-family="system-ui,sans-serif" font-size="12" fill="#666666">2026-06</text><text x="760" y="352" text-anchor="middle" font-family="system-ui,sans-serif" font-size="12" fill="#666666">2026-06</text>
  <text x="-195" y="18" transform="rotate(-90)" text-anchor="middle" font-family="system-ui,sans-serif" font-size="12" fill="#666666">Cumulative Cloners</text>
  <text x="416" y="392" text-anchor="middle" font-family="system-ui,sans-serif" font-size="12" fill="#666666">Date</text>
  <line x1="72" y1="60" x2="72" y2="330" stroke="#1a1a1a" stroke-width="1.5"/>
  <line x1="72" y1="330" x2="760" y2="330" stroke="#1a1a1a" stroke-width="1.5"/>
  
  <rect x="84" y="72" width="183.20000000000002" height="28" rx="4" fill="#ffffff" stroke="#cccccc" stroke-width="1"/>
  <circle cx="98" cy="86" r="5" fill="#e05c3a"/>
  <text x="108" y="91" font-family="system-ui,sans-serif" font-size="12" fill="#1a1a1a">paarths-collab/hstack</text>
  <text x="760" y="390" text-anchor="end" font-family="system-ui,sans-serif" font-size="11" fill="#aaaaaa">hstack clone history</text>
</svg>
