<svg xmlns="http://www.w3.org/2000/svg" width="800" height="400" viewBox="0 0 800 400">
  <rect width="800" height="400" fill="#ffffff"/>
  <line x1="72" y1="330" x2="760" y2="330" stroke="#e8e8e8" stroke-width="1"/><text x="62" y="334" text-anchor="end" font-family="system-ui,sans-serif" font-size="12" fill="#666666">0</text><line x1="72" y1="276" x2="760" y2="276" stroke="#e8e8e8" stroke-width="1"/><text x="62" y="280" text-anchor="end" font-family="system-ui,sans-serif" font-size="12" fill="#666666">160</text><line x1="72" y1="222" x2="760" y2="222" stroke="#e8e8e8" stroke-width="1"/><text x="62" y="226" text-anchor="end" font-family="system-ui,sans-serif" font-size="12" fill="#666666">320</text><line x1="72" y1="168" x2="760" y2="168" stroke="#e8e8e8" stroke-width="1"/><text x="62" y="172" text-anchor="end" font-family="system-ui,sans-serif" font-size="12" fill="#666666">480</text><line x1="72" y1="114" x2="760" y2="114" stroke="#e8e8e8" stroke-width="1"/><text x="62" y="118" text-anchor="end" font-family="system-ui,sans-serif" font-size="12" fill="#666666">640</text><line x1="72" y1="60" x2="760" y2="60" stroke="#e8e8e8" stroke-width="1"/><text x="62" y="64" text-anchor="end" font-family="system-ui,sans-serif" font-size="12" fill="#666666">800</text>
  <polyline points="72,311 92,289 112,260 133,256 153,254 173,250 193,245 214,242 234,239 254,235 274,232 295,229 315,226 335,224 355,221 376,215 396,213 416,210 436,208 456,206 477,204 497,203 517,200 537,196 558,193 578,192 598,189 618,187 639,184 659,113 679,93 699,84 720,83 740,79 760,75" fill="none" stroke="#e05c3a" stroke-width="2.5" stroke-linejoin="round" stroke-linecap="round"/><circle cx="72" cy="311" r="3" fill="#e05c3a"/><circle cx="92" cy="289" r="3" fill="#e05c3a"/><circle cx="112" cy="260" r="3" fill="#e05c3a"/><circle cx="133" cy="256" r="3" fill="#e05c3a"/><circle cx="153" cy="254" r="3" fill="#e05c3a"/><circle cx="173" cy="250" r="3" fill="#e05c3a"/><circle cx="193" cy="245" r="3" fill="#e05c3a"/><circle cx="214" cy="242" r="3" fill="#e05c3a"/><circle cx="234" cy="239" r="3" fill="#e05c3a"/><circle cx="254" cy="235" r="3" fill="#e05c3a"/><circle cx="274" cy="232" r="3" fill="#e05c3a"/><circle cx="295" cy="229" r="3" fill="#e05c3a"/><circle cx="315" cy="226" r="3" fill="#e05c3a"/><circle cx="335" cy="224" r="3" fill="#e05c3a"/><circle cx="355" cy="221" r="3" fill="#e05c3a"/><circle cx="376" cy="215" r="3" fill="#e05c3a"/><circle cx="396" cy="213" r="3" fill="#e05c3a"/><circle cx="416" cy="210" r="3" fill="#e05c3a"/><circle cx="436" cy="208" r="3" fill="#e05c3a"/><circle cx="456" cy="206" r="3" fill="#e05c3a"/><circle cx="477" cy="204" r="3" fill="#e05c3a"/><circle cx="497" cy="203" r="3" fill="#e05c3a"/><circle cx="517" cy="200" r="3" fill="#e05c3a"/><circle cx="537" cy="196" r="3" fill="#e05c3a"/><circle cx="558" cy="193" r="3" fill="#e05c3a"/><circle cx="578" cy="192" r="3" fill="#e05c3a"/><circle cx="598" cy="189" r="3" fill="#e05c3a"/><circle cx="618" cy="187" r="3" fill="#e05c3a"/><circle cx="639" cy="184" r="3" fill="#e05c3a"/><circle cx="659" cy="113" r="3" fill="#e05c3a"/><circle cx="679" cy="93" r="3" fill="#e05c3a"/><circle cx="699" cy="84" r="3" fill="#e05c3a"/><circle cx="720" cy="83" r="3" fill="#e05c3a"/><circle cx="740" cy="79" r="3" fill="#e05c3a"/><circle cx="760" cy="75" r="3" fill="#e05c3a"/>
  <text x="72" y="352" text-anchor="middle" font-family="system-ui,sans-serif" font-size="12" fill="#666666">2026-06</text><text x="193" y="352" text-anchor="middle" font-family="system-ui,sans-serif" font-size="12" fill="#666666">2026-06</text><text x="315" y="352" text-anchor="middle" font-family="system-ui,sans-serif" font-size="12" fill="#666666">2026-06</text><text x="436" y="352" text-anchor="middle" font-family="system-ui,sans-serif" font-size="12" fill="#666666">2026-06</text><text x="558" y="352" text-anchor="middle" font-family="system-ui,sans-serif" font-size="12" fill="#666666">2026-06</text><text x="679" y="352" text-anchor="middle" font-family="system-ui,sans-serif" font-size="12" fill="#666666">2026-07</text><text x="760" y="352" text-anchor="middle" font-family="system-ui,sans-serif" font-size="12" fill="#666666">2026-07</text>
  <text x="-195" y="18" transform="rotate(-90)" text-anchor="middle" font-family="system-ui,sans-serif" font-size="12" fill="#666666">Cumulative Cloners</text>
  <text x="416" y="392" text-anchor="middle" font-family="system-ui,sans-serif" font-size="12" fill="#666666">Date</text>
  <line x1="72" y1="60" x2="72" y2="330" stroke="#1a1a1a" stroke-width="1.5"/>
  <line x1="72" y1="330" x2="760" y2="330" stroke="#1a1a1a" stroke-width="1.5"/>
  
  <rect x="84" y="72" width="183.20000000000002" height="28" rx="4" fill="#ffffff" stroke="#cccccc" stroke-width="1"/>
  <circle cx="98" cy="86" r="5" fill="#e05c3a"/>
  <text x="108" y="91" font-family="system-ui,sans-serif" font-size="12" fill="#1a1a1a">paarths-collab/hstack</text>
  <text x="760" y="390" text-anchor="end" font-family="system-ui,sans-serif" font-size="11" fill="#aaaaaa">hstack clone history</text>
</svg>
