<svg xmlns="http://www.w3.org/2000/svg" width="800" height="400" viewBox="0 0 800 400">
  <rect width="800" height="400" fill="#ffffff"/>
  <line x1="72" y1="330" x2="760" y2="330" stroke="#e8e8e8" stroke-width="1"/><text x="62" y="334" text-anchor="end" font-family="system-ui,sans-serif" font-size="12" fill="#666666">0</text><line x1="72" y1="276" x2="760" y2="276" stroke="#e8e8e8" stroke-width="1"/><text x="62" y="280" text-anchor="end" font-family="system-ui,sans-serif" font-size="12" fill="#666666">100</text><line x1="72" y1="222" x2="760" y2="222" stroke="#e8e8e8" stroke-width="1"/><text x="62" y="226" text-anchor="end" font-family="system-ui,sans-serif" font-size="12" fill="#666666">200</text><line x1="72" y1="168" x2="760" y2="168" stroke="#e8e8e8" stroke-width="1"/><text x="62" y="172" text-anchor="end" font-family="system-ui,sans-serif" font-size="12" fill="#666666">300</text><line x1="72" y1="114" x2="760" y2="114" stroke="#e8e8e8" stroke-width="1"/><text x="62" y="118" text-anchor="end" font-family="system-ui,sans-serif" font-size="12" fill="#666666">400</text><line x1="72" y1="60" x2="760" y2="60" stroke="#e8e8e8" stroke-width="1"/><text x="62" y="64" text-anchor="end" font-family="system-ui,sans-serif" font-size="12" fill="#666666">500</text>
  <polyline points="72,299 101,265 129,218 158,211 187,208 215,202 244,193 273,189 301,184 330,178 359,173 387,169 416,164 445,160 473,156 502,145 531,142 559,138 588,135 617,132 645,128 674,127 703,122 731,116 760,111" fill="none" stroke="#e05c3a" stroke-width="2.5" stroke-linejoin="round" stroke-linecap="round"/><circle cx="72" cy="299" r="3" fill="#e05c3a"/><circle cx="101" cy="265" r="3" fill="#e05c3a"/><circle cx="129" cy="218" r="3" fill="#e05c3a"/><circle cx="158" cy="211" r="3" fill="#e05c3a"/><circle cx="187" cy="208" r="3" fill="#e05c3a"/><circle cx="215" cy="202" r="3" fill="#e05c3a"/><circle cx="244" cy="193" r="3" fill="#e05c3a"/><circle cx="273" cy="189" r="3" fill="#e05c3a"/><circle cx="301" cy="184" r="3" fill="#e05c3a"/><circle cx="330" cy="178" r="3" fill="#e05c3a"/><circle cx="359" cy="173" r="3" fill="#e05c3a"/><circle cx="387" cy="169" r="3" fill="#e05c3a"/><circle cx="416" cy="164" r="3" fill="#e05c3a"/><circle cx="445" cy="160" r="3" fill="#e05c3a"/><circle cx="473" cy="156" r="3" fill="#e05c3a"/><circle cx="502" cy="145" r="3" fill="#e05c3a"/><circle cx="531" cy="142" r="3" fill="#e05c3a"/><circle cx="559" cy="138" r="3" fill="#e05c3a"/><circle cx="588" cy="135" r="3" fill="#e05c3a"/><circle cx="617" cy="132" r="3" fill="#e05c3a"/><circle cx="645" cy="128" r="3" fill="#e05c3a"/><circle cx="674" cy="127" r="3" fill="#e05c3a"/><circle cx="703" cy="122" r="3" fill="#e05c3a"/><circle cx="731" cy="116" r="3" fill="#e05c3a"/><circle cx="760" cy="111" r="3" fill="#e05c3a"/>
  <text x="72" y="352" text-anchor="middle" font-family="system-ui,sans-serif" font-size="12" fill="#666666">2026-06</text><text x="215" y="352" text-anchor="middle" font-family="system-ui,sans-serif" font-size="12" fill="#666666">2026-06</text><text x="359" y="352" text-anchor="middle" font-family="system-ui,sans-serif" font-size="12" fill="#666666">2026-06</text><text x="502" y="352" text-anchor="middle" font-family="system-ui,sans-serif" font-size="12" fill="#666666">2026-06</text><text x="645" y="352" text-anchor="middle" font-family="system-ui,sans-serif" font-size="12" fill="#666666">2026-06</text><text x="760" y="352" text-anchor="middle" font-family="system-ui,sans-serif" font-size="12" fill="#666666">2026-06</text>
  <text x="-195" y="18" transform="rotate(-90)" text-anchor="middle" font-family="system-ui,sans-serif" font-size="12" fill="#666666">Cumulative Cloners</text>
  <text x="416" y="392" text-anchor="middle" font-family="system-ui,sans-serif" font-size="12" fill="#666666">Date</text>
  <line x1="72" y1="60" x2="72" y2="330" stroke="#1a1a1a" stroke-width="1.5"/>
  <line x1="72" y1="330" x2="760" y2="330" stroke="#1a1a1a" stroke-width="1.5"/>
  
  <rect x="84" y="72" width="183.20000000000002" height="28" rx="4" fill="#ffffff" stroke="#cccccc" stroke-width="1"/>
  <circle cx="98" cy="86" r="5" fill="#e05c3a"/>
  <text x="108" y="91" font-family="system-ui,sans-serif" font-size="12" fill="#1a1a1a">paarths-collab/hstack</text>
  <text x="760" y="390" text-anchor="end" font-family="system-ui,sans-serif" font-size="11" fill="#aaaaaa">hstack clone history</text>
</svg>
