<svg xmlns="http://www.w3.org/2000/svg" width="800" height="400" viewBox="0 0 800 400">
  <rect width="800" height="400" fill="#ffffff"/>
  <line x1="72" y1="330" x2="760" y2="330" stroke="#e8e8e8" stroke-width="1"/><text x="62" y="334" text-anchor="end" font-family="system-ui,sans-serif" font-size="12" fill="#666666">0</text><line x1="72" y1="276" x2="760" y2="276" stroke="#e8e8e8" stroke-width="1"/><text x="62" y="280" text-anchor="end" font-family="system-ui,sans-serif" font-size="12" fill="#666666">180</text><line x1="72" y1="222" x2="760" y2="222" stroke="#e8e8e8" stroke-width="1"/><text x="62" y="226" text-anchor="end" font-family="system-ui,sans-serif" font-size="12" fill="#666666">360</text><line x1="72" y1="168" x2="760" y2="168" stroke="#e8e8e8" stroke-width="1"/><text x="62" y="172" text-anchor="end" font-family="system-ui,sans-serif" font-size="12" fill="#666666">540</text><line x1="72" y1="114" x2="760" y2="114" stroke="#e8e8e8" stroke-width="1"/><text x="62" y="118" text-anchor="end" font-family="system-ui,sans-serif" font-size="12" fill="#666666">720</text><line x1="72" y1="60" x2="760" y2="60" stroke="#e8e8e8" stroke-width="1"/><text x="62" y="64" text-anchor="end" font-family="system-ui,sans-serif" font-size="12" fill="#666666">900</text>
  <polyline points="72,313 86,294 101,268 115,264 129,262 144,259 158,254 172,251 187,249 201,245 215,243 230,241 244,238 258,236 273,233 287,227 301,226 316,224 330,222 344,220 359,218 373,217 387,215 402,211 416,209 430,207 445,205 459,203 473,200 488,137 502,119 516,111 531,110 545,107 559,104 574,101 588,98 602,96 617,95 631,94 645,93 660,92 674,90 688,88 703,86 717,86 731,85 746,83 760,83" fill="none" stroke="#e05c3a" stroke-width="2.5" stroke-linejoin="round" stroke-linecap="round"/><circle cx="72" cy="313" r="3" fill="#e05c3a"/><circle cx="86" cy="294" r="3" fill="#e05c3a"/><circle cx="101" cy="268" r="3" fill="#e05c3a"/><circle cx="115" cy="264" r="3" fill="#e05c3a"/><circle cx="129" cy="262" r="3" fill="#e05c3a"/><circle cx="144" cy="259" r="3" fill="#e05c3a"/><circle cx="158" cy="254" r="3" fill="#e05c3a"/><circle cx="172" cy="251" r="3" fill="#e05c3a"/><circle cx="187" cy="249" r="3" fill="#e05c3a"/><circle cx="201" cy="245" r="3" fill="#e05c3a"/><circle cx="215" cy="243" r="3" fill="#e05c3a"/><circle cx="230" cy="241" r="3" fill="#e05c3a"/><circle cx="244" cy="238" r="3" fill="#e05c3a"/><circle cx="258" cy="236" r="3" fill="#e05c3a"/><circle cx="273" cy="233" r="3" fill="#e05c3a"/><circle cx="287" cy="227" r="3" fill="#e05c3a"/><circle cx="301" cy="226" r="3" fill="#e05c3a"/><circle cx="316" cy="224" r="3" fill="#e05c3a"/><circle cx="330" cy="222" r="3" fill="#e05c3a"/><circle cx="344" cy="220" r="3" fill="#e05c3a"/><circle cx="359" cy="218" r="3" fill="#e05c3a"/><circle cx="373" cy="217" r="3" fill="#e05c3a"/><circle cx="387" cy="215" r="3" fill="#e05c3a"/><circle cx="402" cy="211" r="3" fill="#e05c3a"/><circle cx="416" cy="209" r="3" fill="#e05c3a"/><circle cx="430" cy="207" r="3" fill="#e05c3a"/><circle cx="445" cy="205" r="3" fill="#e05c3a"/><circle cx="459" cy="203" r="3" fill="#e05c3a"/><circle cx="473" cy="200" r="3" fill="#e05c3a"/><circle cx="488" cy="137" r="3" fill="#e05c3a"/><circle cx="502" cy="119" r="3" fill="#e05c3a"/><circle cx="516" cy="111" r="3" fill="#e05c3a"/><circle cx="531" cy="110" r="3" fill="#e05c3a"/><circle cx="545" cy="107" r="3" fill="#e05c3a"/><circle cx="559" cy="104" r="3" fill="#e05c3a"/><circle cx="574" cy="101" r="3" fill="#e05c3a"/><circle cx="588" cy="98" r="3" fill="#e05c3a"/><circle cx="602" cy="96" r="3" fill="#e05c3a"/><circle cx="617" cy="95" r="3" fill="#e05c3a"/><circle cx="631" cy="94" r="3" fill="#e05c3a"/><circle cx="645" cy="93" r="3" fill="#e05c3a"/><circle cx="660" cy="92" r="3" fill="#e05c3a"/><circle cx="674" cy="90" r="3" fill="#e05c3a"/><circle cx="688" cy="88" r="3" fill="#e05c3a"/><circle cx="703" cy="86" r="3" fill="#e05c3a"/><circle cx="717" cy="86" r="3" fill="#e05c3a"/><circle cx="731" cy="85" r="3" fill="#e05c3a"/><circle cx="746" cy="83" r="3" fill="#e05c3a"/><circle cx="760" cy="83" r="3" fill="#e05c3a"/>
  <text x="72" y="352" text-anchor="middle" font-family="system-ui,sans-serif" font-size="12" fill="#666666">2026-06</text><text x="201" y="352" text-anchor="middle" font-family="system-ui,sans-serif" font-size="12" fill="#666666">2026-06</text><text x="330" y="352" text-anchor="middle" font-family="system-ui,sans-serif" font-size="12" fill="#666666">2026-06</text><text x="459" y="352" text-anchor="middle" font-family="system-ui,sans-serif" font-size="12" fill="#666666">2026-06</text><text x="588" y="352" text-anchor="middle" font-family="system-ui,sans-serif" font-size="12" fill="#666666">2026-07</text><text x="717" y="352" text-anchor="middle" font-family="system-ui,sans-serif" font-size="12" fill="#666666">2026-07</text><text x="760" y="352" text-anchor="middle" font-family="system-ui,sans-serif" font-size="12" fill="#666666">2026-07</text>
  <text x="-195" y="18" transform="rotate(-90)" text-anchor="middle" font-family="system-ui,sans-serif" font-size="12" fill="#666666">Cumulative Cloners</text>
  <text x="416" y="392" text-anchor="middle" font-family="system-ui,sans-serif" font-size="12" fill="#666666">Date</text>
  <line x1="72" y1="60" x2="72" y2="330" stroke="#1a1a1a" stroke-width="1.5"/>
  <line x1="72" y1="330" x2="760" y2="330" stroke="#1a1a1a" stroke-width="1.5"/>
  
  <rect x="84" y="72" width="183.20000000000002" height="28" rx="4" fill="#ffffff" stroke="#cccccc" stroke-width="1"/>
  <circle cx="98" cy="86" r="5" fill="#e05c3a"/>
  <text x="108" y="91" font-family="system-ui,sans-serif" font-size="12" fill="#1a1a1a">paarths-collab/hstack</text>
  <text x="760" y="390" text-anchor="end" font-family="system-ui,sans-serif" font-size="11" fill="#aaaaaa">hstack clone history</text>
</svg>
