<svg xmlns="http://www.w3.org/2000/svg" width="800" height="400" viewBox="0 0 800 400">
  <rect width="800" height="400" fill="#ffffff"/>
  <line x1="72" y1="330" x2="760" y2="330" stroke="#e8e8e8" stroke-width="1"/><text x="62" y="334" text-anchor="end" font-family="system-ui,sans-serif" font-size="12" fill="#666666">0</text><line x1="72" y1="276" x2="760" y2="276" stroke="#e8e8e8" stroke-width="1"/><text x="62" y="280" text-anchor="end" font-family="system-ui,sans-serif" font-size="12" fill="#666666">180</text><line x1="72" y1="222" x2="760" y2="222" stroke="#e8e8e8" stroke-width="1"/><text x="62" y="226" text-anchor="end" font-family="system-ui,sans-serif" font-size="12" fill="#666666">360</text><line x1="72" y1="168" x2="760" y2="168" stroke="#e8e8e8" stroke-width="1"/><text x="62" y="172" text-anchor="end" font-family="system-ui,sans-serif" font-size="12" fill="#666666">540</text><line x1="72" y1="114" x2="760" y2="114" stroke="#e8e8e8" stroke-width="1"/><text x="62" y="118" text-anchor="end" font-family="system-ui,sans-serif" font-size="12" fill="#666666">720</text><line x1="72" y1="60" x2="760" y2="60" stroke="#e8e8e8" stroke-width="1"/><text x="62" y="64" text-anchor="end" font-family="system-ui,sans-serif" font-size="12" fill="#666666">900</text>
  <polyline points="72,313 86,294 100,268 113,264 127,262 141,259 155,254 168,251 182,249 196,245 210,243 223,241 237,238 251,236 265,233 278,227 292,226 306,224 320,222 333,220 347,218 361,217 375,215 388,211 402,209 416,207 430,205 444,203 457,200 471,137 485,119 499,111 512,110 526,107 540,104 554,101 567,98 581,96 595,95 609,94 622,93 636,92 650,90 664,88 677,86 691,86 705,85 719,83 732,83 746,82 760,80" fill="none" stroke="#e05c3a" stroke-width="2.5" stroke-linejoin="round" stroke-linecap="round"/><circle cx="72" cy="313" r="3" fill="#e05c3a"/><circle cx="86" cy="294" r="3" fill="#e05c3a"/><circle cx="100" cy="268" r="3" fill="#e05c3a"/><circle cx="113" cy="264" r="3" fill="#e05c3a"/><circle cx="127" cy="262" r="3" fill="#e05c3a"/><circle cx="141" cy="259" r="3" fill="#e05c3a"/><circle cx="155" cy="254" r="3" fill="#e05c3a"/><circle cx="168" cy="251" r="3" fill="#e05c3a"/><circle cx="182" cy="249" r="3" fill="#e05c3a"/><circle cx="196" cy="245" r="3" fill="#e05c3a"/><circle cx="210" cy="243" r="3" fill="#e05c3a"/><circle cx="223" cy="241" r="3" fill="#e05c3a"/><circle cx="237" cy="238" r="3" fill="#e05c3a"/><circle cx="251" cy="236" r="3" fill="#e05c3a"/><circle cx="265" cy="233" r="3" fill="#e05c3a"/><circle cx="278" cy="227" r="3" fill="#e05c3a"/><circle cx="292" cy="226" r="3" fill="#e05c3a"/><circle cx="306" cy="224" r="3" fill="#e05c3a"/><circle cx="320" cy="222" r="3" fill="#e05c3a"/><circle cx="333" cy="220" r="3" fill="#e05c3a"/><circle cx="347" cy="218" r="3" fill="#e05c3a"/><circle cx="361" cy="217" r="3" fill="#e05c3a"/><circle cx="375" cy="215" r="3" fill="#e05c3a"/><circle cx="388" cy="211" r="3" fill="#e05c3a"/><circle cx="402" cy="209" r="3" fill="#e05c3a"/><circle cx="416" cy="207" r="3" fill="#e05c3a"/><circle cx="430" cy="205" r="3" fill="#e05c3a"/><circle cx="444" cy="203" r="3" fill="#e05c3a"/><circle cx="457" cy="200" r="3" fill="#e05c3a"/><circle cx="471" cy="137" r="3" fill="#e05c3a"/><circle cx="485" cy="119" r="3" fill="#e05c3a"/><circle cx="499" cy="111" r="3" fill="#e05c3a"/><circle cx="512" cy="110" r="3" fill="#e05c3a"/><circle cx="526" cy="107" r="3" fill="#e05c3a"/><circle cx="540" cy="104" r="3" fill="#e05c3a"/><circle cx="554" cy="101" r="3" fill="#e05c3a"/><circle cx="567" cy="98" r="3" fill="#e05c3a"/><circle cx="581" cy="96" r="3" fill="#e05c3a"/><circle cx="595" cy="95" r="3" fill="#e05c3a"/><circle cx="609" cy="94" r="3" fill="#e05c3a"/><circle cx="622" cy="93" r="3" fill="#e05c3a"/><circle cx="636" cy="92" r="3" fill="#e05c3a"/><circle cx="650" cy="90" r="3" fill="#e05c3a"/><circle cx="664" cy="88" r="3" fill="#e05c3a"/><circle cx="677" cy="86" r="3" fill="#e05c3a"/><circle cx="691" cy="86" r="3" fill="#e05c3a"/><circle cx="705" cy="85" r="3" fill="#e05c3a"/><circle cx="719" cy="83" r="3" fill="#e05c3a"/><circle cx="732" cy="83" r="3" fill="#e05c3a"/><circle cx="746" cy="82" r="3" fill="#e05c3a"/><circle cx="760" cy="80" r="3" fill="#e05c3a"/>
  <text x="72" y="352" text-anchor="middle" font-family="system-ui,sans-serif" font-size="12" fill="#666666">2026-06</text><text x="196" y="352" text-anchor="middle" font-family="system-ui,sans-serif" font-size="12" fill="#666666">2026-06</text><text x="320" y="352" text-anchor="middle" font-family="system-ui,sans-serif" font-size="12" fill="#666666">2026-06</text><text x="444" y="352" text-anchor="middle" font-family="system-ui,sans-serif" font-size="12" fill="#666666">2026-06</text><text x="567" y="352" text-anchor="middle" font-family="system-ui,sans-serif" font-size="12" fill="#666666">2026-07</text><text x="691" y="352" text-anchor="middle" font-family="system-ui,sans-serif" font-size="12" fill="#666666">2026-07</text><text x="760" y="352" text-anchor="middle" font-family="system-ui,sans-serif" font-size="12" fill="#666666">2026-07</text>
  <text x="-195" y="18" transform="rotate(-90)" text-anchor="middle" font-family="system-ui,sans-serif" font-size="12" fill="#666666">Cumulative Cloners</text>
  <text x="416" y="392" text-anchor="middle" font-family="system-ui,sans-serif" font-size="12" fill="#666666">Date</text>
  <line x1="72" y1="60" x2="72" y2="330" stroke="#1a1a1a" stroke-width="1.5"/>
  <line x1="72" y1="330" x2="760" y2="330" stroke="#1a1a1a" stroke-width="1.5"/>
  
  <rect x="84" y="72" width="183.20000000000002" height="28" rx="4" fill="#ffffff" stroke="#cccccc" stroke-width="1"/>
  <circle cx="98" cy="86" r="5" fill="#e05c3a"/>
  <text x="108" y="91" font-family="system-ui,sans-serif" font-size="12" fill="#1a1a1a">paarths-collab/hstack</text>
  <text x="760" y="390" text-anchor="end" font-family="system-ui,sans-serif" font-size="11" fill="#aaaaaa">hstack clone history</text>
</svg>
