<svg xmlns="http://www.w3.org/2000/svg" width="800" height="400" viewBox="0 0 800 400">
  <rect width="800" height="400" fill="#ffffff"/>
  <line x1="72" y1="330" x2="760" y2="330" stroke="#e8e8e8" stroke-width="1"/><text x="62" y="334" text-anchor="end" font-family="system-ui,sans-serif" font-size="12" fill="#666666">0</text><line x1="72" y1="276" x2="760" y2="276" stroke="#e8e8e8" stroke-width="1"/><text x="62" y="280" text-anchor="end" font-family="system-ui,sans-serif" font-size="12" fill="#666666">180</text><line x1="72" y1="222" x2="760" y2="222" stroke="#e8e8e8" stroke-width="1"/><text x="62" y="226" text-anchor="end" font-family="system-ui,sans-serif" font-size="12" fill="#666666">360</text><line x1="72" y1="168" x2="760" y2="168" stroke="#e8e8e8" stroke-width="1"/><text x="62" y="172" text-anchor="end" font-family="system-ui,sans-serif" font-size="12" fill="#666666">540</text><line x1="72" y1="114" x2="760" y2="114" stroke="#e8e8e8" stroke-width="1"/><text x="62" y="118" text-anchor="end" font-family="system-ui,sans-serif" font-size="12" fill="#666666">720</text><line x1="72" y1="60" x2="760" y2="60" stroke="#e8e8e8" stroke-width="1"/><text x="62" y="64" text-anchor="end" font-family="system-ui,sans-serif" font-size="12" fill="#666666">900</text>
  <polyline points="72,313 85,294 98,268 112,264 125,262 138,259 151,254 165,251 178,249 191,245 204,243 218,241 231,238 244,236 257,233 270,227 284,226 297,224 310,222 323,220 337,218 350,217 363,215 376,211 390,209 403,207 416,205 429,203 442,200 456,137 469,119 482,111 495,110 509,107 522,104 535,101 548,98 562,96 575,95 588,94 601,93 614,92 628,90 641,88 654,86 667,86 681,85 694,83 707,83 720,82 734,80 747,80 760,79" fill="none" stroke="#e05c3a" stroke-width="2.5" stroke-linejoin="round" stroke-linecap="round"/><circle cx="72" cy="313" r="3" fill="#e05c3a"/><circle cx="85" cy="294" r="3" fill="#e05c3a"/><circle cx="98" cy="268" r="3" fill="#e05c3a"/><circle cx="112" cy="264" r="3" fill="#e05c3a"/><circle cx="125" cy="262" r="3" fill="#e05c3a"/><circle cx="138" cy="259" r="3" fill="#e05c3a"/><circle cx="151" cy="254" r="3" fill="#e05c3a"/><circle cx="165" cy="251" r="3" fill="#e05c3a"/><circle cx="178" cy="249" r="3" fill="#e05c3a"/><circle cx="191" cy="245" r="3" fill="#e05c3a"/><circle cx="204" cy="243" r="3" fill="#e05c3a"/><circle cx="218" cy="241" r="3" fill="#e05c3a"/><circle cx="231" cy="238" r="3" fill="#e05c3a"/><circle cx="244" cy="236" r="3" fill="#e05c3a"/><circle cx="257" cy="233" r="3" fill="#e05c3a"/><circle cx="270" cy="227" r="3" fill="#e05c3a"/><circle cx="284" cy="226" r="3" fill="#e05c3a"/><circle cx="297" cy="224" r="3" fill="#e05c3a"/><circle cx="310" cy="222" r="3" fill="#e05c3a"/><circle cx="323" cy="220" r="3" fill="#e05c3a"/><circle cx="337" cy="218" r="3" fill="#e05c3a"/><circle cx="350" cy="217" r="3" fill="#e05c3a"/><circle cx="363" cy="215" r="3" fill="#e05c3a"/><circle cx="376" cy="211" r="3" fill="#e05c3a"/><circle cx="390" cy="209" r="3" fill="#e05c3a"/><circle cx="403" cy="207" r="3" fill="#e05c3a"/><circle cx="416" cy="205" r="3" fill="#e05c3a"/><circle cx="429" cy="203" r="3" fill="#e05c3a"/><circle cx="442" cy="200" r="3" fill="#e05c3a"/><circle cx="456" cy="137" r="3" fill="#e05c3a"/><circle cx="469" cy="119" r="3" fill="#e05c3a"/><circle cx="482" cy="111" r="3" fill="#e05c3a"/><circle cx="495" cy="110" r="3" fill="#e05c3a"/><circle cx="509" cy="107" r="3" fill="#e05c3a"/><circle cx="522" cy="104" r="3" fill="#e05c3a"/><circle cx="535" cy="101" r="3" fill="#e05c3a"/><circle cx="548" cy="98" r="3" fill="#e05c3a"/><circle cx="562" cy="96" r="3" fill="#e05c3a"/><circle cx="575" cy="95" r="3" fill="#e05c3a"/><circle cx="588" cy="94" r="3" fill="#e05c3a"/><circle cx="601" cy="93" r="3" fill="#e05c3a"/><circle cx="614" cy="92" r="3" fill="#e05c3a"/><circle cx="628" cy="90" r="3" fill="#e05c3a"/><circle cx="641" cy="88" r="3" fill="#e05c3a"/><circle cx="654" cy="86" r="3" fill="#e05c3a"/><circle cx="667" cy="86" r="3" fill="#e05c3a"/><circle cx="681" cy="85" r="3" fill="#e05c3a"/><circle cx="694" cy="83" r="3" fill="#e05c3a"/><circle cx="707" cy="83" r="3" fill="#e05c3a"/><circle cx="720" cy="82" r="3" fill="#e05c3a"/><circle cx="734" cy="80" r="3" fill="#e05c3a"/><circle cx="747" cy="80" r="3" fill="#e05c3a"/><circle cx="760" cy="79" r="3" fill="#e05c3a"/>
  <text x="72" y="352" text-anchor="middle" font-family="system-ui,sans-serif" font-size="12" fill="#666666">2026-06</text><text x="191" y="352" text-anchor="middle" font-family="system-ui,sans-serif" font-size="12" fill="#666666">2026-06</text><text x="310" y="352" text-anchor="middle" font-family="system-ui,sans-serif" font-size="12" fill="#666666">2026-06</text><text x="429" y="352" text-anchor="middle" font-family="system-ui,sans-serif" font-size="12" fill="#666666">2026-06</text><text x="548" y="352" text-anchor="middle" font-family="system-ui,sans-serif" font-size="12" fill="#666666">2026-07</text><text x="667" y="352" text-anchor="middle" font-family="system-ui,sans-serif" font-size="12" fill="#666666">2026-07</text><text x="760" y="352" text-anchor="middle" font-family="system-ui,sans-serif" font-size="12" fill="#666666">2026-07</text>
  <text x="-195" y="18" transform="rotate(-90)" text-anchor="middle" font-family="system-ui,sans-serif" font-size="12" fill="#666666">Cumulative Cloners</text>
  <text x="416" y="392" text-anchor="middle" font-family="system-ui,sans-serif" font-size="12" fill="#666666">Date</text>
  <line x1="72" y1="60" x2="72" y2="330" stroke="#1a1a1a" stroke-width="1.5"/>
  <line x1="72" y1="330" x2="760" y2="330" stroke="#1a1a1a" stroke-width="1.5"/>
  
  <rect x="84" y="72" width="183.20000000000002" height="28" rx="4" fill="#ffffff" stroke="#cccccc" stroke-width="1"/>
  <circle cx="98" cy="86" r="5" fill="#e05c3a"/>
  <text x="108" y="91" font-family="system-ui,sans-serif" font-size="12" fill="#1a1a1a">paarths-collab/hstack</text>
  <text x="760" y="390" text-anchor="end" font-family="system-ui,sans-serif" font-size="11" fill="#aaaaaa">hstack clone history</text>
</svg>
