<svg xmlns="http://www.w3.org/2000/svg" width="800" height="400" viewBox="0 0 800 400">
  <rect width="800" height="400" fill="#ffffff"/>
  <line x1="72" y1="330" x2="760" y2="330" stroke="#e8e8e8" stroke-width="1"/><text x="62" y="334" text-anchor="end" font-family="system-ui,sans-serif" font-size="12" fill="#666666">0</text><line x1="72" y1="276" x2="760" y2="276" stroke="#e8e8e8" stroke-width="1"/><text x="62" y="280" text-anchor="end" font-family="system-ui,sans-serif" font-size="12" fill="#666666">160</text><line x1="72" y1="222" x2="760" y2="222" stroke="#e8e8e8" stroke-width="1"/><text x="62" y="226" text-anchor="end" font-family="system-ui,sans-serif" font-size="12" fill="#666666">320</text><line x1="72" y1="168" x2="760" y2="168" stroke="#e8e8e8" stroke-width="1"/><text x="62" y="172" text-anchor="end" font-family="system-ui,sans-serif" font-size="12" fill="#666666">480</text><line x1="72" y1="114" x2="760" y2="114" stroke="#e8e8e8" stroke-width="1"/><text x="62" y="118" text-anchor="end" font-family="system-ui,sans-serif" font-size="12" fill="#666666">640</text><line x1="72" y1="60" x2="760" y2="60" stroke="#e8e8e8" stroke-width="1"/><text x="62" y="64" text-anchor="end" font-family="system-ui,sans-serif" font-size="12" fill="#666666">800</text>
  <polyline points="72,311 88,289 105,260 121,256 138,254 154,250 170,245 187,242 203,239 219,235 236,232 252,229 269,226 285,224 301,221 318,215 334,213 350,210 367,208 383,206 400,204 416,203 432,200 449,196 465,193 482,192 498,189 514,187 531,184 547,113 563,93 580,84 596,83 613,79 629,75 645,72 662,68 678,67 694,66 711,65 727,63 744,62 760,60" fill="none" stroke="#e05c3a" stroke-width="2.5" stroke-linejoin="round" stroke-linecap="round"/><circle cx="72" cy="311" r="3" fill="#e05c3a"/><circle cx="88" cy="289" r="3" fill="#e05c3a"/><circle cx="105" cy="260" r="3" fill="#e05c3a"/><circle cx="121" cy="256" r="3" fill="#e05c3a"/><circle cx="138" cy="254" r="3" fill="#e05c3a"/><circle cx="154" cy="250" r="3" fill="#e05c3a"/><circle cx="170" cy="245" r="3" fill="#e05c3a"/><circle cx="187" cy="242" r="3" fill="#e05c3a"/><circle cx="203" cy="239" r="3" fill="#e05c3a"/><circle cx="219" cy="235" r="3" fill="#e05c3a"/><circle cx="236" cy="232" r="3" fill="#e05c3a"/><circle cx="252" cy="229" r="3" fill="#e05c3a"/><circle cx="269" cy="226" r="3" fill="#e05c3a"/><circle cx="285" cy="224" r="3" fill="#e05c3a"/><circle cx="301" cy="221" r="3" fill="#e05c3a"/><circle cx="318" cy="215" r="3" fill="#e05c3a"/><circle cx="334" cy="213" r="3" fill="#e05c3a"/><circle cx="350" cy="210" r="3" fill="#e05c3a"/><circle cx="367" cy="208" r="3" fill="#e05c3a"/><circle cx="383" cy="206" r="3" fill="#e05c3a"/><circle cx="400" cy="204" r="3" fill="#e05c3a"/><circle cx="416" cy="203" r="3" fill="#e05c3a"/><circle cx="432" cy="200" r="3" fill="#e05c3a"/><circle cx="449" cy="196" r="3" fill="#e05c3a"/><circle cx="465" cy="193" r="3" fill="#e05c3a"/><circle cx="482" cy="192" r="3" fill="#e05c3a"/><circle cx="498" cy="189" r="3" fill="#e05c3a"/><circle cx="514" cy="187" r="3" fill="#e05c3a"/><circle cx="531" cy="184" r="3" fill="#e05c3a"/><circle cx="547" cy="113" r="3" fill="#e05c3a"/><circle cx="563" cy="93" r="3" fill="#e05c3a"/><circle cx="580" cy="84" r="3" fill="#e05c3a"/><circle cx="596" cy="83" r="3" fill="#e05c3a"/><circle cx="613" cy="79" r="3" fill="#e05c3a"/><circle cx="629" cy="75" r="3" fill="#e05c3a"/><circle cx="645" cy="72" r="3" fill="#e05c3a"/><circle cx="662" cy="68" r="3" fill="#e05c3a"/><circle cx="678" cy="67" r="3" fill="#e05c3a"/><circle cx="694" cy="66" r="3" fill="#e05c3a"/><circle cx="711" cy="65" r="3" fill="#e05c3a"/><circle cx="727" cy="63" r="3" fill="#e05c3a"/><circle cx="744" cy="62" r="3" fill="#e05c3a"/><circle cx="760" cy="60" r="3" fill="#e05c3a"/>
  <text x="72" y="352" text-anchor="middle" font-family="system-ui,sans-serif" font-size="12" fill="#666666">2026-06</text><text x="203" y="352" text-anchor="middle" font-family="system-ui,sans-serif" font-size="12" fill="#666666">2026-06</text><text x="334" y="352" text-anchor="middle" font-family="system-ui,sans-serif" font-size="12" fill="#666666">2026-06</text><text x="465" y="352" text-anchor="middle" font-family="system-ui,sans-serif" font-size="12" fill="#666666">2026-06</text><text x="596" y="352" text-anchor="middle" font-family="system-ui,sans-serif" font-size="12" fill="#666666">2026-07</text><text x="727" y="352" text-anchor="middle" font-family="system-ui,sans-serif" font-size="12" fill="#666666">2026-07</text><text x="760" y="352" text-anchor="middle" font-family="system-ui,sans-serif" font-size="12" fill="#666666">2026-07</text>
  <text x="-195" y="18" transform="rotate(-90)" text-anchor="middle" font-family="system-ui,sans-serif" font-size="12" fill="#666666">Cumulative Cloners</text>
  <text x="416" y="392" text-anchor="middle" font-family="system-ui,sans-serif" font-size="12" fill="#666666">Date</text>
  <line x1="72" y1="60" x2="72" y2="330" stroke="#1a1a1a" stroke-width="1.5"/>
  <line x1="72" y1="330" x2="760" y2="330" stroke="#1a1a1a" stroke-width="1.5"/>
  
  <rect x="84" y="72" width="183.20000000000002" height="28" rx="4" fill="#ffffff" stroke="#cccccc" stroke-width="1"/>
  <circle cx="98" cy="86" r="5" fill="#e05c3a"/>
  <text x="108" y="91" font-family="system-ui,sans-serif" font-size="12" fill="#1a1a1a">paarths-collab/hstack</text>
  <text x="760" y="390" text-anchor="end" font-family="system-ui,sans-serif" font-size="11" fill="#aaaaaa">hstack clone history</text>
</svg>
