<svg xmlns="http://www.w3.org/2000/svg" width="800" height="400" viewBox="0 0 800 400">
  <rect width="800" height="400" fill="#ffffff"/>
  <line x1="72" y1="330" x2="760" y2="330" stroke="#e8e8e8" stroke-width="1"/><text x="62" y="334" text-anchor="end" font-family="system-ui,sans-serif" font-size="12" fill="#666666">0</text><line x1="72" y1="276" x2="760" y2="276" stroke="#e8e8e8" stroke-width="1"/><text x="62" y="280" text-anchor="end" font-family="system-ui,sans-serif" font-size="12" fill="#666666">160</text><line x1="72" y1="222" x2="760" y2="222" stroke="#e8e8e8" stroke-width="1"/><text x="62" y="226" text-anchor="end" font-family="system-ui,sans-serif" font-size="12" fill="#666666">320</text><line x1="72" y1="168" x2="760" y2="168" stroke="#e8e8e8" stroke-width="1"/><text x="62" y="172" text-anchor="end" font-family="system-ui,sans-serif" font-size="12" fill="#666666">480</text><line x1="72" y1="114" x2="760" y2="114" stroke="#e8e8e8" stroke-width="1"/><text x="62" y="118" text-anchor="end" font-family="system-ui,sans-serif" font-size="12" fill="#666666">640</text><line x1="72" y1="60" x2="760" y2="60" stroke="#e8e8e8" stroke-width="1"/><text x="62" y="64" text-anchor="end" font-family="system-ui,sans-serif" font-size="12" fill="#666666">800</text>
  <polyline points="72,311 89,289 106,260 122,256 139,254 156,250 173,245 189,242 206,239 223,235 240,232 257,229 273,226 290,224 307,221 324,215 340,213 357,210 374,208 391,206 408,204 424,203 441,200 458,196 475,193 492,192 508,189 525,187 542,184 559,113 575,93 592,84 609,83 626,79 643,75 659,72 676,68 693,67 710,66 726,65 743,63 760,62" fill="none" stroke="#e05c3a" stroke-width="2.5" stroke-linejoin="round" stroke-linecap="round"/><circle cx="72" cy="311" r="3" fill="#e05c3a"/><circle cx="89" cy="289" r="3" fill="#e05c3a"/><circle cx="106" cy="260" r="3" fill="#e05c3a"/><circle cx="122" cy="256" r="3" fill="#e05c3a"/><circle cx="139" cy="254" r="3" fill="#e05c3a"/><circle cx="156" cy="250" r="3" fill="#e05c3a"/><circle cx="173" cy="245" r="3" fill="#e05c3a"/><circle cx="189" cy="242" r="3" fill="#e05c3a"/><circle cx="206" cy="239" r="3" fill="#e05c3a"/><circle cx="223" cy="235" r="3" fill="#e05c3a"/><circle cx="240" cy="232" r="3" fill="#e05c3a"/><circle cx="257" cy="229" r="3" fill="#e05c3a"/><circle cx="273" cy="226" r="3" fill="#e05c3a"/><circle cx="290" cy="224" r="3" fill="#e05c3a"/><circle cx="307" cy="221" r="3" fill="#e05c3a"/><circle cx="324" cy="215" r="3" fill="#e05c3a"/><circle cx="340" cy="213" r="3" fill="#e05c3a"/><circle cx="357" cy="210" r="3" fill="#e05c3a"/><circle cx="374" cy="208" r="3" fill="#e05c3a"/><circle cx="391" cy="206" r="3" fill="#e05c3a"/><circle cx="408" cy="204" r="3" fill="#e05c3a"/><circle cx="424" cy="203" r="3" fill="#e05c3a"/><circle cx="441" cy="200" r="3" fill="#e05c3a"/><circle cx="458" cy="196" r="3" fill="#e05c3a"/><circle cx="475" cy="193" r="3" fill="#e05c3a"/><circle cx="492" cy="192" r="3" fill="#e05c3a"/><circle cx="508" cy="189" r="3" fill="#e05c3a"/><circle cx="525" cy="187" r="3" fill="#e05c3a"/><circle cx="542" cy="184" r="3" fill="#e05c3a"/><circle cx="559" cy="113" r="3" fill="#e05c3a"/><circle cx="575" cy="93" r="3" fill="#e05c3a"/><circle cx="592" cy="84" r="3" fill="#e05c3a"/><circle cx="609" cy="83" r="3" fill="#e05c3a"/><circle cx="626" cy="79" r="3" fill="#e05c3a"/><circle cx="643" cy="75" r="3" fill="#e05c3a"/><circle cx="659" cy="72" r="3" fill="#e05c3a"/><circle cx="676" cy="68" r="3" fill="#e05c3a"/><circle cx="693" cy="67" r="3" fill="#e05c3a"/><circle cx="710" cy="66" r="3" fill="#e05c3a"/><circle cx="726" cy="65" r="3" fill="#e05c3a"/><circle cx="743" cy="63" r="3" fill="#e05c3a"/><circle cx="760" cy="62" r="3" fill="#e05c3a"/>
  <text x="72" y="352" text-anchor="middle" font-family="system-ui,sans-serif" font-size="12" fill="#666666">2026-06</text><text x="189" y="352" text-anchor="middle" font-family="system-ui,sans-serif" font-size="12" fill="#666666">2026-06</text><text x="307" y="352" text-anchor="middle" font-family="system-ui,sans-serif" font-size="12" fill="#666666">2026-06</text><text x="424" y="352" text-anchor="middle" font-family="system-ui,sans-serif" font-size="12" fill="#666666">2026-06</text><text x="542" y="352" text-anchor="middle" font-family="system-ui,sans-serif" font-size="12" fill="#666666">2026-06</text><text x="659" y="352" text-anchor="middle" font-family="system-ui,sans-serif" font-size="12" fill="#666666">2026-07</text><text x="760" y="352" text-anchor="middle" font-family="system-ui,sans-serif" font-size="12" fill="#666666">2026-07</text>
  <text x="-195" y="18" transform="rotate(-90)" text-anchor="middle" font-family="system-ui,sans-serif" font-size="12" fill="#666666">Cumulative Cloners</text>
  <text x="416" y="392" text-anchor="middle" font-family="system-ui,sans-serif" font-size="12" fill="#666666">Date</text>
  <line x1="72" y1="60" x2="72" y2="330" stroke="#1a1a1a" stroke-width="1.5"/>
  <line x1="72" y1="330" x2="760" y2="330" stroke="#1a1a1a" stroke-width="1.5"/>
  
  <rect x="84" y="72" width="183.20000000000002" height="28" rx="4" fill="#ffffff" stroke="#cccccc" stroke-width="1"/>
  <circle cx="98" cy="86" r="5" fill="#e05c3a"/>
  <text x="108" y="91" font-family="system-ui,sans-serif" font-size="12" fill="#1a1a1a">paarths-collab/hstack</text>
  <text x="760" y="390" text-anchor="end" font-family="system-ui,sans-serif" font-size="11" fill="#aaaaaa">hstack clone history</text>
</svg>
