<svg xmlns="http://www.w3.org/2000/svg" width="800" height="400" viewBox="0 0 800 400">
  <rect width="800" height="400" fill="#ffffff"/>
  <line x1="72" y1="330" x2="760" y2="330" stroke="#e8e8e8" stroke-width="1"/><text x="62" y="334" text-anchor="end" font-family="system-ui,sans-serif" font-size="12" fill="#666666">0</text><line x1="72" y1="276" x2="760" y2="276" stroke="#e8e8e8" stroke-width="1"/><text x="62" y="280" text-anchor="end" font-family="system-ui,sans-serif" font-size="12" fill="#666666">160</text><line x1="72" y1="222" x2="760" y2="222" stroke="#e8e8e8" stroke-width="1"/><text x="62" y="226" text-anchor="end" font-family="system-ui,sans-serif" font-size="12" fill="#666666">320</text><line x1="72" y1="168" x2="760" y2="168" stroke="#e8e8e8" stroke-width="1"/><text x="62" y="172" text-anchor="end" font-family="system-ui,sans-serif" font-size="12" fill="#666666">480</text><line x1="72" y1="114" x2="760" y2="114" stroke="#e8e8e8" stroke-width="1"/><text x="62" y="118" text-anchor="end" font-family="system-ui,sans-serif" font-size="12" fill="#666666">640</text><line x1="72" y1="60" x2="760" y2="60" stroke="#e8e8e8" stroke-width="1"/><text x="62" y="64" text-anchor="end" font-family="system-ui,sans-serif" font-size="12" fill="#666666">800</text>
  <polyline points="72,311 95,289 118,260 141,256 164,254 187,250 210,245 233,242 255,239 278,235 301,232 324,229 347,226 370,224 393,221 416,215 439,213 462,210 485,208 508,206 531,204 554,203 577,200 599,196 622,193 645,192 668,189 691,187 714,184 737,113 760,93" fill="none" stroke="#e05c3a" stroke-width="2.5" stroke-linejoin="round" stroke-linecap="round"/><circle cx="72" cy="311" r="3" fill="#e05c3a"/><circle cx="95" cy="289" r="3" fill="#e05c3a"/><circle cx="118" cy="260" r="3" fill="#e05c3a"/><circle cx="141" cy="256" r="3" fill="#e05c3a"/><circle cx="164" cy="254" r="3" fill="#e05c3a"/><circle cx="187" cy="250" r="3" fill="#e05c3a"/><circle cx="210" cy="245" r="3" fill="#e05c3a"/><circle cx="233" cy="242" r="3" fill="#e05c3a"/><circle cx="255" cy="239" r="3" fill="#e05c3a"/><circle cx="278" cy="235" r="3" fill="#e05c3a"/><circle cx="301" cy="232" r="3" fill="#e05c3a"/><circle cx="324" cy="229" r="3" fill="#e05c3a"/><circle cx="347" cy="226" r="3" fill="#e05c3a"/><circle cx="370" cy="224" r="3" fill="#e05c3a"/><circle cx="393" cy="221" r="3" fill="#e05c3a"/><circle cx="416" cy="215" r="3" fill="#e05c3a"/><circle cx="439" cy="213" r="3" fill="#e05c3a"/><circle cx="462" cy="210" r="3" fill="#e05c3a"/><circle cx="485" cy="208" r="3" fill="#e05c3a"/><circle cx="508" cy="206" r="3" fill="#e05c3a"/><circle cx="531" cy="204" r="3" fill="#e05c3a"/><circle cx="554" cy="203" r="3" fill="#e05c3a"/><circle cx="577" cy="200" r="3" fill="#e05c3a"/><circle cx="599" cy="196" r="3" fill="#e05c3a"/><circle cx="622" cy="193" r="3" fill="#e05c3a"/><circle cx="645" cy="192" r="3" fill="#e05c3a"/><circle cx="668" cy="189" r="3" fill="#e05c3a"/><circle cx="691" cy="187" r="3" fill="#e05c3a"/><circle cx="714" cy="184" r="3" fill="#e05c3a"/><circle cx="737" cy="113" r="3" fill="#e05c3a"/><circle cx="760" cy="93" r="3" fill="#e05c3a"/>
  <text x="72" y="352" text-anchor="middle" font-family="system-ui,sans-serif" font-size="12" fill="#666666">2026-06</text><text x="210" y="352" text-anchor="middle" font-family="system-ui,sans-serif" font-size="12" fill="#666666">2026-06</text><text x="347" y="352" text-anchor="middle" font-family="system-ui,sans-serif" font-size="12" fill="#666666">2026-06</text><text x="485" y="352" text-anchor="middle" font-family="system-ui,sans-serif" font-size="12" fill="#666666">2026-06</text><text x="622" y="352" text-anchor="middle" font-family="system-ui,sans-serif" font-size="12" fill="#666666">2026-06</text><text x="760" y="352" text-anchor="middle" font-family="system-ui,sans-serif" font-size="12" fill="#666666">2026-07</text>
  <text x="-195" y="18" transform="rotate(-90)" text-anchor="middle" font-family="system-ui,sans-serif" font-size="12" fill="#666666">Cumulative Cloners</text>
  <text x="416" y="392" text-anchor="middle" font-family="system-ui,sans-serif" font-size="12" fill="#666666">Date</text>
  <line x1="72" y1="60" x2="72" y2="330" stroke="#1a1a1a" stroke-width="1.5"/>
  <line x1="72" y1="330" x2="760" y2="330" stroke="#1a1a1a" stroke-width="1.5"/>
  
  <rect x="84" y="72" width="183.20000000000002" height="28" rx="4" fill="#ffffff" stroke="#cccccc" stroke-width="1"/>
  <circle cx="98" cy="86" r="5" fill="#e05c3a"/>
  <text x="108" y="91" font-family="system-ui,sans-serif" font-size="12" fill="#1a1a1a">paarths-collab/hstack</text>
  <text x="760" y="390" text-anchor="end" font-family="system-ui,sans-serif" font-size="11" fill="#aaaaaa">hstack clone history</text>
</svg>
