<svg xmlns="http://www.w3.org/2000/svg" width="800" height="400" viewBox="0 0 800 400">
  <rect width="800" height="400" fill="#ffffff"/>
  <line x1="72" y1="330" x2="760" y2="330" stroke="#e8e8e8" stroke-width="1"/><text x="62" y="334" text-anchor="end" font-family="system-ui,sans-serif" font-size="12" fill="#666666">0</text><line x1="72" y1="276" x2="760" y2="276" stroke="#e8e8e8" stroke-width="1"/><text x="62" y="280" text-anchor="end" font-family="system-ui,sans-serif" font-size="12" fill="#666666">160</text><line x1="72" y1="222" x2="760" y2="222" stroke="#e8e8e8" stroke-width="1"/><text x="62" y="226" text-anchor="end" font-family="system-ui,sans-serif" font-size="12" fill="#666666">320</text><line x1="72" y1="168" x2="760" y2="168" stroke="#e8e8e8" stroke-width="1"/><text x="62" y="172" text-anchor="end" font-family="system-ui,sans-serif" font-size="12" fill="#666666">480</text><line x1="72" y1="114" x2="760" y2="114" stroke="#e8e8e8" stroke-width="1"/><text x="62" y="118" text-anchor="end" font-family="system-ui,sans-serif" font-size="12" fill="#666666">640</text><line x1="72" y1="60" x2="760" y2="60" stroke="#e8e8e8" stroke-width="1"/><text x="62" y="64" text-anchor="end" font-family="system-ui,sans-serif" font-size="12" fill="#666666">800</text>
  <polyline points="72,311 93,289 114,260 135,256 155,254 176,250 197,245 218,242 239,239 260,235 280,232 301,229 322,226 343,224 364,221 385,215 406,213 426,210 447,208 468,206 489,204 510,203 531,200 552,196 572,193 593,192 614,189 635,187 656,184 677,113 697,93 718,84 739,83 760,79" fill="none" stroke="#e05c3a" stroke-width="2.5" stroke-linejoin="round" stroke-linecap="round"/><circle cx="72" cy="311" r="3" fill="#e05c3a"/><circle cx="93" cy="289" r="3" fill="#e05c3a"/><circle cx="114" cy="260" r="3" fill="#e05c3a"/><circle cx="135" cy="256" r="3" fill="#e05c3a"/><circle cx="155" cy="254" r="3" fill="#e05c3a"/><circle cx="176" cy="250" r="3" fill="#e05c3a"/><circle cx="197" cy="245" r="3" fill="#e05c3a"/><circle cx="218" cy="242" r="3" fill="#e05c3a"/><circle cx="239" cy="239" r="3" fill="#e05c3a"/><circle cx="260" cy="235" r="3" fill="#e05c3a"/><circle cx="280" cy="232" r="3" fill="#e05c3a"/><circle cx="301" cy="229" r="3" fill="#e05c3a"/><circle cx="322" cy="226" r="3" fill="#e05c3a"/><circle cx="343" cy="224" r="3" fill="#e05c3a"/><circle cx="364" cy="221" r="3" fill="#e05c3a"/><circle cx="385" cy="215" r="3" fill="#e05c3a"/><circle cx="406" cy="213" r="3" fill="#e05c3a"/><circle cx="426" cy="210" r="3" fill="#e05c3a"/><circle cx="447" cy="208" r="3" fill="#e05c3a"/><circle cx="468" cy="206" r="3" fill="#e05c3a"/><circle cx="489" cy="204" r="3" fill="#e05c3a"/><circle cx="510" cy="203" r="3" fill="#e05c3a"/><circle cx="531" cy="200" r="3" fill="#e05c3a"/><circle cx="552" cy="196" r="3" fill="#e05c3a"/><circle cx="572" cy="193" r="3" fill="#e05c3a"/><circle cx="593" cy="192" r="3" fill="#e05c3a"/><circle cx="614" cy="189" r="3" fill="#e05c3a"/><circle cx="635" cy="187" r="3" fill="#e05c3a"/><circle cx="656" cy="184" r="3" fill="#e05c3a"/><circle cx="677" cy="113" r="3" fill="#e05c3a"/><circle cx="697" cy="93" r="3" fill="#e05c3a"/><circle cx="718" cy="84" r="3" fill="#e05c3a"/><circle cx="739" cy="83" r="3" fill="#e05c3a"/><circle cx="760" cy="79" r="3" fill="#e05c3a"/>
  <text x="72" y="352" text-anchor="middle" font-family="system-ui,sans-serif" font-size="12" fill="#666666">2026-06</text><text x="197" y="352" text-anchor="middle" font-family="system-ui,sans-serif" font-size="12" fill="#666666">2026-06</text><text x="322" y="352" text-anchor="middle" font-family="system-ui,sans-serif" font-size="12" fill="#666666">2026-06</text><text x="447" y="352" text-anchor="middle" font-family="system-ui,sans-serif" font-size="12" fill="#666666">2026-06</text><text x="572" y="352" text-anchor="middle" font-family="system-ui,sans-serif" font-size="12" fill="#666666">2026-06</text><text x="697" y="352" text-anchor="middle" font-family="system-ui,sans-serif" font-size="12" fill="#666666">2026-07</text><text x="760" y="352" text-anchor="middle" font-family="system-ui,sans-serif" font-size="12" fill="#666666">2026-07</text>
  <text x="-195" y="18" transform="rotate(-90)" text-anchor="middle" font-family="system-ui,sans-serif" font-size="12" fill="#666666">Cumulative Cloners</text>
  <text x="416" y="392" text-anchor="middle" font-family="system-ui,sans-serif" font-size="12" fill="#666666">Date</text>
  <line x1="72" y1="60" x2="72" y2="330" stroke="#1a1a1a" stroke-width="1.5"/>
  <line x1="72" y1="330" x2="760" y2="330" stroke="#1a1a1a" stroke-width="1.5"/>
  
  <rect x="84" y="72" width="183.20000000000002" height="28" rx="4" fill="#ffffff" stroke="#cccccc" stroke-width="1"/>
  <circle cx="98" cy="86" r="5" fill="#e05c3a"/>
  <text x="108" y="91" font-family="system-ui,sans-serif" font-size="12" fill="#1a1a1a">paarths-collab/hstack</text>
  <text x="760" y="390" text-anchor="end" font-family="system-ui,sans-serif" font-size="11" fill="#aaaaaa">hstack clone history</text>
</svg>
