<svg xmlns="http://www.w3.org/2000/svg" width="800" height="400" viewBox="0 0 800 400">
  <rect width="800" height="400" fill="#ffffff"/>
  <line x1="72" y1="330" x2="760" y2="330" stroke="#e8e8e8" stroke-width="1"/><text x="62" y="334" text-anchor="end" font-family="system-ui,sans-serif" font-size="12" fill="#666666">0</text><line x1="72" y1="276" x2="760" y2="276" stroke="#e8e8e8" stroke-width="1"/><text x="62" y="280" text-anchor="end" font-family="system-ui,sans-serif" font-size="12" fill="#666666">100</text><line x1="72" y1="222" x2="760" y2="222" stroke="#e8e8e8" stroke-width="1"/><text x="62" y="226" text-anchor="end" font-family="system-ui,sans-serif" font-size="12" fill="#666666">200</text><line x1="72" y1="168" x2="760" y2="168" stroke="#e8e8e8" stroke-width="1"/><text x="62" y="172" text-anchor="end" font-family="system-ui,sans-serif" font-size="12" fill="#666666">300</text><line x1="72" y1="114" x2="760" y2="114" stroke="#e8e8e8" stroke-width="1"/><text x="62" y="118" text-anchor="end" font-family="system-ui,sans-serif" font-size="12" fill="#666666">400</text><line x1="72" y1="60" x2="760" y2="60" stroke="#e8e8e8" stroke-width="1"/><text x="62" y="64" text-anchor="end" font-family="system-ui,sans-serif" font-size="12" fill="#666666">500</text>
  <polyline points="72,299 97,265 123,218 148,211 174,208 199,202 225,193 250,189 276,184 301,178 327,173 352,169 378,164 403,160 429,156 454,145 480,142 505,138 531,135 556,132 582,128 607,127 633,122 658,116 684,111 709,109 735,105 760,101" fill="none" stroke="#e05c3a" stroke-width="2.5" stroke-linejoin="round" stroke-linecap="round"/><circle cx="72" cy="299" r="3" fill="#e05c3a"/><circle cx="97" cy="265" r="3" fill="#e05c3a"/><circle cx="123" cy="218" r="3" fill="#e05c3a"/><circle cx="148" cy="211" r="3" fill="#e05c3a"/><circle cx="174" cy="208" r="3" fill="#e05c3a"/><circle cx="199" cy="202" r="3" fill="#e05c3a"/><circle cx="225" cy="193" r="3" fill="#e05c3a"/><circle cx="250" cy="189" r="3" fill="#e05c3a"/><circle cx="276" cy="184" r="3" fill="#e05c3a"/><circle cx="301" cy="178" r="3" fill="#e05c3a"/><circle cx="327" cy="173" r="3" fill="#e05c3a"/><circle cx="352" cy="169" r="3" fill="#e05c3a"/><circle cx="378" cy="164" r="3" fill="#e05c3a"/><circle cx="403" cy="160" r="3" fill="#e05c3a"/><circle cx="429" cy="156" r="3" fill="#e05c3a"/><circle cx="454" cy="145" r="3" fill="#e05c3a"/><circle cx="480" cy="142" r="3" fill="#e05c3a"/><circle cx="505" cy="138" r="3" fill="#e05c3a"/><circle cx="531" cy="135" r="3" fill="#e05c3a"/><circle cx="556" cy="132" r="3" fill="#e05c3a"/><circle cx="582" cy="128" r="3" fill="#e05c3a"/><circle cx="607" cy="127" r="3" fill="#e05c3a"/><circle cx="633" cy="122" r="3" fill="#e05c3a"/><circle cx="658" cy="116" r="3" fill="#e05c3a"/><circle cx="684" cy="111" r="3" fill="#e05c3a"/><circle cx="709" cy="109" r="3" fill="#e05c3a"/><circle cx="735" cy="105" r="3" fill="#e05c3a"/><circle cx="760" cy="101" r="3" fill="#e05c3a"/>
  <text x="72" y="352" text-anchor="middle" font-family="system-ui,sans-serif" font-size="12" fill="#666666">2026-06</text><text x="199" y="352" text-anchor="middle" font-family="system-ui,sans-serif" font-size="12" fill="#666666">2026-06</text><text x="327" y="352" text-anchor="middle" font-family="system-ui,sans-serif" font-size="12" fill="#666666">2026-06</text><text x="454" y="352" text-anchor="middle" font-family="system-ui,sans-serif" font-size="12" fill="#666666">2026-06</text><text x="582" y="352" text-anchor="middle" font-family="system-ui,sans-serif" font-size="12" fill="#666666">2026-06</text><text x="709" y="352" text-anchor="middle" font-family="system-ui,sans-serif" font-size="12" fill="#666666">2026-06</text><text x="760" y="352" text-anchor="middle" font-family="system-ui,sans-serif" font-size="12" fill="#666666">2026-06</text>
  <text x="-195" y="18" transform="rotate(-90)" text-anchor="middle" font-family="system-ui,sans-serif" font-size="12" fill="#666666">Cumulative Cloners</text>
  <text x="416" y="392" text-anchor="middle" font-family="system-ui,sans-serif" font-size="12" fill="#666666">Date</text>
  <line x1="72" y1="60" x2="72" y2="330" stroke="#1a1a1a" stroke-width="1.5"/>
  <line x1="72" y1="330" x2="760" y2="330" stroke="#1a1a1a" stroke-width="1.5"/>
  
  <rect x="84" y="72" width="183.20000000000002" height="28" rx="4" fill="#ffffff" stroke="#cccccc" stroke-width="1"/>
  <circle cx="98" cy="86" r="5" fill="#e05c3a"/>
  <text x="108" y="91" font-family="system-ui,sans-serif" font-size="12" fill="#1a1a1a">paarths-collab/hstack</text>
  <text x="760" y="390" text-anchor="end" font-family="system-ui,sans-serif" font-size="11" fill="#aaaaaa">hstack clone history</text>
</svg>
