<svg xmlns="http://www.w3.org/2000/svg" width="800" height="260" viewBox="0 0 800 260">
  <rect width="800" height="260" rx="8" fill="#fff"/>
  <text x="44" y="20" font-family="system-ui,sans-serif" font-size="13" font-weight="600" fill="#111827">Git clone traffic — paarths-collab/hstack</text>
  <line x1="44" y1="208" x2="776" y2="208" stroke="#e5e7eb" stroke-width="1"/><text x="38" y="212" text-anchor="end" font-family="system-ui,sans-serif" font-size="11" fill="#6b7280">0</text><line x1="44" y1="164" x2="776" y2="164" stroke="#e5e7eb" stroke-width="1"/><text x="38" y="168" text-anchor="end" font-family="system-ui,sans-serif" font-size="11" fill="#6b7280">29</text><line x1="44" y1="119" x2="776" y2="119" stroke="#e5e7eb" stroke-width="1"/><text x="38" y="123" text-anchor="end" font-family="system-ui,sans-serif" font-size="11" fill="#6b7280">58</text><line x1="44" y1="76" x2="776" y2="76" stroke="#e5e7eb" stroke-width="1"/><text x="38" y="80" text-anchor="end" font-family="system-ui,sans-serif" font-size="11" fill="#6b7280">86</text><line x1="44" y1="32" x2="776" y2="32" stroke="#e5e7eb" stroke-width="1"/><text x="38" y="36" text-anchor="end" font-family="system-ui,sans-serif" font-size="11" fill="#6b7280">115</text>
  <rect x="54.64285714285714" y="208" width="31" height="0" rx="2" fill="#3b82f6" opacity="0.85"><title>2026-05-19: 0 clones, 0 unique</title></rect><rect x="106.92857142857142" y="208" width="31" height="0" rx="2" fill="#3b82f6" opacity="0.85"><title>2026-05-20: 0 clones, 0 unique</title></rect><rect x="159.2142857142857" y="208" width="31" height="0" rx="2" fill="#3b82f6" opacity="0.85"><title>2026-05-21: 0 clones, 0 unique</title></rect><rect x="211.5" y="208" width="31" height="0" rx="2" fill="#3b82f6" opacity="0.85"><title>2026-05-22: 0 clones, 0 unique</title></rect><rect x="263.7857142857143" y="208" width="31" height="0" rx="2" fill="#3b82f6" opacity="0.85"><title>2026-05-23: 0 clones, 0 unique</title></rect><rect x="316.0714285714286" y="208" width="31" height="0" rx="2" fill="#3b82f6" opacity="0.85"><title>2026-05-24: 0 clones, 0 unique</title></rect><rect x="368.3571428571429" y="208" width="31" height="0" rx="2" fill="#3b82f6" opacity="0.85"><title>2026-05-25: 0 clones, 0 unique</title></rect><rect x="420.64285714285717" y="208" width="31" height="0" rx="2" fill="#3b82f6" opacity="0.85"><title>2026-05-26: 0 clones, 0 unique</title></rect><rect x="472.92857142857144" y="208" width="31" height="0" rx="2" fill="#3b82f6" opacity="0.85"><title>2026-05-27: 0 clones, 0 unique</title></rect><rect x="525.2142857142857" y="208" width="31" height="0" rx="2" fill="#3b82f6" opacity="0.85"><title>2026-05-28: 0 clones, 0 unique</title></rect><rect x="577.5" y="208" width="31" height="0" rx="2" fill="#3b82f6" opacity="0.85"><title>2026-05-29: 0 clones, 0 unique</title></rect><rect x="629.7857142857142" y="208" width="31" height="0" rx="2" fill="#3b82f6" opacity="0.85"><title>2026-05-30: 0 clones, 0 unique</title></rect><rect x="682.0714285714286" y="208" width="31" height="0" rx="2" fill="#3b82f6" opacity="0.85"><title>2026-05-31: 0 clones, 0 unique</title></rect><rect x="734.3571428571428" y="32" width="31" height="176" rx="2" fill="#3b82f6" opacity="0.85"><title>2026-06-01: 115 clones, 57 unique</title></rect>
  <polyline points="70.14285714285714,208 122.42857142857142,208 174.7142857142857,208 227,208 279.2857142857143,208 331.5714285714286,208 383.8571428571429,208 436.14285714285717,208 488.42857142857144,208 540.7142857142857,208 593,208 645.2857142857142,208 697.5714285714286,208 749.8571428571428,121" fill="none" stroke="#14b8a6" stroke-width="2" stroke-linejoin="round"/>
  <circle cx="70.14285714285714" cy="208" r="3" fill="#14b8a6"><title>2026-05-19: 0 unique</title></circle><circle cx="122.42857142857142" cy="208" r="3" fill="#14b8a6"><title>2026-05-20: 0 unique</title></circle><circle cx="174.7142857142857" cy="208" r="3" fill="#14b8a6"><title>2026-05-21: 0 unique</title></circle><circle cx="227" cy="208" r="3" fill="#14b8a6"><title>2026-05-22: 0 unique</title></circle><circle cx="279.2857142857143" cy="208" r="3" fill="#14b8a6"><title>2026-05-23: 0 unique</title></circle><circle cx="331.5714285714286" cy="208" r="3" fill="#14b8a6"><title>2026-05-24: 0 unique</title></circle><circle cx="383.8571428571429" cy="208" r="3" fill="#14b8a6"><title>2026-05-25: 0 unique</title></circle><circle cx="436.14285714285717" cy="208" r="3" fill="#14b8a6"><title>2026-05-26: 0 unique</title></circle><circle cx="488.42857142857144" cy="208" r="3" fill="#14b8a6"><title>2026-05-27: 0 unique</title></circle><circle cx="540.7142857142857" cy="208" r="3" fill="#14b8a6"><title>2026-05-28: 0 unique</title></circle><circle cx="593" cy="208" r="3" fill="#14b8a6"><title>2026-05-29: 0 unique</title></circle><circle cx="645.2857142857142" cy="208" r="3" fill="#14b8a6"><title>2026-05-30: 0 unique</title></circle><circle cx="697.5714285714286" cy="208" r="3" fill="#14b8a6"><title>2026-05-31: 0 unique</title></circle><circle cx="749.8571428571428" cy="121" r="3" fill="#14b8a6"><title>2026-06-01: 57 unique</title></circle>
  <text x="70.14285714285714" y="226" text-anchor="middle" font-family="system-ui,sans-serif" font-size="10" fill="#6b7280">05-19</text><text x="174.7142857142857" y="226" text-anchor="middle" font-family="system-ui,sans-serif" font-size="10" fill="#6b7280">05-21</text><text x="279.2857142857143" y="226" text-anchor="middle" font-family="system-ui,sans-serif" font-size="10" fill="#6b7280">05-23</text><text x="383.8571428571429" y="226" text-anchor="middle" font-family="system-ui,sans-serif" font-size="10" fill="#6b7280">05-25</text><text x="488.42857142857144" y="226" text-anchor="middle" font-family="system-ui,sans-serif" font-size="10" fill="#6b7280">05-27</text><text x="593" y="226" text-anchor="middle" font-family="system-ui,sans-serif" font-size="10" fill="#6b7280">05-29</text><text x="697.5714285714286" y="226" text-anchor="middle" font-family="system-ui,sans-serif" font-size="10" fill="#6b7280">05-31</text><text x="749.8571428571428" y="226" text-anchor="middle" font-family="system-ui,sans-serif" font-size="10" fill="#6b7280">06-01</text>
  <rect x="44" y="246" width="10" height="10" rx="2" fill="#3b82f6"/><text x="58" y="255" font-family="system-ui,sans-serif" font-size="11" fill="#6b7280">Clones  (total: 115)</text><line x1="274" y1="251" x2="284" y2="251" stroke="#14b8a6" stroke-width="2"/><circle cx="279" cy="251" r="3" fill="#14b8a6"/><text x="288" y="255" font-family="system-ui,sans-serif" font-size="11" fill="#6b7280">Unique cloners  (~57)</text>
  <line x1="44" y1="32" x2="44" y2="208" stroke="#e5e7eb" stroke-width="1"/>
  <line x1="44" y1="208" x2="776" y2="208" stroke="#e5e7eb" stroke-width="1"/>
</svg>
