<svg xmlns="http://www.w3.org/2000/svg" width="800" height="400" viewBox="0 0 800 400">
  <rect width="800" height="400" fill="#ffffff"/>
  <line x1="72" y1="330" x2="760" y2="330" stroke="#e8e8e8" stroke-width="1"/><text x="62" y="334" text-anchor="end" font-family="system-ui,sans-serif" font-size="12" fill="#666666">0</text><line x1="72" y1="276" x2="760" y2="276" stroke="#e8e8e8" stroke-width="1"/><text x="62" y="280" text-anchor="end" font-family="system-ui,sans-serif" font-size="12" fill="#666666">100</text><line x1="72" y1="222" x2="760" y2="222" stroke="#e8e8e8" stroke-width="1"/><text x="62" y="226" text-anchor="end" font-family="system-ui,sans-serif" font-size="12" fill="#666666">200</text><line x1="72" y1="168" x2="760" y2="168" stroke="#e8e8e8" stroke-width="1"/><text x="62" y="172" text-anchor="end" font-family="system-ui,sans-serif" font-size="12" fill="#666666">300</text><line x1="72" y1="114" x2="760" y2="114" stroke="#e8e8e8" stroke-width="1"/><text x="62" y="118" text-anchor="end" font-family="system-ui,sans-serif" font-size="12" fill="#666666">400</text><line x1="72" y1="60" x2="760" y2="60" stroke="#e8e8e8" stroke-width="1"/><text x="62" y="64" text-anchor="end" font-family="system-ui,sans-serif" font-size="12" fill="#666666">500</text>
  <polyline points="72,299 98,265 125,218 151,211 178,208 204,202 231,193 257,189 284,184 310,178 337,173 363,169 390,164 416,160 442,156 469,145 495,142 522,138 548,135 575,132 601,128 628,127 654,122 681,116 707,111 734,109 760,105" fill="none" stroke="#e05c3a" stroke-width="2.5" stroke-linejoin="round" stroke-linecap="round"/><circle cx="72" cy="299" r="3" fill="#e05c3a"/><circle cx="98" cy="265" r="3" fill="#e05c3a"/><circle cx="125" cy="218" r="3" fill="#e05c3a"/><circle cx="151" cy="211" r="3" fill="#e05c3a"/><circle cx="178" cy="208" r="3" fill="#e05c3a"/><circle cx="204" cy="202" r="3" fill="#e05c3a"/><circle cx="231" cy="193" r="3" fill="#e05c3a"/><circle cx="257" cy="189" r="3" fill="#e05c3a"/><circle cx="284" cy="184" r="3" fill="#e05c3a"/><circle cx="310" cy="178" r="3" fill="#e05c3a"/><circle cx="337" cy="173" r="3" fill="#e05c3a"/><circle cx="363" cy="169" r="3" fill="#e05c3a"/><circle cx="390" cy="164" r="3" fill="#e05c3a"/><circle cx="416" cy="160" r="3" fill="#e05c3a"/><circle cx="442" cy="156" r="3" fill="#e05c3a"/><circle cx="469" cy="145" r="3" fill="#e05c3a"/><circle cx="495" cy="142" r="3" fill="#e05c3a"/><circle cx="522" cy="138" r="3" fill="#e05c3a"/><circle cx="548" cy="135" r="3" fill="#e05c3a"/><circle cx="575" cy="132" r="3" fill="#e05c3a"/><circle cx="601" cy="128" r="3" fill="#e05c3a"/><circle cx="628" cy="127" r="3" fill="#e05c3a"/><circle cx="654" cy="122" r="3" fill="#e05c3a"/><circle cx="681" cy="116" r="3" fill="#e05c3a"/><circle cx="707" cy="111" r="3" fill="#e05c3a"/><circle cx="734" cy="109" r="3" fill="#e05c3a"/><circle cx="760" cy="105" r="3" fill="#e05c3a"/>
  <text x="72" y="352" text-anchor="middle" font-family="system-ui,sans-serif" font-size="12" fill="#666666">2026-06</text><text x="204" y="352" text-anchor="middle" font-family="system-ui,sans-serif" font-size="12" fill="#666666">2026-06</text><text x="337" y="352" text-anchor="middle" font-family="system-ui,sans-serif" font-size="12" fill="#666666">2026-06</text><text x="469" y="352" text-anchor="middle" font-family="system-ui,sans-serif" font-size="12" fill="#666666">2026-06</text><text x="601" y="352" text-anchor="middle" font-family="system-ui,sans-serif" font-size="12" fill="#666666">2026-06</text><text x="734" y="352" text-anchor="middle" font-family="system-ui,sans-serif" font-size="12" fill="#666666">2026-06</text><text x="760" y="352" text-anchor="middle" font-family="system-ui,sans-serif" font-size="12" fill="#666666">2026-06</text>
  <text x="-195" y="18" transform="rotate(-90)" text-anchor="middle" font-family="system-ui,sans-serif" font-size="12" fill="#666666">Cumulative Cloners</text>
  <text x="416" y="392" text-anchor="middle" font-family="system-ui,sans-serif" font-size="12" fill="#666666">Date</text>
  <line x1="72" y1="60" x2="72" y2="330" stroke="#1a1a1a" stroke-width="1.5"/>
  <line x1="72" y1="330" x2="760" y2="330" stroke="#1a1a1a" stroke-width="1.5"/>
  
  <rect x="84" y="72" width="183.20000000000002" height="28" rx="4" fill="#ffffff" stroke="#cccccc" stroke-width="1"/>
  <circle cx="98" cy="86" r="5" fill="#e05c3a"/>
  <text x="108" y="91" font-family="system-ui,sans-serif" font-size="12" fill="#1a1a1a">paarths-collab/hstack</text>
  <text x="760" y="390" text-anchor="end" font-family="system-ui,sans-serif" font-size="11" fill="#aaaaaa">hstack clone history</text>
</svg>
