<svg xmlns="http://www.w3.org/2000/svg" width="800" height="400" viewBox="0 0 800 400">
  <rect width="800" height="400" fill="#ffffff"/>
  <line x1="72" y1="330" x2="760" y2="330" stroke="#e8e8e8" stroke-width="1"/><text x="62" y="334" text-anchor="end" font-family="system-ui,sans-serif" font-size="12" fill="#666666">0</text><line x1="72" y1="276" x2="760" y2="276" stroke="#e8e8e8" stroke-width="1"/><text x="62" y="280" text-anchor="end" font-family="system-ui,sans-serif" font-size="12" fill="#666666">180</text><line x1="72" y1="222" x2="760" y2="222" stroke="#e8e8e8" stroke-width="1"/><text x="62" y="226" text-anchor="end" font-family="system-ui,sans-serif" font-size="12" fill="#666666">360</text><line x1="72" y1="168" x2="760" y2="168" stroke="#e8e8e8" stroke-width="1"/><text x="62" y="172" text-anchor="end" font-family="system-ui,sans-serif" font-size="12" fill="#666666">540</text><line x1="72" y1="114" x2="760" y2="114" stroke="#e8e8e8" stroke-width="1"/><text x="62" y="118" text-anchor="end" font-family="system-ui,sans-serif" font-size="12" fill="#666666">720</text><line x1="72" y1="60" x2="760" y2="60" stroke="#e8e8e8" stroke-width="1"/><text x="62" y="64" text-anchor="end" font-family="system-ui,sans-serif" font-size="12" fill="#666666">900</text>
  <polyline points="72,313 87,294 103,268 118,264 133,262 148,259 164,254 179,251 194,249 210,245 225,243 240,241 255,238 271,236 286,233 301,227 317,226 332,224 347,222 362,220 378,218 393,217 408,215 424,211 439,209 454,207 470,205 485,203 500,200 515,137 531,119 546,111 561,110 577,107 592,104 607,101 622,98 638,96 653,95 668,94 684,93 699,92 714,90 729,88 745,86 760,86" fill="none" stroke="#e05c3a" stroke-width="2.5" stroke-linejoin="round" stroke-linecap="round"/><circle cx="72" cy="313" r="3" fill="#e05c3a"/><circle cx="87" cy="294" r="3" fill="#e05c3a"/><circle cx="103" cy="268" r="3" fill="#e05c3a"/><circle cx="118" cy="264" r="3" fill="#e05c3a"/><circle cx="133" cy="262" r="3" fill="#e05c3a"/><circle cx="148" cy="259" r="3" fill="#e05c3a"/><circle cx="164" cy="254" r="3" fill="#e05c3a"/><circle cx="179" cy="251" r="3" fill="#e05c3a"/><circle cx="194" cy="249" r="3" fill="#e05c3a"/><circle cx="210" cy="245" r="3" fill="#e05c3a"/><circle cx="225" cy="243" r="3" fill="#e05c3a"/><circle cx="240" cy="241" r="3" fill="#e05c3a"/><circle cx="255" cy="238" r="3" fill="#e05c3a"/><circle cx="271" cy="236" r="3" fill="#e05c3a"/><circle cx="286" cy="233" r="3" fill="#e05c3a"/><circle cx="301" cy="227" r="3" fill="#e05c3a"/><circle cx="317" cy="226" r="3" fill="#e05c3a"/><circle cx="332" cy="224" r="3" fill="#e05c3a"/><circle cx="347" cy="222" r="3" fill="#e05c3a"/><circle cx="362" cy="220" r="3" fill="#e05c3a"/><circle cx="378" cy="218" r="3" fill="#e05c3a"/><circle cx="393" cy="217" r="3" fill="#e05c3a"/><circle cx="408" cy="215" r="3" fill="#e05c3a"/><circle cx="424" cy="211" r="3" fill="#e05c3a"/><circle cx="439" cy="209" r="3" fill="#e05c3a"/><circle cx="454" cy="207" r="3" fill="#e05c3a"/><circle cx="470" cy="205" r="3" fill="#e05c3a"/><circle cx="485" cy="203" r="3" fill="#e05c3a"/><circle cx="500" cy="200" r="3" fill="#e05c3a"/><circle cx="515" cy="137" r="3" fill="#e05c3a"/><circle cx="531" cy="119" r="3" fill="#e05c3a"/><circle cx="546" cy="111" r="3" fill="#e05c3a"/><circle cx="561" cy="110" r="3" fill="#e05c3a"/><circle cx="577" cy="107" r="3" fill="#e05c3a"/><circle cx="592" cy="104" r="3" fill="#e05c3a"/><circle cx="607" cy="101" r="3" fill="#e05c3a"/><circle cx="622" cy="98" r="3" fill="#e05c3a"/><circle cx="638" cy="96" r="3" fill="#e05c3a"/><circle cx="653" cy="95" r="3" fill="#e05c3a"/><circle cx="668" cy="94" r="3" fill="#e05c3a"/><circle cx="684" cy="93" r="3" fill="#e05c3a"/><circle cx="699" cy="92" r="3" fill="#e05c3a"/><circle cx="714" cy="90" r="3" fill="#e05c3a"/><circle cx="729" cy="88" r="3" fill="#e05c3a"/><circle cx="745" cy="86" r="3" fill="#e05c3a"/><circle cx="760" cy="86" r="3" fill="#e05c3a"/>
  <text x="72" y="352" text-anchor="middle" font-family="system-ui,sans-serif" font-size="12" fill="#666666">2026-06</text><text x="194" y="352" text-anchor="middle" font-family="system-ui,sans-serif" font-size="12" fill="#666666">2026-06</text><text x="317" y="352" text-anchor="middle" font-family="system-ui,sans-serif" font-size="12" fill="#666666">2026-06</text><text x="439" y="352" text-anchor="middle" font-family="system-ui,sans-serif" font-size="12" fill="#666666">2026-06</text><text x="561" y="352" text-anchor="middle" font-family="system-ui,sans-serif" font-size="12" fill="#666666">2026-07</text><text x="684" y="352" text-anchor="middle" font-family="system-ui,sans-serif" font-size="12" fill="#666666">2026-07</text><text x="760" y="352" text-anchor="middle" font-family="system-ui,sans-serif" font-size="12" fill="#666666">2026-07</text>
  <text x="-195" y="18" transform="rotate(-90)" text-anchor="middle" font-family="system-ui,sans-serif" font-size="12" fill="#666666">Cumulative Cloners</text>
  <text x="416" y="392" text-anchor="middle" font-family="system-ui,sans-serif" font-size="12" fill="#666666">Date</text>
  <line x1="72" y1="60" x2="72" y2="330" stroke="#1a1a1a" stroke-width="1.5"/>
  <line x1="72" y1="330" x2="760" y2="330" stroke="#1a1a1a" stroke-width="1.5"/>
  
  <rect x="84" y="72" width="183.20000000000002" height="28" rx="4" fill="#ffffff" stroke="#cccccc" stroke-width="1"/>
  <circle cx="98" cy="86" r="5" fill="#e05c3a"/>
  <text x="108" y="91" font-family="system-ui,sans-serif" font-size="12" fill="#1a1a1a">paarths-collab/hstack</text>
  <text x="760" y="390" text-anchor="end" font-family="system-ui,sans-serif" font-size="11" fill="#aaaaaa">hstack clone history</text>
</svg>
