<svg xmlns="http://www.w3.org/2000/svg" width="800" height="400" viewBox="0 0 800 400">
  <rect width="800" height="400" fill="#ffffff"/>
  <line x1="72" y1="330" x2="760" y2="330" stroke="#e8e8e8" stroke-width="1"/><text x="62" y="334" text-anchor="end" font-family="system-ui,sans-serif" font-size="12" fill="#666666">0</text><line x1="72" y1="276" x2="760" y2="276" stroke="#e8e8e8" stroke-width="1"/><text x="62" y="280" text-anchor="end" font-family="system-ui,sans-serif" font-size="12" fill="#666666">160</text><line x1="72" y1="222" x2="760" y2="222" stroke="#e8e8e8" stroke-width="1"/><text x="62" y="226" text-anchor="end" font-family="system-ui,sans-serif" font-size="12" fill="#666666">320</text><line x1="72" y1="168" x2="760" y2="168" stroke="#e8e8e8" stroke-width="1"/><text x="62" y="172" text-anchor="end" font-family="system-ui,sans-serif" font-size="12" fill="#666666">480</text><line x1="72" y1="114" x2="760" y2="114" stroke="#e8e8e8" stroke-width="1"/><text x="62" y="118" text-anchor="end" font-family="system-ui,sans-serif" font-size="12" fill="#666666">640</text><line x1="72" y1="60" x2="760" y2="60" stroke="#e8e8e8" stroke-width="1"/><text x="62" y="64" text-anchor="end" font-family="system-ui,sans-serif" font-size="12" fill="#666666">800</text>
  <polyline points="72,311 92,289 111,260 131,256 151,254 170,250 190,245 210,242 229,239 249,235 269,232 288,229 308,226 328,224 347,221 367,215 387,213 406,210 426,208 445,206 465,204 485,203 504,200 524,196 544,193 563,192 583,189 603,187 622,184 642,113 662,93 681,84 701,83 721,79 740,75 760,72" fill="none" stroke="#e05c3a" stroke-width="2.5" stroke-linejoin="round" stroke-linecap="round"/><circle cx="72" cy="311" r="3" fill="#e05c3a"/><circle cx="92" cy="289" r="3" fill="#e05c3a"/><circle cx="111" cy="260" r="3" fill="#e05c3a"/><circle cx="131" cy="256" r="3" fill="#e05c3a"/><circle cx="151" cy="254" r="3" fill="#e05c3a"/><circle cx="170" cy="250" r="3" fill="#e05c3a"/><circle cx="190" cy="245" r="3" fill="#e05c3a"/><circle cx="210" cy="242" r="3" fill="#e05c3a"/><circle cx="229" cy="239" r="3" fill="#e05c3a"/><circle cx="249" cy="235" r="3" fill="#e05c3a"/><circle cx="269" cy="232" r="3" fill="#e05c3a"/><circle cx="288" cy="229" r="3" fill="#e05c3a"/><circle cx="308" cy="226" r="3" fill="#e05c3a"/><circle cx="328" cy="224" r="3" fill="#e05c3a"/><circle cx="347" cy="221" r="3" fill="#e05c3a"/><circle cx="367" cy="215" r="3" fill="#e05c3a"/><circle cx="387" cy="213" r="3" fill="#e05c3a"/><circle cx="406" cy="210" r="3" fill="#e05c3a"/><circle cx="426" cy="208" r="3" fill="#e05c3a"/><circle cx="445" cy="206" r="3" fill="#e05c3a"/><circle cx="465" cy="204" r="3" fill="#e05c3a"/><circle cx="485" cy="203" r="3" fill="#e05c3a"/><circle cx="504" cy="200" r="3" fill="#e05c3a"/><circle cx="524" cy="196" r="3" fill="#e05c3a"/><circle cx="544" cy="193" r="3" fill="#e05c3a"/><circle cx="563" cy="192" r="3" fill="#e05c3a"/><circle cx="583" cy="189" r="3" fill="#e05c3a"/><circle cx="603" cy="187" r="3" fill="#e05c3a"/><circle cx="622" cy="184" r="3" fill="#e05c3a"/><circle cx="642" cy="113" r="3" fill="#e05c3a"/><circle cx="662" cy="93" r="3" fill="#e05c3a"/><circle cx="681" cy="84" r="3" fill="#e05c3a"/><circle cx="701" cy="83" r="3" fill="#e05c3a"/><circle cx="721" cy="79" r="3" fill="#e05c3a"/><circle cx="740" cy="75" r="3" fill="#e05c3a"/><circle cx="760" cy="72" r="3" fill="#e05c3a"/>
  <text x="72" y="352" text-anchor="middle" font-family="system-ui,sans-serif" font-size="12" fill="#666666">2026-06</text><text x="190" y="352" text-anchor="middle" font-family="system-ui,sans-serif" font-size="12" fill="#666666">2026-06</text><text x="308" y="352" text-anchor="middle" font-family="system-ui,sans-serif" font-size="12" fill="#666666">2026-06</text><text x="426" y="352" text-anchor="middle" font-family="system-ui,sans-serif" font-size="12" fill="#666666">2026-06</text><text x="544" y="352" text-anchor="middle" font-family="system-ui,sans-serif" font-size="12" fill="#666666">2026-06</text><text x="662" y="352" text-anchor="middle" font-family="system-ui,sans-serif" font-size="12" fill="#666666">2026-07</text><text x="760" y="352" text-anchor="middle" font-family="system-ui,sans-serif" font-size="12" fill="#666666">2026-07</text>
  <text x="-195" y="18" transform="rotate(-90)" text-anchor="middle" font-family="system-ui,sans-serif" font-size="12" fill="#666666">Cumulative Cloners</text>
  <text x="416" y="392" text-anchor="middle" font-family="system-ui,sans-serif" font-size="12" fill="#666666">Date</text>
  <line x1="72" y1="60" x2="72" y2="330" stroke="#1a1a1a" stroke-width="1.5"/>
  <line x1="72" y1="330" x2="760" y2="330" stroke="#1a1a1a" stroke-width="1.5"/>
  
  <rect x="84" y="72" width="183.20000000000002" height="28" rx="4" fill="#ffffff" stroke="#cccccc" stroke-width="1"/>
  <circle cx="98" cy="86" r="5" fill="#e05c3a"/>
  <text x="108" y="91" font-family="system-ui,sans-serif" font-size="12" fill="#1a1a1a">paarths-collab/hstack</text>
  <text x="760" y="390" text-anchor="end" font-family="system-ui,sans-serif" font-size="11" fill="#aaaaaa">hstack clone history</text>
</svg>
