<svg xmlns="http://www.w3.org/2000/svg" width="800" height="400" viewBox="0 0 800 400">
  <rect width="800" height="400" fill="#ffffff"/>
  <line x1="72" y1="330" x2="760" y2="330" stroke="#e8e8e8" stroke-width="1"/><text x="62" y="334" text-anchor="end" font-family="system-ui,sans-serif" font-size="12" fill="#666666">0</text><line x1="72" y1="276" x2="760" y2="276" stroke="#e8e8e8" stroke-width="1"/><text x="62" y="280" text-anchor="end" font-family="system-ui,sans-serif" font-size="12" fill="#666666">160</text><line x1="72" y1="222" x2="760" y2="222" stroke="#e8e8e8" stroke-width="1"/><text x="62" y="226" text-anchor="end" font-family="system-ui,sans-serif" font-size="12" fill="#666666">320</text><line x1="72" y1="168" x2="760" y2="168" stroke="#e8e8e8" stroke-width="1"/><text x="62" y="172" text-anchor="end" font-family="system-ui,sans-serif" font-size="12" fill="#666666">480</text><line x1="72" y1="114" x2="760" y2="114" stroke="#e8e8e8" stroke-width="1"/><text x="62" y="118" text-anchor="end" font-family="system-ui,sans-serif" font-size="12" fill="#666666">640</text><line x1="72" y1="60" x2="760" y2="60" stroke="#e8e8e8" stroke-width="1"/><text x="62" y="64" text-anchor="end" font-family="system-ui,sans-serif" font-size="12" fill="#666666">800</text>
  <polyline points="72,311 94,289 115,260 137,256 158,254 180,250 201,245 223,242 244,239 266,235 287,232 309,229 330,226 352,224 373,221 395,215 416,213 438,210 459,208 481,206 502,204 524,203 545,200 567,196 588,193 610,192 631,189 653,187 674,184 696,113 717,93 739,84 760,83" fill="none" stroke="#e05c3a" stroke-width="2.5" stroke-linejoin="round" stroke-linecap="round"/><circle cx="72" cy="311" r="3" fill="#e05c3a"/><circle cx="94" cy="289" r="3" fill="#e05c3a"/><circle cx="115" cy="260" r="3" fill="#e05c3a"/><circle cx="137" cy="256" r="3" fill="#e05c3a"/><circle cx="158" cy="254" r="3" fill="#e05c3a"/><circle cx="180" cy="250" r="3" fill="#e05c3a"/><circle cx="201" cy="245" r="3" fill="#e05c3a"/><circle cx="223" cy="242" r="3" fill="#e05c3a"/><circle cx="244" cy="239" r="3" fill="#e05c3a"/><circle cx="266" cy="235" r="3" fill="#e05c3a"/><circle cx="287" cy="232" r="3" fill="#e05c3a"/><circle cx="309" cy="229" r="3" fill="#e05c3a"/><circle cx="330" cy="226" r="3" fill="#e05c3a"/><circle cx="352" cy="224" r="3" fill="#e05c3a"/><circle cx="373" cy="221" r="3" fill="#e05c3a"/><circle cx="395" cy="215" r="3" fill="#e05c3a"/><circle cx="416" cy="213" r="3" fill="#e05c3a"/><circle cx="438" cy="210" r="3" fill="#e05c3a"/><circle cx="459" cy="208" r="3" fill="#e05c3a"/><circle cx="481" cy="206" r="3" fill="#e05c3a"/><circle cx="502" cy="204" r="3" fill="#e05c3a"/><circle cx="524" cy="203" r="3" fill="#e05c3a"/><circle cx="545" cy="200" r="3" fill="#e05c3a"/><circle cx="567" cy="196" r="3" fill="#e05c3a"/><circle cx="588" cy="193" r="3" fill="#e05c3a"/><circle cx="610" cy="192" r="3" fill="#e05c3a"/><circle cx="631" cy="189" r="3" fill="#e05c3a"/><circle cx="653" cy="187" r="3" fill="#e05c3a"/><circle cx="674" cy="184" r="3" fill="#e05c3a"/><circle cx="696" cy="113" r="3" fill="#e05c3a"/><circle cx="717" cy="93" r="3" fill="#e05c3a"/><circle cx="739" cy="84" r="3" fill="#e05c3a"/><circle cx="760" cy="83" r="3" fill="#e05c3a"/>
  <text x="72" y="352" text-anchor="middle" font-family="system-ui,sans-serif" font-size="12" fill="#666666">2026-06</text><text x="201" y="352" text-anchor="middle" font-family="system-ui,sans-serif" font-size="12" fill="#666666">2026-06</text><text x="330" y="352" text-anchor="middle" font-family="system-ui,sans-serif" font-size="12" fill="#666666">2026-06</text><text x="459" y="352" text-anchor="middle" font-family="system-ui,sans-serif" font-size="12" fill="#666666">2026-06</text><text x="588" y="352" text-anchor="middle" font-family="system-ui,sans-serif" font-size="12" fill="#666666">2026-06</text><text x="717" y="352" text-anchor="middle" font-family="system-ui,sans-serif" font-size="12" fill="#666666">2026-07</text><text x="760" y="352" text-anchor="middle" font-family="system-ui,sans-serif" font-size="12" fill="#666666">2026-07</text>
  <text x="-195" y="18" transform="rotate(-90)" text-anchor="middle" font-family="system-ui,sans-serif" font-size="12" fill="#666666">Cumulative Cloners</text>
  <text x="416" y="392" text-anchor="middle" font-family="system-ui,sans-serif" font-size="12" fill="#666666">Date</text>
  <line x1="72" y1="60" x2="72" y2="330" stroke="#1a1a1a" stroke-width="1.5"/>
  <line x1="72" y1="330" x2="760" y2="330" stroke="#1a1a1a" stroke-width="1.5"/>
  
  <rect x="84" y="72" width="183.20000000000002" height="28" rx="4" fill="#ffffff" stroke="#cccccc" stroke-width="1"/>
  <circle cx="98" cy="86" r="5" fill="#e05c3a"/>
  <text x="108" y="91" font-family="system-ui,sans-serif" font-size="12" fill="#1a1a1a">paarths-collab/hstack</text>
  <text x="760" y="390" text-anchor="end" font-family="system-ui,sans-serif" font-size="11" fill="#aaaaaa">hstack clone history</text>
</svg>
