<svg xmlns="http://www.w3.org/2000/svg" width="800" height="400" viewBox="0 0 800 400">
  <rect width="800" height="400" fill="#ffffff"/>
  <line x1="72" y1="330" x2="760" y2="330" stroke="#e8e8e8" stroke-width="1"/><text x="62" y="334" text-anchor="end" font-family="system-ui,sans-serif" font-size="12" fill="#666666">0</text><line x1="72" y1="276" x2="760" y2="276" stroke="#e8e8e8" stroke-width="1"/><text x="62" y="280" text-anchor="end" font-family="system-ui,sans-serif" font-size="12" fill="#666666">140</text><line x1="72" y1="222" x2="760" y2="222" stroke="#e8e8e8" stroke-width="1"/><text x="62" y="226" text-anchor="end" font-family="system-ui,sans-serif" font-size="12" fill="#666666">280</text><line x1="72" y1="168" x2="760" y2="168" stroke="#e8e8e8" stroke-width="1"/><text x="62" y="172" text-anchor="end" font-family="system-ui,sans-serif" font-size="12" fill="#666666">420</text><line x1="72" y1="114" x2="760" y2="114" stroke="#e8e8e8" stroke-width="1"/><text x="62" y="118" text-anchor="end" font-family="system-ui,sans-serif" font-size="12" fill="#666666">560</text><line x1="72" y1="60" x2="760" y2="60" stroke="#e8e8e8" stroke-width="1"/><text x="62" y="64" text-anchor="end" font-family="system-ui,sans-serif" font-size="12" fill="#666666">700</text>
  <polyline points="72,308 96,283 119,250 143,245 167,243 191,239 214,232 238,229 262,225 286,221 309,218 333,215 357,212 380,209 404,206 428,198 452,196 475,193 499,191 523,188 546,186 570,185 594,182 618,177 641,174 665,172 689,169 713,166 736,163 760,82" fill="none" stroke="#e05c3a" stroke-width="2.5" stroke-linejoin="round" stroke-linecap="round"/><circle cx="72" cy="308" r="3" fill="#e05c3a"/><circle cx="96" cy="283" r="3" fill="#e05c3a"/><circle cx="119" cy="250" r="3" fill="#e05c3a"/><circle cx="143" cy="245" r="3" fill="#e05c3a"/><circle cx="167" cy="243" r="3" fill="#e05c3a"/><circle cx="191" cy="239" r="3" fill="#e05c3a"/><circle cx="214" cy="232" r="3" fill="#e05c3a"/><circle cx="238" cy="229" r="3" fill="#e05c3a"/><circle cx="262" cy="225" r="3" fill="#e05c3a"/><circle cx="286" cy="221" r="3" fill="#e05c3a"/><circle cx="309" cy="218" r="3" fill="#e05c3a"/><circle cx="333" cy="215" r="3" fill="#e05c3a"/><circle cx="357" cy="212" r="3" fill="#e05c3a"/><circle cx="380" cy="209" r="3" fill="#e05c3a"/><circle cx="404" cy="206" r="3" fill="#e05c3a"/><circle cx="428" cy="198" r="3" fill="#e05c3a"/><circle cx="452" cy="196" r="3" fill="#e05c3a"/><circle cx="475" cy="193" r="3" fill="#e05c3a"/><circle cx="499" cy="191" r="3" fill="#e05c3a"/><circle cx="523" cy="188" r="3" fill="#e05c3a"/><circle cx="546" cy="186" r="3" fill="#e05c3a"/><circle cx="570" cy="185" r="3" fill="#e05c3a"/><circle cx="594" cy="182" r="3" fill="#e05c3a"/><circle cx="618" cy="177" r="3" fill="#e05c3a"/><circle cx="641" cy="174" r="3" fill="#e05c3a"/><circle cx="665" cy="172" r="3" fill="#e05c3a"/><circle cx="689" cy="169" r="3" fill="#e05c3a"/><circle cx="713" cy="166" r="3" fill="#e05c3a"/><circle cx="736" cy="163" r="3" fill="#e05c3a"/><circle cx="760" cy="82" r="3" fill="#e05c3a"/>
  <text x="72" y="352" text-anchor="middle" font-family="system-ui,sans-serif" font-size="12" fill="#666666">2026-06</text><text x="191" y="352" text-anchor="middle" font-family="system-ui,sans-serif" font-size="12" fill="#666666">2026-06</text><text x="309" y="352" text-anchor="middle" font-family="system-ui,sans-serif" font-size="12" fill="#666666">2026-06</text><text x="428" y="352" text-anchor="middle" font-family="system-ui,sans-serif" font-size="12" fill="#666666">2026-06</text><text x="546" y="352" text-anchor="middle" font-family="system-ui,sans-serif" font-size="12" fill="#666666">2026-06</text><text x="665" y="352" text-anchor="middle" font-family="system-ui,sans-serif" font-size="12" fill="#666666">2026-06</text><text x="760" y="352" text-anchor="middle" font-family="system-ui,sans-serif" font-size="12" fill="#666666">2026-06</text>
  <text x="-195" y="18" transform="rotate(-90)" text-anchor="middle" font-family="system-ui,sans-serif" font-size="12" fill="#666666">Cumulative Cloners</text>
  <text x="416" y="392" text-anchor="middle" font-family="system-ui,sans-serif" font-size="12" fill="#666666">Date</text>
  <line x1="72" y1="60" x2="72" y2="330" stroke="#1a1a1a" stroke-width="1.5"/>
  <line x1="72" y1="330" x2="760" y2="330" stroke="#1a1a1a" stroke-width="1.5"/>
  
  <rect x="84" y="72" width="183.20000000000002" height="28" rx="4" fill="#ffffff" stroke="#cccccc" stroke-width="1"/>
  <circle cx="98" cy="86" r="5" fill="#e05c3a"/>
  <text x="108" y="91" font-family="system-ui,sans-serif" font-size="12" fill="#1a1a1a">paarths-collab/hstack</text>
  <text x="760" y="390" text-anchor="end" font-family="system-ui,sans-serif" font-size="11" fill="#aaaaaa">hstack clone history</text>
</svg>
