<svg xmlns="http://www.w3.org/2000/svg" width="800" height="400" viewBox="0 0 800 400">
  <rect width="800" height="400" fill="#ffffff"/>
  <line x1="72" y1="330" x2="760" y2="330" stroke="#e8e8e8" stroke-width="1"/><text x="62" y="334" text-anchor="end" font-family="system-ui,sans-serif" font-size="12" fill="#666666">0</text><line x1="72" y1="276" x2="760" y2="276" stroke="#e8e8e8" stroke-width="1"/><text x="62" y="280" text-anchor="end" font-family="system-ui,sans-serif" font-size="12" fill="#666666">180</text><line x1="72" y1="222" x2="760" y2="222" stroke="#e8e8e8" stroke-width="1"/><text x="62" y="226" text-anchor="end" font-family="system-ui,sans-serif" font-size="12" fill="#666666">360</text><line x1="72" y1="168" x2="760" y2="168" stroke="#e8e8e8" stroke-width="1"/><text x="62" y="172" text-anchor="end" font-family="system-ui,sans-serif" font-size="12" fill="#666666">540</text><line x1="72" y1="114" x2="760" y2="114" stroke="#e8e8e8" stroke-width="1"/><text x="62" y="118" text-anchor="end" font-family="system-ui,sans-serif" font-size="12" fill="#666666">720</text><line x1="72" y1="60" x2="760" y2="60" stroke="#e8e8e8" stroke-width="1"/><text x="62" y="64" text-anchor="end" font-family="system-ui,sans-serif" font-size="12" fill="#666666">900</text>
  <polyline points="72,313 87,294 101,268 116,264 131,262 145,259 160,254 174,251 189,249 204,245 218,243 233,241 248,238 262,236 277,233 292,227 306,226 321,224 335,222 350,220 365,218 379,217 394,215 409,211 423,209 438,207 453,205 467,203 482,200 497,137 511,119 526,111 540,110 555,107 570,104 584,101 599,98 614,96 628,95 643,94 658,93 672,92 687,90 701,88 716,86 731,86 745,85 760,83" fill="none" stroke="#e05c3a" stroke-width="2.5" stroke-linejoin="round" stroke-linecap="round"/><circle cx="72" cy="313" r="3" fill="#e05c3a"/><circle cx="87" cy="294" r="3" fill="#e05c3a"/><circle cx="101" cy="268" r="3" fill="#e05c3a"/><circle cx="116" cy="264" r="3" fill="#e05c3a"/><circle cx="131" cy="262" r="3" fill="#e05c3a"/><circle cx="145" cy="259" r="3" fill="#e05c3a"/><circle cx="160" cy="254" r="3" fill="#e05c3a"/><circle cx="174" cy="251" r="3" fill="#e05c3a"/><circle cx="189" cy="249" r="3" fill="#e05c3a"/><circle cx="204" cy="245" r="3" fill="#e05c3a"/><circle cx="218" cy="243" r="3" fill="#e05c3a"/><circle cx="233" cy="241" r="3" fill="#e05c3a"/><circle cx="248" cy="238" r="3" fill="#e05c3a"/><circle cx="262" cy="236" r="3" fill="#e05c3a"/><circle cx="277" cy="233" r="3" fill="#e05c3a"/><circle cx="292" cy="227" r="3" fill="#e05c3a"/><circle cx="306" cy="226" r="3" fill="#e05c3a"/><circle cx="321" cy="224" r="3" fill="#e05c3a"/><circle cx="335" cy="222" r="3" fill="#e05c3a"/><circle cx="350" cy="220" r="3" fill="#e05c3a"/><circle cx="365" cy="218" r="3" fill="#e05c3a"/><circle cx="379" cy="217" r="3" fill="#e05c3a"/><circle cx="394" cy="215" r="3" fill="#e05c3a"/><circle cx="409" cy="211" r="3" fill="#e05c3a"/><circle cx="423" cy="209" r="3" fill="#e05c3a"/><circle cx="438" cy="207" r="3" fill="#e05c3a"/><circle cx="453" cy="205" r="3" fill="#e05c3a"/><circle cx="467" cy="203" r="3" fill="#e05c3a"/><circle cx="482" cy="200" r="3" fill="#e05c3a"/><circle cx="497" cy="137" r="3" fill="#e05c3a"/><circle cx="511" cy="119" r="3" fill="#e05c3a"/><circle cx="526" cy="111" r="3" fill="#e05c3a"/><circle cx="540" cy="110" r="3" fill="#e05c3a"/><circle cx="555" cy="107" r="3" fill="#e05c3a"/><circle cx="570" cy="104" r="3" fill="#e05c3a"/><circle cx="584" cy="101" r="3" fill="#e05c3a"/><circle cx="599" cy="98" r="3" fill="#e05c3a"/><circle cx="614" cy="96" r="3" fill="#e05c3a"/><circle cx="628" cy="95" r="3" fill="#e05c3a"/><circle cx="643" cy="94" r="3" fill="#e05c3a"/><circle cx="658" cy="93" r="3" fill="#e05c3a"/><circle cx="672" cy="92" r="3" fill="#e05c3a"/><circle cx="687" cy="90" r="3" fill="#e05c3a"/><circle cx="701" cy="88" r="3" fill="#e05c3a"/><circle cx="716" cy="86" r="3" fill="#e05c3a"/><circle cx="731" cy="86" r="3" fill="#e05c3a"/><circle cx="745" cy="85" r="3" fill="#e05c3a"/><circle cx="760" cy="83" r="3" fill="#e05c3a"/>
  <text x="72" y="352" text-anchor="middle" font-family="system-ui,sans-serif" font-size="12" fill="#666666">2026-06</text><text x="189" y="352" text-anchor="middle" font-family="system-ui,sans-serif" font-size="12" fill="#666666">2026-06</text><text x="306" y="352" text-anchor="middle" font-family="system-ui,sans-serif" font-size="12" fill="#666666">2026-06</text><text x="423" y="352" text-anchor="middle" font-family="system-ui,sans-serif" font-size="12" fill="#666666">2026-06</text><text x="540" y="352" text-anchor="middle" font-family="system-ui,sans-serif" font-size="12" fill="#666666">2026-07</text><text x="658" y="352" text-anchor="middle" font-family="system-ui,sans-serif" font-size="12" fill="#666666">2026-07</text><text x="760" y="352" text-anchor="middle" font-family="system-ui,sans-serif" font-size="12" fill="#666666">2026-07</text>
  <text x="-195" y="18" transform="rotate(-90)" text-anchor="middle" font-family="system-ui,sans-serif" font-size="12" fill="#666666">Cumulative Cloners</text>
  <text x="416" y="392" text-anchor="middle" font-family="system-ui,sans-serif" font-size="12" fill="#666666">Date</text>
  <line x1="72" y1="60" x2="72" y2="330" stroke="#1a1a1a" stroke-width="1.5"/>
  <line x1="72" y1="330" x2="760" y2="330" stroke="#1a1a1a" stroke-width="1.5"/>
  
  <rect x="84" y="72" width="183.20000000000002" height="28" rx="4" fill="#ffffff" stroke="#cccccc" stroke-width="1"/>
  <circle cx="98" cy="86" r="5" fill="#e05c3a"/>
  <text x="108" y="91" font-family="system-ui,sans-serif" font-size="12" fill="#1a1a1a">paarths-collab/hstack</text>
  <text x="760" y="390" text-anchor="end" font-family="system-ui,sans-serif" font-size="11" fill="#aaaaaa">hstack clone history</text>
</svg>
