<svg xmlns="http://www.w3.org/2000/svg" width="800" height="400" viewBox="0 0 800 400">
  <rect width="800" height="400" fill="#ffffff"/>
  <line x1="72" y1="330" x2="760" y2="330" stroke="#e8e8e8" stroke-width="1"/><text x="62" y="334" text-anchor="end" font-family="system-ui,sans-serif" font-size="12" fill="#666666">0</text><line x1="72" y1="276" x2="760" y2="276" stroke="#e8e8e8" stroke-width="1"/><text x="62" y="280" text-anchor="end" font-family="system-ui,sans-serif" font-size="12" fill="#666666">160</text><line x1="72" y1="222" x2="760" y2="222" stroke="#e8e8e8" stroke-width="1"/><text x="62" y="226" text-anchor="end" font-family="system-ui,sans-serif" font-size="12" fill="#666666">320</text><line x1="72" y1="168" x2="760" y2="168" stroke="#e8e8e8" stroke-width="1"/><text x="62" y="172" text-anchor="end" font-family="system-ui,sans-serif" font-size="12" fill="#666666">480</text><line x1="72" y1="114" x2="760" y2="114" stroke="#e8e8e8" stroke-width="1"/><text x="62" y="118" text-anchor="end" font-family="system-ui,sans-serif" font-size="12" fill="#666666">640</text><line x1="72" y1="60" x2="760" y2="60" stroke="#e8e8e8" stroke-width="1"/><text x="62" y="64" text-anchor="end" font-family="system-ui,sans-serif" font-size="12" fill="#666666">800</text>
  <polyline points="72,311 90,289 107,260 125,256 143,254 160,250 178,245 195,242 213,239 231,235 248,232 266,229 284,226 301,224 319,221 337,215 354,213 372,210 390,208 407,206 425,204 442,203 460,200 478,196 495,193 513,192 531,189 548,187 566,184 584,113 601,93 619,84 637,83 654,79 672,75 689,72 707,68 725,67 742,66 760,65" fill="none" stroke="#e05c3a" stroke-width="2.5" stroke-linejoin="round" stroke-linecap="round"/><circle cx="72" cy="311" r="3" fill="#e05c3a"/><circle cx="90" cy="289" r="3" fill="#e05c3a"/><circle cx="107" cy="260" r="3" fill="#e05c3a"/><circle cx="125" cy="256" r="3" fill="#e05c3a"/><circle cx="143" cy="254" r="3" fill="#e05c3a"/><circle cx="160" cy="250" r="3" fill="#e05c3a"/><circle cx="178" cy="245" r="3" fill="#e05c3a"/><circle cx="195" cy="242" r="3" fill="#e05c3a"/><circle cx="213" cy="239" r="3" fill="#e05c3a"/><circle cx="231" cy="235" r="3" fill="#e05c3a"/><circle cx="248" cy="232" r="3" fill="#e05c3a"/><circle cx="266" cy="229" r="3" fill="#e05c3a"/><circle cx="284" cy="226" r="3" fill="#e05c3a"/><circle cx="301" cy="224" r="3" fill="#e05c3a"/><circle cx="319" cy="221" r="3" fill="#e05c3a"/><circle cx="337" cy="215" r="3" fill="#e05c3a"/><circle cx="354" cy="213" r="3" fill="#e05c3a"/><circle cx="372" cy="210" r="3" fill="#e05c3a"/><circle cx="390" cy="208" r="3" fill="#e05c3a"/><circle cx="407" cy="206" r="3" fill="#e05c3a"/><circle cx="425" cy="204" r="3" fill="#e05c3a"/><circle cx="442" cy="203" r="3" fill="#e05c3a"/><circle cx="460" cy="200" r="3" fill="#e05c3a"/><circle cx="478" cy="196" r="3" fill="#e05c3a"/><circle cx="495" cy="193" r="3" fill="#e05c3a"/><circle cx="513" cy="192" r="3" fill="#e05c3a"/><circle cx="531" cy="189" r="3" fill="#e05c3a"/><circle cx="548" cy="187" r="3" fill="#e05c3a"/><circle cx="566" cy="184" r="3" fill="#e05c3a"/><circle cx="584" cy="113" r="3" fill="#e05c3a"/><circle cx="601" cy="93" r="3" fill="#e05c3a"/><circle cx="619" cy="84" r="3" fill="#e05c3a"/><circle cx="637" cy="83" r="3" fill="#e05c3a"/><circle cx="654" cy="79" r="3" fill="#e05c3a"/><circle cx="672" cy="75" r="3" fill="#e05c3a"/><circle cx="689" cy="72" r="3" fill="#e05c3a"/><circle cx="707" cy="68" r="3" fill="#e05c3a"/><circle cx="725" cy="67" r="3" fill="#e05c3a"/><circle cx="742" cy="66" r="3" fill="#e05c3a"/><circle cx="760" cy="65" r="3" fill="#e05c3a"/>
  <text x="72" y="352" text-anchor="middle" font-family="system-ui,sans-serif" font-size="12" fill="#666666">2026-06</text><text x="195" y="352" text-anchor="middle" font-family="system-ui,sans-serif" font-size="12" fill="#666666">2026-06</text><text x="319" y="352" text-anchor="middle" font-family="system-ui,sans-serif" font-size="12" fill="#666666">2026-06</text><text x="442" y="352" text-anchor="middle" font-family="system-ui,sans-serif" font-size="12" fill="#666666">2026-06</text><text x="566" y="352" text-anchor="middle" font-family="system-ui,sans-serif" font-size="12" fill="#666666">2026-06</text><text x="689" y="352" text-anchor="middle" font-family="system-ui,sans-serif" font-size="12" fill="#666666">2026-07</text><text x="760" y="352" text-anchor="middle" font-family="system-ui,sans-serif" font-size="12" fill="#666666">2026-07</text>
  <text x="-195" y="18" transform="rotate(-90)" text-anchor="middle" font-family="system-ui,sans-serif" font-size="12" fill="#666666">Cumulative Cloners</text>
  <text x="416" y="392" text-anchor="middle" font-family="system-ui,sans-serif" font-size="12" fill="#666666">Date</text>
  <line x1="72" y1="60" x2="72" y2="330" stroke="#1a1a1a" stroke-width="1.5"/>
  <line x1="72" y1="330" x2="760" y2="330" stroke="#1a1a1a" stroke-width="1.5"/>
  
  <rect x="84" y="72" width="183.20000000000002" height="28" rx="4" fill="#ffffff" stroke="#cccccc" stroke-width="1"/>
  <circle cx="98" cy="86" r="5" fill="#e05c3a"/>
  <text x="108" y="91" font-family="system-ui,sans-serif" font-size="12" fill="#1a1a1a">paarths-collab/hstack</text>
  <text x="760" y="390" text-anchor="end" font-family="system-ui,sans-serif" font-size="11" fill="#aaaaaa">hstack clone history</text>
</svg>
