<svg xmlns="http://www.w3.org/2000/svg" width="800" height="400" viewBox="0 0 800 400">
  <rect width="800" height="400" fill="#ffffff"/>
  <line x1="72" y1="330" x2="760" y2="330" stroke="#e8e8e8" stroke-width="1"/><text x="62" y="334" text-anchor="end" font-family="system-ui,sans-serif" font-size="12" fill="#666666">0</text><line x1="72" y1="276" x2="760" y2="276" stroke="#e8e8e8" stroke-width="1"/><text x="62" y="280" text-anchor="end" font-family="system-ui,sans-serif" font-size="12" fill="#666666">100</text><line x1="72" y1="222" x2="760" y2="222" stroke="#e8e8e8" stroke-width="1"/><text x="62" y="226" text-anchor="end" font-family="system-ui,sans-serif" font-size="12" fill="#666666">200</text><line x1="72" y1="168" x2="760" y2="168" stroke="#e8e8e8" stroke-width="1"/><text x="62" y="172" text-anchor="end" font-family="system-ui,sans-serif" font-size="12" fill="#666666">300</text><line x1="72" y1="114" x2="760" y2="114" stroke="#e8e8e8" stroke-width="1"/><text x="62" y="118" text-anchor="end" font-family="system-ui,sans-serif" font-size="12" fill="#666666">400</text><line x1="72" y1="60" x2="760" y2="60" stroke="#e8e8e8" stroke-width="1"/><text x="62" y="64" text-anchor="end" font-family="system-ui,sans-serif" font-size="12" fill="#666666">500</text>
  <polyline points="72,299 97,265 121,218 146,211 170,208 195,202 219,193 244,189 269,184 293,178 318,173 342,169 367,164 391,160 416,156 441,145 465,142 490,138 514,135 539,132 563,128 588,127 613,122 637,116 662,111 686,109 711,105 735,101 760,97" fill="none" stroke="#e05c3a" stroke-width="2.5" stroke-linejoin="round" stroke-linecap="round"/><circle cx="72" cy="299" r="3" fill="#e05c3a"/><circle cx="97" cy="265" r="3" fill="#e05c3a"/><circle cx="121" cy="218" r="3" fill="#e05c3a"/><circle cx="146" cy="211" r="3" fill="#e05c3a"/><circle cx="170" cy="208" r="3" fill="#e05c3a"/><circle cx="195" cy="202" r="3" fill="#e05c3a"/><circle cx="219" cy="193" r="3" fill="#e05c3a"/><circle cx="244" cy="189" r="3" fill="#e05c3a"/><circle cx="269" cy="184" r="3" fill="#e05c3a"/><circle cx="293" cy="178" r="3" fill="#e05c3a"/><circle cx="318" cy="173" r="3" fill="#e05c3a"/><circle cx="342" cy="169" r="3" fill="#e05c3a"/><circle cx="367" cy="164" r="3" fill="#e05c3a"/><circle cx="391" cy="160" r="3" fill="#e05c3a"/><circle cx="416" cy="156" r="3" fill="#e05c3a"/><circle cx="441" cy="145" r="3" fill="#e05c3a"/><circle cx="465" cy="142" r="3" fill="#e05c3a"/><circle cx="490" cy="138" r="3" fill="#e05c3a"/><circle cx="514" cy="135" r="3" fill="#e05c3a"/><circle cx="539" cy="132" r="3" fill="#e05c3a"/><circle cx="563" cy="128" r="3" fill="#e05c3a"/><circle cx="588" cy="127" r="3" fill="#e05c3a"/><circle cx="613" cy="122" r="3" fill="#e05c3a"/><circle cx="637" cy="116" r="3" fill="#e05c3a"/><circle cx="662" cy="111" r="3" fill="#e05c3a"/><circle cx="686" cy="109" r="3" fill="#e05c3a"/><circle cx="711" cy="105" r="3" fill="#e05c3a"/><circle cx="735" cy="101" r="3" fill="#e05c3a"/><circle cx="760" cy="97" r="3" fill="#e05c3a"/>
  <text x="72" y="352" text-anchor="middle" font-family="system-ui,sans-serif" font-size="12" fill="#666666">2026-06</text><text x="195" y="352" text-anchor="middle" font-family="system-ui,sans-serif" font-size="12" fill="#666666">2026-06</text><text x="318" y="352" text-anchor="middle" font-family="system-ui,sans-serif" font-size="12" fill="#666666">2026-06</text><text x="441" y="352" text-anchor="middle" font-family="system-ui,sans-serif" font-size="12" fill="#666666">2026-06</text><text x="563" y="352" text-anchor="middle" font-family="system-ui,sans-serif" font-size="12" fill="#666666">2026-06</text><text x="686" y="352" text-anchor="middle" font-family="system-ui,sans-serif" font-size="12" fill="#666666">2026-06</text><text x="760" y="352" text-anchor="middle" font-family="system-ui,sans-serif" font-size="12" fill="#666666">2026-06</text>
  <text x="-195" y="18" transform="rotate(-90)" text-anchor="middle" font-family="system-ui,sans-serif" font-size="12" fill="#666666">Cumulative Cloners</text>
  <text x="416" y="392" text-anchor="middle" font-family="system-ui,sans-serif" font-size="12" fill="#666666">Date</text>
  <line x1="72" y1="60" x2="72" y2="330" stroke="#1a1a1a" stroke-width="1.5"/>
  <line x1="72" y1="330" x2="760" y2="330" stroke="#1a1a1a" stroke-width="1.5"/>
  
  <rect x="84" y="72" width="183.20000000000002" height="28" rx="4" fill="#ffffff" stroke="#cccccc" stroke-width="1"/>
  <circle cx="98" cy="86" r="5" fill="#e05c3a"/>
  <text x="108" y="91" font-family="system-ui,sans-serif" font-size="12" fill="#1a1a1a">paarths-collab/hstack</text>
  <text x="760" y="390" text-anchor="end" font-family="system-ui,sans-serif" font-size="11" fill="#aaaaaa">hstack clone history</text>
</svg>
