<svg xmlns="http://www.w3.org/2000/svg" width="800" height="400" viewBox="0 0 800 400">
  <rect width="800" height="400" fill="#ffffff"/>
  <line x1="72" y1="330" x2="760" y2="330" stroke="#e8e8e8" stroke-width="1"/><text x="62" y="334" text-anchor="end" font-family="system-ui,sans-serif" font-size="12" fill="#666666">0</text><line x1="72" y1="276" x2="760" y2="276" stroke="#e8e8e8" stroke-width="1"/><text x="62" y="280" text-anchor="end" font-family="system-ui,sans-serif" font-size="12" fill="#666666">180</text><line x1="72" y1="222" x2="760" y2="222" stroke="#e8e8e8" stroke-width="1"/><text x="62" y="226" text-anchor="end" font-family="system-ui,sans-serif" font-size="12" fill="#666666">360</text><line x1="72" y1="168" x2="760" y2="168" stroke="#e8e8e8" stroke-width="1"/><text x="62" y="172" text-anchor="end" font-family="system-ui,sans-serif" font-size="12" fill="#666666">540</text><line x1="72" y1="114" x2="760" y2="114" stroke="#e8e8e8" stroke-width="1"/><text x="62" y="118" text-anchor="end" font-family="system-ui,sans-serif" font-size="12" fill="#666666">720</text><line x1="72" y1="60" x2="760" y2="60" stroke="#e8e8e8" stroke-width="1"/><text x="62" y="64" text-anchor="end" font-family="system-ui,sans-serif" font-size="12" fill="#666666">900</text>
  <polyline points="72,313 87,294 102,268 117,264 132,262 147,259 162,254 177,251 192,249 207,245 222,243 237,241 251,238 266,236 281,233 296,227 311,226 326,224 341,222 356,220 371,218 386,217 401,215 416,211 431,209 446,207 461,205 476,203 491,200 506,137 521,119 536,111 551,110 566,107 581,104 595,101 610,98 625,96 640,95 655,94 670,93 685,92 700,90 715,88 730,86 745,86 760,85" fill="none" stroke="#e05c3a" stroke-width="2.5" stroke-linejoin="round" stroke-linecap="round"/><circle cx="72" cy="313" r="3" fill="#e05c3a"/><circle cx="87" cy="294" r="3" fill="#e05c3a"/><circle cx="102" cy="268" r="3" fill="#e05c3a"/><circle cx="117" cy="264" r="3" fill="#e05c3a"/><circle cx="132" cy="262" r="3" fill="#e05c3a"/><circle cx="147" cy="259" r="3" fill="#e05c3a"/><circle cx="162" cy="254" r="3" fill="#e05c3a"/><circle cx="177" cy="251" r="3" fill="#e05c3a"/><circle cx="192" cy="249" r="3" fill="#e05c3a"/><circle cx="207" cy="245" r="3" fill="#e05c3a"/><circle cx="222" cy="243" r="3" fill="#e05c3a"/><circle cx="237" cy="241" r="3" fill="#e05c3a"/><circle cx="251" cy="238" r="3" fill="#e05c3a"/><circle cx="266" cy="236" r="3" fill="#e05c3a"/><circle cx="281" cy="233" r="3" fill="#e05c3a"/><circle cx="296" cy="227" r="3" fill="#e05c3a"/><circle cx="311" cy="226" r="3" fill="#e05c3a"/><circle cx="326" cy="224" r="3" fill="#e05c3a"/><circle cx="341" cy="222" r="3" fill="#e05c3a"/><circle cx="356" cy="220" r="3" fill="#e05c3a"/><circle cx="371" cy="218" r="3" fill="#e05c3a"/><circle cx="386" cy="217" r="3" fill="#e05c3a"/><circle cx="401" cy="215" r="3" fill="#e05c3a"/><circle cx="416" cy="211" r="3" fill="#e05c3a"/><circle cx="431" cy="209" r="3" fill="#e05c3a"/><circle cx="446" cy="207" r="3" fill="#e05c3a"/><circle cx="461" cy="205" r="3" fill="#e05c3a"/><circle cx="476" cy="203" r="3" fill="#e05c3a"/><circle cx="491" cy="200" r="3" fill="#e05c3a"/><circle cx="506" cy="137" r="3" fill="#e05c3a"/><circle cx="521" cy="119" r="3" fill="#e05c3a"/><circle cx="536" cy="111" r="3" fill="#e05c3a"/><circle cx="551" cy="110" r="3" fill="#e05c3a"/><circle cx="566" cy="107" r="3" fill="#e05c3a"/><circle cx="581" cy="104" r="3" fill="#e05c3a"/><circle cx="595" cy="101" r="3" fill="#e05c3a"/><circle cx="610" cy="98" r="3" fill="#e05c3a"/><circle cx="625" cy="96" r="3" fill="#e05c3a"/><circle cx="640" cy="95" r="3" fill="#e05c3a"/><circle cx="655" cy="94" r="3" fill="#e05c3a"/><circle cx="670" cy="93" r="3" fill="#e05c3a"/><circle cx="685" cy="92" r="3" fill="#e05c3a"/><circle cx="700" cy="90" r="3" fill="#e05c3a"/><circle cx="715" cy="88" r="3" fill="#e05c3a"/><circle cx="730" cy="86" r="3" fill="#e05c3a"/><circle cx="745" cy="86" r="3" fill="#e05c3a"/><circle cx="760" cy="85" r="3" fill="#e05c3a"/>
  <text x="72" y="352" text-anchor="middle" font-family="system-ui,sans-serif" font-size="12" fill="#666666">2026-06</text><text x="192" y="352" text-anchor="middle" font-family="system-ui,sans-serif" font-size="12" fill="#666666">2026-06</text><text x="311" y="352" text-anchor="middle" font-family="system-ui,sans-serif" font-size="12" fill="#666666">2026-06</text><text x="431" y="352" text-anchor="middle" font-family="system-ui,sans-serif" font-size="12" fill="#666666">2026-06</text><text x="551" y="352" text-anchor="middle" font-family="system-ui,sans-serif" font-size="12" fill="#666666">2026-07</text><text x="670" y="352" text-anchor="middle" font-family="system-ui,sans-serif" font-size="12" fill="#666666">2026-07</text><text x="760" y="352" text-anchor="middle" font-family="system-ui,sans-serif" font-size="12" fill="#666666">2026-07</text>
  <text x="-195" y="18" transform="rotate(-90)" text-anchor="middle" font-family="system-ui,sans-serif" font-size="12" fill="#666666">Cumulative Cloners</text>
  <text x="416" y="392" text-anchor="middle" font-family="system-ui,sans-serif" font-size="12" fill="#666666">Date</text>
  <line x1="72" y1="60" x2="72" y2="330" stroke="#1a1a1a" stroke-width="1.5"/>
  <line x1="72" y1="330" x2="760" y2="330" stroke="#1a1a1a" stroke-width="1.5"/>
  
  <rect x="84" y="72" width="183.20000000000002" height="28" rx="4" fill="#ffffff" stroke="#cccccc" stroke-width="1"/>
  <circle cx="98" cy="86" r="5" fill="#e05c3a"/>
  <text x="108" y="91" font-family="system-ui,sans-serif" font-size="12" fill="#1a1a1a">paarths-collab/hstack</text>
  <text x="760" y="390" text-anchor="end" font-family="system-ui,sans-serif" font-size="11" fill="#aaaaaa">hstack clone history</text>
</svg>
