<svg xmlns="http://www.w3.org/2000/svg" width="800" height="400" viewBox="0 0 800 400">
  <rect width="800" height="400" fill="#ffffff"/>
  <line x1="72" y1="330" x2="760" y2="330" stroke="#e8e8e8" stroke-width="1"/><text x="62" y="334" text-anchor="end" font-family="system-ui,sans-serif" font-size="12" fill="#666666">0</text><line x1="72" y1="276" x2="760" y2="276" stroke="#e8e8e8" stroke-width="1"/><text x="62" y="280" text-anchor="end" font-family="system-ui,sans-serif" font-size="12" fill="#666666">80</text><line x1="72" y1="222" x2="760" y2="222" stroke="#e8e8e8" stroke-width="1"/><text x="62" y="226" text-anchor="end" font-family="system-ui,sans-serif" font-size="12" fill="#666666">160</text><line x1="72" y1="168" x2="760" y2="168" stroke="#e8e8e8" stroke-width="1"/><text x="62" y="172" text-anchor="end" font-family="system-ui,sans-serif" font-size="12" fill="#666666">240</text><line x1="72" y1="114" x2="760" y2="114" stroke="#e8e8e8" stroke-width="1"/><text x="62" y="118" text-anchor="end" font-family="system-ui,sans-serif" font-size="12" fill="#666666">320</text><line x1="72" y1="60" x2="760" y2="60" stroke="#e8e8e8" stroke-width="1"/><text x="62" y="64" text-anchor="end" font-family="system-ui,sans-serif" font-size="12" fill="#666666">400</text>
  <polyline points="72,292 112,248 153,190 193,182 234,177 274,170 315,159 355,153 396,147 436,140 477,134 517,129 558,123 598,117 639,113 679,99 720,95 760,90" fill="none" stroke="#e05c3a" stroke-width="2.5" stroke-linejoin="round" stroke-linecap="round"/><circle cx="72" cy="292" r="3" fill="#e05c3a"/><circle cx="112" cy="248" r="3" fill="#e05c3a"/><circle cx="153" cy="190" r="3" fill="#e05c3a"/><circle cx="193" cy="182" r="3" fill="#e05c3a"/><circle cx="234" cy="177" r="3" fill="#e05c3a"/><circle cx="274" cy="170" r="3" fill="#e05c3a"/><circle cx="315" cy="159" r="3" fill="#e05c3a"/><circle cx="355" cy="153" r="3" fill="#e05c3a"/><circle cx="396" cy="147" r="3" fill="#e05c3a"/><circle cx="436" cy="140" r="3" fill="#e05c3a"/><circle cx="477" cy="134" r="3" fill="#e05c3a"/><circle cx="517" cy="129" r="3" fill="#e05c3a"/><circle cx="558" cy="123" r="3" fill="#e05c3a"/><circle cx="598" cy="117" r="3" fill="#e05c3a"/><circle cx="639" cy="113" r="3" fill="#e05c3a"/><circle cx="679" cy="99" r="3" fill="#e05c3a"/><circle cx="720" cy="95" r="3" fill="#e05c3a"/><circle cx="760" cy="90" r="3" fill="#e05c3a"/>
  <text x="72" y="352" text-anchor="middle" font-family="system-ui,sans-serif" font-size="12" fill="#666666">2026-06</text><text x="193" y="352" text-anchor="middle" font-family="system-ui,sans-serif" font-size="12" fill="#666666">2026-06</text><text x="315" y="352" text-anchor="middle" font-family="system-ui,sans-serif" font-size="12" fill="#666666">2026-06</text><text x="436" y="352" text-anchor="middle" font-family="system-ui,sans-serif" font-size="12" fill="#666666">2026-06</text><text x="558" y="352" text-anchor="middle" font-family="system-ui,sans-serif" font-size="12" fill="#666666">2026-06</text><text x="679" y="352" text-anchor="middle" font-family="system-ui,sans-serif" font-size="12" fill="#666666">2026-06</text><text x="760" y="352" text-anchor="middle" font-family="system-ui,sans-serif" font-size="12" fill="#666666">2026-06</text>
  <text x="-195" y="18" transform="rotate(-90)" text-anchor="middle" font-family="system-ui,sans-serif" font-size="12" fill="#666666">Cumulative Cloners</text>
  <text x="416" y="392" text-anchor="middle" font-family="system-ui,sans-serif" font-size="12" fill="#666666">Date</text>
  <line x1="72" y1="60" x2="72" y2="330" stroke="#1a1a1a" stroke-width="1.5"/>
  <line x1="72" y1="330" x2="760" y2="330" stroke="#1a1a1a" stroke-width="1.5"/>
  
  <rect x="84" y="72" width="183.20000000000002" height="28" rx="4" fill="#ffffff" stroke="#cccccc" stroke-width="1"/>
  <circle cx="98" cy="86" r="5" fill="#e05c3a"/>
  <text x="108" y="91" font-family="system-ui,sans-serif" font-size="12" fill="#1a1a1a">paarths-collab/hstack</text>
  <text x="760" y="390" text-anchor="end" font-family="system-ui,sans-serif" font-size="11" fill="#aaaaaa">hstack clone history</text>
</svg>
