<svg xmlns="http://www.w3.org/2000/svg" width="800" height="400" viewBox="0 0 800 400">
  <rect width="800" height="400" fill="#ffffff"/>
  <line x1="72" y1="330" x2="760" y2="330" stroke="#e8e8e8" stroke-width="1"/><text x="62" y="334" text-anchor="end" font-family="system-ui,sans-serif" font-size="12" fill="#666666">0</text><line x1="72" y1="276" x2="760" y2="276" stroke="#e8e8e8" stroke-width="1"/><text x="62" y="280" text-anchor="end" font-family="system-ui,sans-serif" font-size="12" fill="#666666">180</text><line x1="72" y1="222" x2="760" y2="222" stroke="#e8e8e8" stroke-width="1"/><text x="62" y="226" text-anchor="end" font-family="system-ui,sans-serif" font-size="12" fill="#666666">360</text><line x1="72" y1="168" x2="760" y2="168" stroke="#e8e8e8" stroke-width="1"/><text x="62" y="172" text-anchor="end" font-family="system-ui,sans-serif" font-size="12" fill="#666666">540</text><line x1="72" y1="114" x2="760" y2="114" stroke="#e8e8e8" stroke-width="1"/><text x="62" y="118" text-anchor="end" font-family="system-ui,sans-serif" font-size="12" fill="#666666">720</text><line x1="72" y1="60" x2="760" y2="60" stroke="#e8e8e8" stroke-width="1"/><text x="62" y="64" text-anchor="end" font-family="system-ui,sans-serif" font-size="12" fill="#666666">900</text>
  <polyline points="72,313 86,294 100,268 114,264 128,262 142,259 156,254 170,251 184,249 198,245 212,243 226,241 240,238 255,236 269,233 283,227 297,226 311,224 325,222 339,220 353,218 367,217 381,215 395,211 409,209 423,207 437,205 451,203 465,200 479,137 493,119 507,111 521,110 535,107 549,104 563,101 577,98 592,96 606,95 620,94 634,93 648,92 662,90 676,88 690,86 704,86 718,85 732,83 746,83 760,82" fill="none" stroke="#e05c3a" stroke-width="2.5" stroke-linejoin="round" stroke-linecap="round"/><circle cx="72" cy="313" r="3" fill="#e05c3a"/><circle cx="86" cy="294" r="3" fill="#e05c3a"/><circle cx="100" cy="268" r="3" fill="#e05c3a"/><circle cx="114" cy="264" r="3" fill="#e05c3a"/><circle cx="128" cy="262" r="3" fill="#e05c3a"/><circle cx="142" cy="259" r="3" fill="#e05c3a"/><circle cx="156" cy="254" r="3" fill="#e05c3a"/><circle cx="170" cy="251" r="3" fill="#e05c3a"/><circle cx="184" cy="249" r="3" fill="#e05c3a"/><circle cx="198" cy="245" r="3" fill="#e05c3a"/><circle cx="212" cy="243" r="3" fill="#e05c3a"/><circle cx="226" cy="241" r="3" fill="#e05c3a"/><circle cx="240" cy="238" r="3" fill="#e05c3a"/><circle cx="255" cy="236" r="3" fill="#e05c3a"/><circle cx="269" cy="233" r="3" fill="#e05c3a"/><circle cx="283" cy="227" r="3" fill="#e05c3a"/><circle cx="297" cy="226" r="3" fill="#e05c3a"/><circle cx="311" cy="224" r="3" fill="#e05c3a"/><circle cx="325" cy="222" r="3" fill="#e05c3a"/><circle cx="339" cy="220" r="3" fill="#e05c3a"/><circle cx="353" cy="218" r="3" fill="#e05c3a"/><circle cx="367" cy="217" r="3" fill="#e05c3a"/><circle cx="381" cy="215" r="3" fill="#e05c3a"/><circle cx="395" cy="211" r="3" fill="#e05c3a"/><circle cx="409" cy="209" r="3" fill="#e05c3a"/><circle cx="423" cy="207" r="3" fill="#e05c3a"/><circle cx="437" cy="205" r="3" fill="#e05c3a"/><circle cx="451" cy="203" r="3" fill="#e05c3a"/><circle cx="465" cy="200" r="3" fill="#e05c3a"/><circle cx="479" cy="137" r="3" fill="#e05c3a"/><circle cx="493" cy="119" r="3" fill="#e05c3a"/><circle cx="507" cy="111" r="3" fill="#e05c3a"/><circle cx="521" cy="110" r="3" fill="#e05c3a"/><circle cx="535" cy="107" r="3" fill="#e05c3a"/><circle cx="549" cy="104" r="3" fill="#e05c3a"/><circle cx="563" cy="101" r="3" fill="#e05c3a"/><circle cx="577" cy="98" r="3" fill="#e05c3a"/><circle cx="592" cy="96" r="3" fill="#e05c3a"/><circle cx="606" cy="95" r="3" fill="#e05c3a"/><circle cx="620" cy="94" r="3" fill="#e05c3a"/><circle cx="634" cy="93" r="3" fill="#e05c3a"/><circle cx="648" cy="92" r="3" fill="#e05c3a"/><circle cx="662" cy="90" r="3" fill="#e05c3a"/><circle cx="676" cy="88" r="3" fill="#e05c3a"/><circle cx="690" cy="86" r="3" fill="#e05c3a"/><circle cx="704" cy="86" r="3" fill="#e05c3a"/><circle cx="718" cy="85" r="3" fill="#e05c3a"/><circle cx="732" cy="83" r="3" fill="#e05c3a"/><circle cx="746" cy="83" r="3" fill="#e05c3a"/><circle cx="760" cy="82" r="3" fill="#e05c3a"/>
  <text x="72" y="352" text-anchor="middle" font-family="system-ui,sans-serif" font-size="12" fill="#666666">2026-06</text><text x="198" y="352" text-anchor="middle" font-family="system-ui,sans-serif" font-size="12" fill="#666666">2026-06</text><text x="325" y="352" text-anchor="middle" font-family="system-ui,sans-serif" font-size="12" fill="#666666">2026-06</text><text x="451" y="352" text-anchor="middle" font-family="system-ui,sans-serif" font-size="12" fill="#666666">2026-06</text><text x="577" y="352" text-anchor="middle" font-family="system-ui,sans-serif" font-size="12" fill="#666666">2026-07</text><text x="704" y="352" text-anchor="middle" font-family="system-ui,sans-serif" font-size="12" fill="#666666">2026-07</text><text x="760" y="352" text-anchor="middle" font-family="system-ui,sans-serif" font-size="12" fill="#666666">2026-07</text>
  <text x="-195" y="18" transform="rotate(-90)" text-anchor="middle" font-family="system-ui,sans-serif" font-size="12" fill="#666666">Cumulative Cloners</text>
  <text x="416" y="392" text-anchor="middle" font-family="system-ui,sans-serif" font-size="12" fill="#666666">Date</text>
  <line x1="72" y1="60" x2="72" y2="330" stroke="#1a1a1a" stroke-width="1.5"/>
  <line x1="72" y1="330" x2="760" y2="330" stroke="#1a1a1a" stroke-width="1.5"/>
  
  <rect x="84" y="72" width="183.20000000000002" height="28" rx="4" fill="#ffffff" stroke="#cccccc" stroke-width="1"/>
  <circle cx="98" cy="86" r="5" fill="#e05c3a"/>
  <text x="108" y="91" font-family="system-ui,sans-serif" font-size="12" fill="#1a1a1a">paarths-collab/hstack</text>
  <text x="760" y="390" text-anchor="end" font-family="system-ui,sans-serif" font-size="11" fill="#aaaaaa">hstack clone history</text>
</svg>
